<svg width="24" height="24" viewBox="0 0 24 24" fill="none" xmlns="http://www.w3.org/2000/svg">
<path d="M17.7695 10.0969C18.318 8.56875 19.8977 4.14844 19.8977 2.73281C19.8977 1.48594 19.1617 0.440625 17.8492 0.440625C15.7586 0.440625 13.8836 6.61406 13.2977 8.08594C12.843 6.75 10.7148 0 8.83985 0C7.38204 0 6.69766 1.07344 6.69766 2.42344C6.69766 4.07812 8.30079 8.36719 8.88204 10.0172C8.58672 9.90937 8.26797 9.81562 7.94454 9.81562C6.84766 9.81562 5.68047 11.1797 5.68047 12.2812C5.68047 12.6984 5.91016 13.2844 6.05547 13.6734C4.32579 14.1422 3.66016 15.2953 3.66016 17.0344C3.65547 20.4187 6.86172 24 11.3711 24C16.9024 24 20.343 19.8469 20.343 14.4891C20.343 12.4688 20.0195 10.6453 17.7695 10.0969V10.0969ZM16.1102 5.0625C16.2977 4.48594 17.0992 2.04844 17.8492 2.04844C18.2523 2.04844 18.3602 2.46563 18.3602 2.79844C18.3602 3.69375 16.5508 8.63906 16.1524 9.73594L14.5586 9.45469L16.1102 5.0625V5.0625ZM8.16954 2.26406C8.16954 1.70625 8.84922 0.121875 10.3399 4.47188L11.9617 9.17344C11.2305 9.1125 10.6633 9.03281 10.3023 9.23906C9.79141 7.88906 8.16954 3.62812 8.16954 2.26406V2.26406ZM8.06172 11.4375C9.43516 11.4375 11.207 15.8719 11.207 16.4719C11.207 16.7109 10.9773 17.0062 10.7102 17.0062C9.73047 17.0062 7.10547 13.4016 7.10547 12.4266C7.11016 12.0656 7.70079 11.4375 8.06172 11.4375V11.4375ZM16.7008 20.1703C15.3367 21.6703 13.593 22.4484 11.5586 22.4484C8.77422 22.4484 6.57579 20.9203 5.51641 18.3094C4.71485 16.275 5.69454 15.1078 6.48204 15.1078C7.01641 15.1078 9.02735 17.9344 9.02735 18.5344C9.02735 18.7641 8.66641 18.9234 8.47891 18.9234C7.72422 18.9234 7.42891 18.1969 6.0836 16.5141C4.69141 17.9062 7.04454 20.5875 8.81641 20.5875C10.0398 20.5875 10.8367 19.4531 10.5977 18.6188C10.7711 18.6188 10.9867 18.6328 11.1461 18.5906C11.1977 19.8609 11.5727 21.375 13.1008 21.4828C13.1008 21.4406 13.1945 21.15 13.1945 21.1359C13.1945 20.3203 12.6977 19.6078 12.6977 18.7781C12.6977 17.4516 13.7149 16.1672 14.7461 15.4172C15.1211 15.1359 15.5758 14.9625 16.0164 14.8031C16.4711 14.6297 16.9539 14.4281 17.3008 14.0812C17.2492 13.5562 17.0336 13.0922 16.5086 13.0922C15.2102 13.0922 10.8555 13.2797 10.8555 11.2313C10.8555 10.9172 10.8602 10.6172 11.6711 10.6172C13.1852 10.6172 17.0289 10.9922 18.1539 11.9813C19.0023 12.7359 19.293 17.2875 16.7008 20.1703V20.1703ZM12.0789 14.2641C12.5336 14.4094 13.0023 14.4516 13.4711 14.5453C13.1242 14.7984 12.8149 15.1078 12.5195 15.4406C12.3883 15.0422 12.2289 14.6531 12.0789 14.2641V14.2641Z" fill="#6E70AB"/>
</svg>
