<svg width="24" height="24" viewBox="0 0 24 24" fill="none" xmlns="http://www.w3.org/2000/svg">
<g clip-path="url(#clip0_195_9479)">
<path opacity="0.2" d="M0.363357 13.6945L0.421539 4.96865C0.431721 3.38902 1.53645 2.03484 3.06154 1.73302L11.4884 0.0624719C13.5132 -0.338983 15.3924 1.24574 15.3794 3.34247L15.3212 12.0697C15.3103 13.6487 14.2055 15.0021 12.6804 15.3047L4.25354 16.9752C2.22881 17.3767 0.349539 15.7919 0.363357 13.6945Z" fill="#6E70AB"/>
<path opacity="0.5" d="M4.49226 17.1762L4.55044 8.44892C4.5599 6.87073 5.66535 5.51728 7.19045 5.21473L15.6174 3.54492C17.6421 3.14346 19.5214 4.72746 19.5075 6.82492L19.4494 15.5522C19.4392 17.1311 18.3344 18.4846 16.8094 18.7871L8.38245 20.4576C6.35772 20.8584 4.47845 19.2744 4.49226 17.1776V17.1762Z" fill="#6E70AB"/>
<path opacity="0.8" d="M8.62189 20.6581L8.68007 11.9308C8.69025 10.3512 9.79498 8.99845 11.3201 8.69591L19.747 7.02536C21.7717 6.62391 23.651 8.20863 23.6372 10.3054L23.579 19.0326C23.5688 20.6123 22.4641 21.9657 20.939 22.2675L12.5121 23.9381C10.4873 24.3395 8.60807 22.7548 8.62116 20.6581H8.62189Z" fill="#6E70AB"/>
</g>
<defs>
<clipPath id="clip0_195_9479">
<rect width="24" height="24" fill="white"/>
</clipPath>
</defs>
</svg>
