<svg width="148" height="24" viewBox="0 0 148 24" fill="none" xmlns="http://www.w3.org/2000/svg">
<path d="M121.633 7.45597C121.548 6.59659 121.182 5.92898 120.536 5.45312C119.889 4.97727 119.012 4.73935 117.904 4.73935C117.151 4.73935 116.516 4.84588 115.997 5.05895C115.479 5.26491 115.081 5.55256 114.804 5.92188C114.534 6.29119 114.399 6.71023 114.399 7.17898C114.385 7.5696 114.467 7.91051 114.644 8.20171C114.829 8.4929 115.081 8.74503 115.401 8.9581C115.72 9.16406 116.089 9.34517 116.509 9.50142C116.928 9.65057 117.375 9.77841 117.851 9.88494L119.811 10.3537C120.763 10.5668 121.636 10.8509 122.432 11.206C123.227 11.5611 123.916 11.9979 124.499 12.5163C125.081 13.0348 125.532 13.6456 125.852 14.3487C126.178 15.0518 126.345 15.858 126.352 16.767C126.345 18.1023 126.004 19.2599 125.33 20.2401C124.662 21.2131 123.696 21.9695 122.432 22.5092C121.175 23.0419 119.658 23.3082 117.883 23.3082C116.121 23.3082 114.587 23.0384 113.281 22.4986C111.981 21.9588 110.965 21.1598 110.234 20.1016C109.509 19.0362 109.129 17.7187 109.094 16.1491H113.558C113.607 16.8807 113.817 17.4915 114.186 17.9815C114.563 18.4645 115.063 18.8303 115.688 19.0788C116.32 19.3203 117.034 19.4411 117.83 19.4411C118.611 19.4411 119.289 19.3274 119.864 19.1001C120.447 18.8729 120.898 18.5568 121.217 18.152C121.537 17.7472 121.697 17.282 121.697 16.7564C121.697 16.2663 121.551 15.8544 121.26 15.5206C120.976 15.1868 120.557 14.9027 120.003 14.6683C119.456 14.4339 118.785 14.2209 117.989 14.0291L115.614 13.4325C113.774 12.9851 112.322 12.2855 111.256 11.3338C110.191 10.3821 109.662 9.10014 109.669 7.48793C109.662 6.1669 110.013 5.01278 110.724 4.02557C111.441 3.03835 112.425 2.26776 113.675 1.71378C114.925 1.1598 116.345 0.882812 117.936 0.882812C119.555 0.882812 120.969 1.1598 122.176 1.71378C123.391 2.26776 124.335 3.03835 125.01 4.02557C125.685 5.01278 126.033 6.15625 126.054 7.45597H121.633Z" fill="white"/>
<path d="M95.3867 1.18164H99.9996V15.3507C99.9996 16.9416 99.6197 18.3336 98.8597 19.5268C98.1069 20.72 97.0522 21.6504 95.6957 22.318C94.3391 22.9785 92.7589 23.3088 90.9549 23.3088C89.1438 23.3088 87.56 22.9785 86.2035 22.318C84.8469 21.6504 83.7923 20.72 83.0394 19.5268C82.2866 18.3336 81.9102 16.9416 81.9102 15.3507V1.18164H86.5231V14.9565C86.5231 15.7875 86.7042 16.5261 87.0664 17.1724C87.4357 17.8187 87.9542 18.3265 88.6218 18.6958C89.2894 19.0652 90.0671 19.2498 90.9549 19.2498C91.8498 19.2498 92.6275 19.0652 93.288 18.6958C93.9556 18.3265 94.4705 17.8187 94.8327 17.1724C95.2021 16.5261 95.3867 15.7875 95.3867 14.9565V1.18164Z" fill="white"/>
<path d="M72.603 8.8196H67.9368C67.8516 8.21591 67.6776 7.67969 67.4148 7.21094C67.152 6.73509 66.8146 6.33025 66.4027 5.99645C65.9908 5.66264 65.5149 5.40696 64.9751 5.2294C64.4425 5.05185 63.8636 4.96307 63.2386 4.96307C62.1094 4.96307 61.1257 5.24361 60.2876 5.80469C59.4496 6.35866 58.7997 7.16832 58.3381 8.23367C57.8764 9.2919 57.6456 10.5774 57.6456 12.0902C57.6456 13.6456 57.8764 14.9524 58.3381 16.0107C58.8068 17.0689 59.4602 17.8679 60.2983 18.4077C61.1364 18.9474 62.1058 19.2173 63.2067 19.2173C63.8246 19.2173 64.3963 19.1357 64.9219 18.9723C65.4545 18.8089 65.9268 18.571 66.3388 18.2585C66.7507 17.9389 67.0916 17.5518 67.3615 17.0973C67.6385 16.6428 67.8303 16.1243 67.9368 15.5419L72.603 15.5632C72.4822 16.5646 72.1804 17.5305 71.6974 18.4609C71.2216 19.3842 70.5788 20.2116 69.7692 20.9432C68.9666 21.6676 68.0078 22.2429 66.8928 22.669C65.7848 23.0881 64.5313 23.2976 63.1321 23.2976C61.1861 23.2976 59.446 22.8572 57.9119 21.9766C56.3849 21.0959 55.1776 19.821 54.2898 18.152C53.4091 16.483 52.9688 14.4624 52.9688 12.0902C52.9688 9.71094 53.4162 7.68679 54.3111 6.01776C55.206 4.34872 56.4205 3.07742 57.9545 2.20384C59.4886 1.32315 61.2145 0.882812 63.1321 0.882812C64.3963 0.882812 65.5682 1.06037 66.6477 1.41548C67.7344 1.7706 68.6967 2.28906 69.5348 2.97088C70.3729 3.6456 71.0547 4.47301 71.5803 5.45312C72.1129 6.43324 72.4538 7.5554 72.603 8.8196Z" fill="white"/>
<path d="M43.9332 12.0902C43.9332 14.4695 43.4822 16.4936 42.5803 18.1626C41.6854 19.8317 40.4638 21.1065 38.9155 21.9872C37.3743 22.8608 35.6413 23.2976 33.7166 23.2976C31.7777 23.2976 30.0376 22.8572 28.4964 21.9766C26.9553 21.0959 25.7372 19.821 24.8423 18.152C23.9474 16.483 23.5 14.4624 23.5 12.0902C23.5 9.71094 23.9474 7.68679 24.8423 6.01776C25.7372 4.34872 26.9553 3.07742 28.4964 2.20384C30.0376 1.32315 31.7777 0.882812 33.7166 0.882812C35.6413 0.882812 37.3743 1.32315 38.9155 2.20384C40.4638 3.07742 41.6854 4.34872 42.5803 6.01776C43.4822 7.68679 43.9332 9.71094 43.9332 12.0902ZM39.2564 12.0902C39.2564 10.549 39.0256 9.24929 38.5639 8.19105C38.1094 7.13281 37.4666 6.33026 36.6357 5.78338C35.8047 5.23651 34.8317 4.96307 33.7166 4.96307C32.6016 4.96307 31.6286 5.23651 30.7976 5.78338C29.9666 6.33026 29.3203 7.13281 28.8587 8.19105C28.4041 9.24929 28.1768 10.549 28.1768 12.0902C28.1768 13.6314 28.4041 14.9311 28.8587 15.9893C29.3203 17.0476 29.9666 17.8501 30.7976 18.397C31.6286 18.9439 32.6016 19.2173 33.7166 19.2173C34.8317 19.2173 35.8047 18.9439 36.6357 18.397C37.4666 17.8501 38.1094 17.0476 38.5639 15.9893C39.0256 14.9311 39.2564 13.6314 39.2564 12.0902Z" fill="white"/>
<path d="M0.335938 22.9998V1.18164H14.782V4.98491H4.94886V10.1838H13.8232V13.987H4.94886V22.9998H0.335938Z" fill="white"/>
<rect x="138" y="7" width="10" height="10" fill="#591DDD"/>
</svg>
