<svg width="535" height="414" viewBox="0 0 535 414" fill="none" xmlns="http://www.w3.org/2000/svg">
<g filter="url(#filter0_d_205_9667)">
<path d="M0 19.2C0 12.4794 0 9.11905 1.30792 6.55211C2.4584 4.29417 4.29417 2.4584 6.55211 1.30792C9.11905 0 12.4794 0 19.2 0H513.8C520.521 0 523.881 0 526.448 1.30792C528.706 2.4584 530.542 4.29417 531.692 6.55211C533 9.11905 533 12.4794 533 19.2V392.8C533 399.521 533 402.881 531.692 405.448C530.542 407.706 528.706 409.542 526.448 410.692C523.881 412 520.521 412 513.8 412H19.2C12.4794 412 9.11905 412 6.55211 410.692C4.29417 409.542 2.4584 407.706 1.30792 405.448C0 402.881 0 399.521 0 392.8V19.2Z" fill="#110A28"/>
</g>
<path d="M73.307 382.025C74.557 382.025 75.357 381.445 75.357 380.045V374.655H74.277V379.955C74.277 380.765 73.867 381.115 73.107 381.115C72.777 381.115 72.507 381.035 72.317 380.925V381.815C72.537 381.935 72.907 382.025 73.307 382.025ZM78.7593 382.035C79.6493 382.035 80.3093 381.575 80.5593 380.895H80.6193V381.945H81.6493V376.655H80.6593L80.6193 377.695H80.5593C80.3093 377.015 79.6493 376.565 78.7593 376.565C77.4693 376.565 76.5993 377.525 76.5993 379.295C76.5993 381.065 77.4693 382.035 78.7593 382.035ZM79.1193 381.185C78.2393 381.185 77.6593 380.535 77.6593 379.295C77.6593 378.045 78.2393 377.405 79.1193 377.405C80.0993 377.405 80.6093 378.185 80.6093 378.995V379.595C80.6093 380.415 80.0993 381.185 79.1193 381.185ZM83.0921 381.945H84.1121V379.055C84.1121 378.145 84.6821 377.425 85.5921 377.425C86.4321 377.425 86.8221 377.935 86.8221 379.015V381.945H87.8521V378.805C87.8521 377.185 87.0421 376.575 85.9621 376.575C85.1821 376.575 84.4821 376.955 84.1721 377.705H84.1121L84.0721 376.655H83.0921V381.945Z" fill="#AEB9E1"/>
<path d="M104.208 381.945H105.298V378.835H108.898V377.935H105.298V375.595H109.298V374.655H104.208V381.945ZM112.41 382.035C113.66 382.035 114.62 381.355 114.76 380.315H113.78C113.65 380.865 113.12 381.215 112.41 381.215C111.49 381.215 110.89 380.595 110.87 379.505H114.79C114.95 377.845 114.11 376.575 112.37 376.575C110.82 376.575 109.85 377.655 109.85 379.325C109.85 380.955 110.82 382.035 112.41 382.035ZM112.36 377.385C113.14 377.385 113.75 377.795 113.78 378.775H110.89C110.97 377.915 111.53 377.385 112.36 377.385ZM118.794 382.035C120.084 382.035 120.954 381.075 120.954 379.305C120.954 377.535 120.084 376.565 118.794 376.565C117.904 376.565 117.244 377.025 116.994 377.695H116.934V374.655H115.904V381.945H116.894L116.934 380.905H116.994C117.244 381.585 117.904 382.035 118.794 382.035ZM118.434 381.185C117.454 381.185 116.944 380.415 116.944 379.595V379.005C116.944 378.185 117.454 377.415 118.434 377.415C119.314 377.415 119.894 378.055 119.894 379.305C119.894 380.545 119.314 381.185 118.434 381.185Z" fill="#AEB9E1"/>
<path d="M137.131 381.945H138.201V378.545L138.181 375.805H138.251L140.421 381.945H141.291L143.461 375.805H143.531L143.501 378.535V381.945H144.561V374.655H142.901L140.871 380.235H140.831L138.801 374.655H137.131V381.945ZM147.97 382.035C148.86 382.035 149.52 381.575 149.77 380.895H149.83V381.945H150.86V376.655H149.87L149.83 377.695H149.77C149.52 377.015 148.86 376.565 147.97 376.565C146.68 376.565 145.81 377.525 145.81 379.295C145.81 381.065 146.68 382.035 147.97 382.035ZM148.33 381.185C147.45 381.185 146.87 380.535 146.87 379.295C146.87 378.045 147.45 377.405 148.33 377.405C149.31 377.405 149.82 378.185 149.82 378.995V379.595C149.82 380.415 149.31 381.185 148.33 381.185ZM152.303 381.945H153.323V378.925C153.373 378.055 153.903 377.565 154.843 377.565C154.963 377.565 155.083 377.565 155.163 377.575V376.605C155.073 376.595 154.973 376.585 154.853 376.585C154.153 376.585 153.553 376.915 153.323 377.595H153.273L153.223 376.655H152.303V381.945Z" fill="#AEB9E1"/>
<path d="M170.473 381.945H171.613L172.213 380.245H175.443L176.043 381.945H177.183L174.593 374.655H173.063L170.473 381.945ZM172.473 379.395L173.293 377.145L173.803 375.655H173.863L174.373 377.145L175.173 379.395H172.473ZM177.921 383.615H178.951V380.905H179.011C179.271 381.585 179.931 382.035 180.811 382.035C182.101 382.035 182.971 381.075 182.971 379.305C182.971 377.535 182.101 376.565 180.811 376.565C179.931 376.565 179.271 377.025 179.011 377.695H178.951L178.911 376.655H177.921V383.615ZM180.451 381.185C179.471 381.185 178.961 380.415 178.961 379.595V379.005C178.961 378.185 179.471 377.415 180.451 377.415C181.331 377.415 181.921 378.055 181.921 379.305C181.921 380.545 181.331 381.185 180.451 381.185ZM184.064 381.945H185.084V378.925C185.134 378.055 185.664 377.565 186.604 377.565C186.724 377.565 186.844 377.565 186.924 377.575V376.605C186.834 376.595 186.734 376.585 186.614 376.585C185.914 376.585 185.314 376.915 185.084 377.595H185.034L184.984 376.655H184.064V381.945Z" fill="#AEB9E1"/>
<path d="M202.974 381.945H204.044V378.545L204.024 375.805H204.094L206.264 381.945H207.134L209.304 375.805H209.374L209.344 378.535V381.945H210.404V374.655H208.744L206.714 380.235H206.674L204.644 374.655H202.974V381.945ZM213.813 382.035C214.703 382.035 215.363 381.575 215.613 380.895H215.673V381.945H216.703V376.655H215.713L215.673 377.695H215.613C215.363 377.015 214.703 376.565 213.813 376.565C212.523 376.565 211.653 377.525 211.653 379.295C211.653 381.065 212.523 382.035 213.813 382.035ZM214.173 381.185C213.293 381.185 212.713 380.535 212.713 379.295C212.713 378.045 213.293 377.405 214.173 377.405C215.153 377.405 215.663 378.185 215.663 378.995V379.595C215.663 380.415 215.153 381.185 214.173 381.185ZM217.796 383.615H218.536C219.366 383.615 219.896 383.325 220.236 382.405L222.436 376.655H221.346L220.206 379.875L219.996 380.505H219.956L219.736 379.875L218.526 376.655H217.396L219.476 381.565L219.246 382.155C219.076 382.575 218.836 382.765 218.366 382.765H217.796V383.615Z" fill="#AEB9E1"/>
<path d="M238.701 382.025C239.951 382.025 240.751 381.445 240.751 380.045V374.655H239.671V379.955C239.671 380.765 239.261 381.115 238.501 381.115C238.171 381.115 237.901 381.035 237.711 380.925V381.815C237.931 381.935 238.301 382.025 238.701 382.025ZM244.203 382.035C245.023 382.035 245.713 381.605 245.973 380.875H246.033L246.083 381.945H247.063V376.655H246.033V379.515C246.033 380.485 245.453 381.175 244.583 381.175C243.693 381.175 243.333 380.635 243.333 379.655V376.655H242.303V379.915C242.303 381.315 243.003 382.035 244.203 382.035ZM248.456 381.945H249.476V379.055C249.476 378.145 250.046 377.425 250.956 377.425C251.796 377.425 252.186 377.935 252.186 379.015V381.945H253.216V378.805C253.216 377.185 252.406 376.575 251.326 376.575C250.546 376.575 249.846 376.955 249.536 377.705H249.476L249.436 376.655H248.456V381.945Z" fill="#AEB9E1"/>
<path d="M270.023 382.025C271.273 382.025 272.073 381.445 272.073 380.045V374.655H270.993V379.955C270.993 380.765 270.583 381.115 269.823 381.115C269.493 381.115 269.223 381.035 269.033 380.925V381.815C269.253 381.935 269.623 382.025 270.023 382.025ZM275.525 382.035C276.345 382.035 277.035 381.605 277.295 380.875H277.355L277.405 381.945H278.385V376.655H277.355V379.515C277.355 380.485 276.775 381.175 275.905 381.175C275.015 381.175 274.655 380.635 274.655 379.655V376.655H273.625V379.915C273.625 381.315 274.325 382.035 275.525 382.035ZM279.779 381.945H280.809V374.655H279.779V381.945Z" fill="#AEB9E1"/>
<path d="M296.406 381.945H297.546L298.146 380.245H301.376L301.976 381.945H303.116L300.526 374.655H298.996L296.406 381.945ZM298.406 379.395L299.226 377.145L299.736 375.655H299.796L300.306 377.145L301.106 379.395H298.406ZM305.508 382.035C306.328 382.035 307.018 381.605 307.278 380.875H307.338L307.388 381.945H308.368V376.655H307.338V379.515C307.338 380.485 306.758 381.175 305.888 381.175C304.998 381.175 304.638 380.635 304.638 379.655V376.655H303.608V379.915C303.608 381.315 304.308 382.035 305.508 382.035ZM311.813 383.715C313.303 383.715 314.313 383.115 314.313 381.455V376.655H313.313L313.293 377.635H313.223C312.983 376.995 312.343 376.565 311.503 376.565C310.223 376.565 309.363 377.485 309.363 379.105C309.363 380.715 310.203 381.635 311.493 381.635C312.333 381.635 312.983 381.205 313.223 380.565H313.293V381.595C313.293 382.575 312.783 382.955 311.833 382.955C311.163 382.955 310.703 382.665 310.623 382.195H309.623C309.733 383.135 310.543 383.715 311.813 383.715ZM311.843 380.835C310.983 380.835 310.423 380.225 310.423 379.105C310.423 378.005 310.973 377.375 311.853 377.375C312.783 377.375 313.273 378.085 313.283 378.775L313.293 379.415C313.273 380.115 312.763 380.835 311.843 380.835Z" fill="#AEB9E1"/>
<path d="M333.249 382.035C335.109 382.035 336.099 381.185 336.099 379.935C336.099 378.255 334.889 377.935 333.599 377.725C332.199 377.475 331.649 377.315 331.649 376.505C331.649 375.845 332.199 375.415 333.159 375.415C334.099 375.415 334.729 375.835 334.759 376.705H335.869C335.849 375.425 334.869 374.575 333.199 374.575C331.529 374.575 330.519 375.375 330.519 376.655C330.519 377.905 331.379 378.395 333.049 378.685C334.479 378.925 334.969 379.165 334.969 380.035C334.969 380.805 334.289 381.175 333.269 381.175C332.029 381.175 331.489 380.595 331.469 379.665H330.349C330.369 381.065 331.309 382.035 333.249 382.035ZM339.46 382.035C340.71 382.035 341.67 381.355 341.81 380.315H340.83C340.7 380.865 340.17 381.215 339.46 381.215C338.54 381.215 337.94 380.595 337.92 379.505H341.84C342 377.845 341.16 376.575 339.42 376.575C337.87 376.575 336.9 377.655 336.9 379.325C336.9 380.955 337.87 382.035 339.46 382.035ZM339.41 377.385C340.19 377.385 340.8 377.795 340.83 378.775H337.94C338.02 377.915 338.58 377.385 339.41 377.385ZM342.953 383.615H343.983V380.905H344.043C344.303 381.585 344.963 382.035 345.843 382.035C347.133 382.035 348.003 381.075 348.003 379.305C348.003 377.535 347.133 376.565 345.843 376.565C344.963 376.565 344.303 377.025 344.043 377.695H343.983L343.943 376.655H342.953V383.615ZM345.483 381.185C344.503 381.185 343.993 380.415 343.993 379.595V379.005C343.993 378.185 344.503 377.415 345.483 377.415C346.363 377.415 346.953 378.055 346.953 379.305C346.953 380.545 346.363 381.185 345.483 381.185Z" fill="#AEB9E1"/>
<path d="M367.486 382.035C369.646 382.035 371.086 380.625 371.086 378.305C371.086 375.985 369.656 374.575 367.486 374.575C365.326 374.575 363.896 375.985 363.896 378.305C363.896 380.615 365.316 382.035 367.486 382.035ZM367.486 381.095C365.976 381.095 365.016 380.075 365.016 378.305C365.016 376.535 365.966 375.515 367.486 375.515C369.006 375.515 369.966 376.535 369.966 378.305C369.966 380.065 369.006 381.095 367.486 381.095ZM374.483 382.035C375.803 382.035 376.763 381.255 376.843 380.055H375.843C375.763 380.725 375.253 381.175 374.483 381.175C373.563 381.175 372.963 380.505 372.963 379.315C372.963 378.185 373.513 377.435 374.493 377.435C375.173 377.435 375.703 377.795 375.823 378.485H376.823C376.743 377.345 375.803 376.575 374.523 376.575C372.933 376.575 371.913 377.665 371.913 379.305C371.913 380.945 372.933 382.035 374.483 382.035ZM379.398 381.945H380.458V381.095H379.738C379.408 381.095 379.288 381.005 379.288 380.655V377.495H380.458V376.655H379.288V375.005L378.258 375.125V376.655H377.258V377.495H378.258V380.845C378.258 381.555 378.528 381.945 379.398 381.945Z" fill="#AEB9E1"/>
<path d="M396.64 381.945H397.75V378.445L397.71 376.175H397.77L401.54 381.945H402.82V374.655H401.76V378.055L401.82 380.495H401.75L397.98 374.655H396.64V381.945ZM406.649 382.035C408.239 382.035 409.229 380.925 409.229 379.305C409.229 377.625 408.189 376.575 406.649 376.575C405.049 376.575 404.059 377.685 404.059 379.315C404.059 380.975 405.099 382.035 406.649 382.035ZM406.649 381.175C405.709 381.175 405.109 380.495 405.109 379.315C405.109 378.095 405.729 377.425 406.649 377.425C407.599 377.425 408.179 378.115 408.179 379.305C408.179 380.505 407.569 381.175 406.649 381.175ZM411.341 381.945H412.601L414.481 376.655H413.371L412.311 379.915L411.991 381.055H411.951L411.611 379.915L410.551 376.655H409.441L411.341 381.945Z" fill="#AEB9E1"/>
<path d="M430.458 381.945H433.408C435.508 381.945 436.708 380.495 436.708 378.305C436.708 376.115 435.508 374.655 433.408 374.655H430.458V381.945ZM431.548 381.005V375.595H433.248C434.648 375.595 435.588 376.435 435.588 378.285C435.588 380.135 434.658 381.005 433.248 381.005H431.548ZM440.096 382.035C441.346 382.035 442.306 381.355 442.446 380.315H441.466C441.336 380.865 440.806 381.215 440.096 381.215C439.176 381.215 438.576 380.595 438.556 379.505H442.476C442.636 377.845 441.796 376.575 440.056 376.575C438.506 376.575 437.536 377.655 437.536 379.325C437.536 380.955 438.506 382.035 440.096 382.035ZM440.046 377.385C440.826 377.385 441.436 377.795 441.466 378.775H438.576C438.656 377.915 439.216 377.385 440.046 377.385ZM445.897 382.035C447.217 382.035 448.177 381.255 448.257 380.055H447.257C447.177 380.725 446.667 381.175 445.897 381.175C444.977 381.175 444.377 380.505 444.377 379.315C444.377 378.185 444.927 377.435 445.907 377.435C446.587 377.435 447.117 377.795 447.237 378.485H448.237C448.157 377.345 447.217 376.575 445.937 376.575C444.347 376.575 443.327 377.665 443.327 379.305C443.327 380.945 444.347 382.035 445.897 382.035Z" fill="#AEB9E1"/>
<path d="M47.3392 358.02C49.1992 358.02 50.4592 356.472 50.4592 353.592C50.4592 350.784 49.2592 349.176 47.3512 349.176C45.4552 349.176 44.1832 350.712 44.1832 353.58C44.1832 356.4 45.4072 358.02 47.3392 358.02ZM47.3272 356.964C46.1512 356.964 45.4312 355.968 45.4312 353.592C45.4312 351.204 46.1512 350.22 47.3272 350.22C48.5032 350.22 49.2232 351.216 49.2232 353.592C49.2232 355.968 48.5032 356.964 47.3272 356.964ZM51.9442 357.924H53.2522V355.32L54.7282 353.76L57.5002 357.924H59.0482L55.6162 352.812L58.9882 349.176H57.4042L53.2522 353.76V349.176H51.9442V357.924Z" fill="#AEB9E1"/>
<line opacity="0.5" x1="66.3633" y1="356.879" x2="469.155" y2="356.879" stroke="#0E0B2A" stroke-width="0.8"/>
<path d="M39.7724 315.545H45.5804V314.453H41.3204C41.7524 312.581 45.4844 311.933 45.4844 309.293C45.4844 307.781 44.3804 306.785 42.7004 306.785C40.9364 306.785 39.7484 307.889 39.7964 309.581H41.0084C40.9484 308.501 41.6324 307.853 42.6284 307.853C43.5764 307.853 44.2004 308.441 44.2004 309.353C44.2004 311.561 39.7724 311.957 39.7724 315.329V315.545ZM49.7467 315.653C51.6307 315.653 52.8307 314.453 52.8307 312.665C52.8307 310.961 51.7387 309.773 50.0227 309.773C49.2427 309.773 48.5467 310.085 48.1987 310.565L48.1267 310.541L48.2467 307.973H52.3747V306.893H47.1547L46.9507 311.801H48.1267C48.3667 311.225 48.9427 310.817 49.7707 310.817C50.8507 310.817 51.5587 311.537 51.5587 312.713C51.5587 313.805 50.8987 314.561 49.7587 314.561C48.7027 314.561 48.0187 313.901 48.0187 312.905H46.7827C46.7947 314.549 47.9467 315.653 49.7467 315.653ZM54.4921 315.545H55.8001V312.941L57.2761 311.381L60.0481 315.545H61.5961L58.1641 310.433L61.5361 306.797H59.9521L55.8001 311.381V306.797H54.4921V315.545Z" fill="#AEB9E1"/>
<line opacity="0.5" x1="66.3613" y1="314.5" x2="469.153" y2="314.5" stroke="#0E0B2A" stroke-width="0.8"/>
<path d="M42.6217 273.274C44.5057 273.274 45.7057 272.074 45.7057 270.286C45.7057 268.582 44.6137 267.394 42.8977 267.394C42.1177 267.394 41.4217 267.706 41.0737 268.186L41.0017 268.162L41.1217 265.594H45.2497V264.514H40.0297L39.8257 269.422H41.0017C41.2417 268.846 41.8177 268.438 42.6457 268.438C43.7257 268.438 44.4337 269.158 44.4337 270.334C44.4337 271.426 43.7737 272.182 42.6337 272.182C41.5777 272.182 40.8937 271.522 40.8937 270.526H39.6577C39.6697 272.17 40.8217 273.274 42.6217 273.274ZM49.8871 273.262C51.7471 273.262 53.0071 271.714 53.0071 268.834C53.0071 266.026 51.8071 264.418 49.8991 264.418C48.0031 264.418 46.7311 265.954 46.7311 268.822C46.7311 271.642 47.9551 273.262 49.8871 273.262ZM49.8751 272.206C48.6991 272.206 47.9791 271.21 47.9791 268.834C47.9791 266.446 48.6991 265.462 49.8751 265.462C51.0511 265.462 51.7711 266.458 51.7711 268.834C51.7711 271.21 51.0511 272.206 49.8751 272.206ZM54.4921 273.166H55.8001V270.562L57.2761 269.002L60.0481 273.166H61.5961L58.1641 268.054L61.5361 264.418H59.9521L55.8001 269.002V264.418H54.4921V273.166Z" fill="#AEB9E1"/>
<line opacity="0.5" x1="66.3613" y1="272.121" x2="469.153" y2="272.121" stroke="#0E0B2A" stroke-width="0.8"/>
<path d="M38.5672 230.789H39.8032V222.137H38.6152C38.5312 223.001 37.9672 223.577 36.8152 223.577H36.4792V224.525H38.5672V230.789ZM44.582 230.885C46.442 230.885 47.702 229.337 47.702 226.457C47.702 223.649 46.502 222.041 44.594 222.041C42.698 222.041 41.426 223.577 41.426 226.445C41.426 229.265 42.65 230.885 44.582 230.885ZM44.57 229.829C43.394 229.829 42.674 228.833 42.674 226.457C42.674 224.069 43.394 223.085 44.57 223.085C45.746 223.085 46.466 224.081 46.466 226.457C46.466 228.833 45.746 229.829 44.57 229.829ZM51.707 230.885C53.567 230.885 54.827 229.337 54.827 226.457C54.827 223.649 53.627 222.041 51.719 222.041C49.823 222.041 48.551 223.577 48.551 226.445C48.551 229.265 49.775 230.885 51.707 230.885ZM51.695 229.829C50.519 229.829 49.799 228.833 49.799 226.457C49.799 224.069 50.519 223.085 51.695 223.085C52.871 223.085 53.591 224.081 53.591 226.457C53.591 228.833 52.871 229.829 51.695 229.829ZM56.312 230.789H57.62V228.185L59.096 226.625L61.868 230.789H63.416L59.984 225.677L63.356 222.041H61.772L57.62 226.625V222.041H56.312V230.789Z" fill="#AEB9E1"/>
<line opacity="0.5" x1="66.3613" y1="229.653" x2="469.153" y2="229.653" stroke="#0E0B2A" stroke-width="0.8"/>
<path d="M38.4149 188.41H39.6509V179.758H38.4629C38.3789 180.622 37.8149 181.198 36.6629 181.198H36.3269V182.146H38.4149V188.41ZM44.4416 188.518C46.3256 188.518 47.5256 187.318 47.5256 185.53C47.5256 183.826 46.4336 182.638 44.7176 182.638C43.9376 182.638 43.2416 182.95 42.8936 183.43L42.8216 183.406L42.9416 180.838H47.0696V179.758H41.8496L41.6456 184.666H42.8216C43.0616 184.09 43.6376 183.682 44.4656 183.682C45.5456 183.682 46.2536 184.402 46.2536 185.578C46.2536 186.67 45.5936 187.426 44.4536 187.426C43.3976 187.426 42.7136 186.766 42.7136 185.77H41.4776C41.4896 187.414 42.6416 188.518 44.4416 188.518ZM51.707 188.506C53.567 188.506 54.827 186.958 54.827 184.078C54.827 181.27 53.627 179.662 51.719 179.662C49.823 179.662 48.551 181.198 48.551 184.066C48.551 186.886 49.775 188.506 51.707 188.506ZM51.695 187.45C50.519 187.45 49.799 186.454 49.799 184.078C49.799 181.69 50.519 180.706 51.695 180.706C52.871 180.706 53.591 181.702 53.591 184.078C53.591 186.454 52.871 187.45 51.695 187.45ZM56.312 188.41H57.62V185.806L59.096 184.246L61.868 188.41H63.416L59.984 183.298L63.356 179.662H61.772L57.62 184.246V179.662H56.312V188.41Z" fill="#AEB9E1"/>
<line opacity="0.5" x1="66.3613" y1="186.664" x2="469.153" y2="186.664" stroke="#0E0B2A" stroke-width="0.8"/>
<path d="M35.3476 146.029H41.1556V144.937H36.8956C37.3276 143.065 41.0596 142.417 41.0596 139.777C41.0596 138.265 39.9556 137.269 38.2756 137.269C36.5116 137.269 35.3236 138.373 35.3716 140.065H36.5836C36.5236 138.985 37.2076 138.337 38.2036 138.337C39.1516 138.337 39.7756 138.925 39.7756 139.837C39.7756 142.045 35.3476 142.441 35.3476 145.813V146.029ZM45.3099 146.125C47.1699 146.125 48.4299 144.577 48.4299 141.697C48.4299 138.889 47.2299 137.281 45.3219 137.281C43.4259 137.281 42.1539 138.817 42.1539 141.685C42.1539 144.505 43.3779 146.125 45.3099 146.125ZM45.2979 145.069C44.1219 145.069 43.4019 144.073 43.4019 141.697C43.4019 139.309 44.1219 138.325 45.2979 138.325C46.4739 138.325 47.1939 139.321 47.1939 141.697C47.1939 144.073 46.4739 145.069 45.2979 145.069ZM52.4349 146.125C54.2949 146.125 55.5549 144.577 55.5549 141.697C55.5549 138.889 54.3549 137.281 52.4469 137.281C50.5509 137.281 49.2789 138.817 49.2789 141.685C49.2789 144.505 50.5029 146.125 52.4349 146.125ZM52.4229 145.069C51.2469 145.069 50.5269 144.073 50.5269 141.697C50.5269 139.309 51.2469 138.325 52.4229 138.325C53.5989 138.325 54.3189 139.321 54.3189 141.697C54.3189 144.073 53.5989 145.069 52.4229 145.069ZM57.0399 146.029H58.3479V143.425L59.8239 141.865L62.5959 146.029H64.1439L60.7119 140.917L64.0839 137.281H62.4999L58.3479 141.865V137.281H57.0399V146.029Z" fill="#AEB9E1"/>
<line opacity="0.5" x1="66.3613" y1="144.987" x2="469.153" y2="144.987" stroke="#0E0B2A" stroke-width="0.8"/>
<path d="M35.1952 103.648H41.0032V102.556H36.7432C37.1752 100.684 40.9072 100.036 40.9072 97.3964C40.9072 95.8844 39.8032 94.8884 38.1232 94.8884C36.3592 94.8884 35.1712 95.9924 35.2192 97.6844H36.4312C36.3712 96.6044 37.0552 95.9564 38.0512 95.9564C38.9992 95.9564 39.6232 96.5444 39.6232 97.4564C39.6232 99.6644 35.1952 100.06 35.1952 103.432V103.648ZM45.1696 103.756C47.0536 103.756 48.2536 102.556 48.2536 100.768C48.2536 99.0644 47.1616 97.8764 45.4456 97.8764C44.6656 97.8764 43.9696 98.1884 43.6216 98.6684L43.5496 98.6444L43.6696 96.0764H47.7976V94.9964H42.5776L42.3736 99.9044H43.5496C43.7896 99.3284 44.3656 98.9204 45.1936 98.9204C46.2736 98.9204 46.9816 99.6404 46.9816 100.816C46.9816 101.908 46.3216 102.664 45.1816 102.664C44.1256 102.664 43.4416 102.004 43.4416 101.008H42.2056C42.2176 102.652 43.3696 103.756 45.1696 103.756ZM52.4349 103.744C54.2949 103.744 55.5549 102.196 55.5549 99.3164C55.5549 96.5084 54.3549 94.9004 52.4469 94.9004C50.5509 94.9004 49.2789 96.4364 49.2789 99.3044C49.2789 102.124 50.5029 103.744 52.4349 103.744ZM52.4229 102.688C51.2469 102.688 50.5269 101.692 50.5269 99.3164C50.5269 96.9284 51.2469 95.9444 52.4229 95.9444C53.5989 95.9444 54.3189 96.9404 54.3189 99.3164C54.3189 101.692 53.5989 102.688 52.4229 102.688ZM57.0399 103.648H58.3479V101.044L59.8239 99.4844L62.5959 103.648H64.1439L60.7119 98.5364L64.0839 94.9004H62.4999L58.3479 99.4844V94.9004H57.0399V103.648Z" fill="#AEB9E1"/>
<line opacity="0.5" x1="66.3613" y1="102.606" x2="469.153" y2="102.606" stroke="#0E0B2A" stroke-width="0.8"/>
<path d="M34.7422 41.498H36.2682V32.622H39.5022V31.292H31.5362V32.622H34.7422V41.498ZM42.3761 41.624C44.6021 41.624 45.9881 40.07 45.9881 37.802C45.9881 35.45 44.5321 33.98 42.3761 33.98C40.1361 33.98 38.7501 35.534 38.7501 37.816C38.7501 40.14 40.2061 41.624 42.3761 41.624ZM42.3761 40.42C41.0601 40.42 40.2201 39.468 40.2201 37.816C40.2201 36.108 41.0881 35.17 42.3761 35.17C43.7061 35.17 44.5181 36.136 44.5181 37.802C44.5181 39.482 43.6641 40.42 42.3761 40.42ZM49.6122 41.498H51.0962V40.308H50.0882C49.6262 40.308 49.4582 40.182 49.4582 39.692V35.268H51.0962V34.092H49.4582V31.782L48.0162 31.95V34.092H46.6162V35.268H48.0162V39.958C48.0162 40.952 48.3942 41.498 49.6122 41.498ZM54.8444 41.624C56.0904 41.624 57.0144 40.98 57.3644 40.028H57.4484V41.498H58.8904V34.092H57.5044L57.4484 35.548H57.3644C57.0144 34.596 56.0904 33.966 54.8444 33.966C53.0384 33.966 51.8204 35.31 51.8204 37.788C51.8204 40.266 53.0384 41.624 54.8444 41.624ZM55.3484 40.434C54.1164 40.434 53.3044 39.524 53.3044 37.788C53.3044 36.038 54.1164 35.142 55.3484 35.142C56.7204 35.142 57.4344 36.234 57.4344 37.368V38.208C57.4344 39.356 56.7204 40.434 55.3484 40.434ZM60.9103 41.498H62.3523V31.292H60.9103V41.498ZM67.4865 41.498H68.9145V37.27C68.9845 36.052 69.7265 35.366 71.0425 35.366C71.2105 35.366 71.3785 35.366 71.4905 35.38V34.022C71.3645 34.008 71.2245 33.994 71.0565 33.994C70.0765 33.994 69.2365 34.456 68.9145 35.408H68.8445L68.7745 34.092H67.4865V41.498ZM75.6114 41.624C77.3614 41.624 78.7054 40.672 78.9014 39.216H77.5294C77.3474 39.986 76.6054 40.476 75.6114 40.476C74.3234 40.476 73.4834 39.608 73.4554 38.082H78.9434C79.1674 35.758 77.9914 33.98 75.5554 33.98C73.3854 33.98 72.0274 35.492 72.0274 37.83C72.0274 40.112 73.3854 41.624 75.6114 41.624ZM75.5414 35.114C76.6334 35.114 77.4874 35.688 77.5294 37.06H73.4834C73.5954 35.856 74.3794 35.114 75.5414 35.114ZM81.9481 41.498H83.7121L86.3441 34.092H84.7901L83.3061 38.656L82.8581 40.252H82.8021L82.3261 38.656L80.8421 34.092H79.2881L81.9481 41.498ZM90.2403 41.624C91.9903 41.624 93.3343 40.672 93.5303 39.216H92.1583C91.9763 39.986 91.2343 40.476 90.2403 40.476C88.9523 40.476 88.1123 39.608 88.0843 38.082H93.5723C93.7963 35.758 92.6203 33.98 90.1843 33.98C88.0143 33.98 86.6563 35.492 86.6563 37.83C86.6563 40.112 88.0143 41.624 90.2403 41.624ZM90.1703 35.114C91.2623 35.114 92.1163 35.688 92.1583 37.06H88.1123C88.2243 35.856 89.0083 35.114 90.1703 35.114ZM95.131 41.498H96.559V37.452C96.559 36.178 97.357 35.17 98.631 35.17C99.807 35.17 100.353 35.884 100.353 37.396V41.498H101.795V37.102C101.795 34.834 100.661 33.98 99.149 33.98C98.057 33.98 97.077 34.512 96.643 35.562H96.559L96.503 34.092H95.131V41.498ZM106.198 41.624C107.346 41.624 108.312 41.022 108.676 40H108.76L108.83 41.498H110.202V34.092H108.76V38.096C108.76 39.454 107.948 40.42 106.73 40.42C105.484 40.42 104.98 39.664 104.98 38.292V34.092H103.538V38.656C103.538 40.616 104.518 41.624 106.198 41.624ZM115.178 41.624C116.928 41.624 118.272 40.672 118.468 39.216H117.096C116.914 39.986 116.172 40.476 115.178 40.476C113.89 40.476 113.05 39.608 113.022 38.082H118.51C118.734 35.758 117.558 33.98 115.122 33.98C112.952 33.98 111.594 35.492 111.594 37.83C111.594 40.112 112.952 41.624 115.178 41.624ZM115.108 35.114C116.2 35.114 117.054 35.688 117.096 37.06H113.05C113.162 35.856 113.946 35.114 115.108 35.114Z" fill="#AEB9E1"/>
<path d="M37.29 70.1259H39.162V68.2779C43.026 67.9899 45.018 65.9739 45.018 63.1419C45.018 59.0139 42.162 58.2459 39.21 57.7419C36.186 57.2139 35.058 56.9019 35.058 55.1259C35.058 53.7099 36.186 52.7739 38.082 52.7739C39.906 52.7739 41.226 53.6379 41.322 55.5339H44.49C44.466 52.7019 42.474 50.7339 39.162 50.4219V48.5259H37.29V50.3979C33.834 50.6859 31.77 52.6059 31.77 55.5339C31.77 58.7259 34.026 59.8779 37.626 60.5259C40.698 61.0539 41.73 61.5339 41.73 63.4299C41.73 65.0859 40.386 65.8779 38.346 65.8779C35.778 65.8779 34.674 64.6059 34.626 62.6139H31.41C31.434 65.7339 33.402 67.9659 37.29 68.2779V70.1259ZM47.0217 68.0859H58.9497V65.4459H50.7897C51.9177 62.1339 58.7577 60.8379 58.7577 55.6539C58.7577 52.5339 56.4777 50.5659 53.0457 50.5659C49.3977 50.5659 46.9497 52.8219 47.0697 56.2779H50.0217C49.9017 54.3099 51.0777 53.1579 52.8537 53.1579C54.5337 53.1579 55.6617 54.1659 55.6617 55.8219C55.6617 59.9259 47.0217 60.6699 47.0217 67.6299V68.0859ZM68.4261 68.0859H71.4261V63.9819H73.7061L73.7301 61.5099H71.4261V50.7819H67.6101L60.1221 61.7019V63.9819H68.4021L68.4261 68.0859ZM63.1461 61.5099L68.4261 53.9259V61.5099H63.1461ZM82.1361 68.2779C85.9761 68.2779 88.5681 65.1579 88.5681 59.4219C88.5681 53.8779 86.1441 50.5659 82.1841 50.5659C78.2961 50.5659 75.7281 53.6859 75.7281 59.3979C75.7281 64.9659 78.1521 68.2779 82.1361 68.2779ZM82.1601 65.7339C80.0721 65.7339 78.7281 64.0779 78.7281 59.3979C78.7281 54.7419 80.0721 53.1099 82.1601 53.1099C84.2001 53.1099 85.5681 54.7419 85.5681 59.3979C85.5681 64.0779 84.2001 65.7339 82.1601 65.7339ZM90.6216 68.0859H93.5256V65.2059H90.6216V68.0859ZM102.203 68.2539C105.995 68.2539 108.539 66.4059 108.539 63.4299C108.539 61.3659 107.315 59.6859 105.227 59.3739V59.2539C107.267 58.8219 108.275 57.1899 108.275 55.3659C108.275 52.5099 105.971 50.5659 102.203 50.5659C98.4111 50.5659 96.1551 52.4859 96.1551 55.3179C96.1551 57.2139 97.1631 58.8219 99.1551 59.2539V59.3739C97.0911 59.7339 95.8431 61.4619 95.8431 63.4539C95.8431 66.4299 98.3871 68.2539 102.203 68.2539ZM102.203 58.1499C100.211 58.1499 99.2031 57.1659 99.2031 55.6299C99.2031 54.0459 100.331 53.0619 102.203 53.0619C104.027 53.0619 105.227 54.0219 105.227 55.6299C105.227 57.0939 104.267 58.1499 102.203 58.1499ZM102.203 65.6619C100.283 65.6619 99.0351 64.7259 99.0351 63.0459C99.0351 61.6299 100.019 60.5499 102.203 60.5499C104.339 60.5499 105.371 61.5579 105.371 63.0459C105.371 64.6779 104.147 65.6619 102.203 65.6619ZM111.616 68.0859H114.784V63.0699L117.472 60.1419L122.584 68.0859H126.352L119.656 57.8619L126.232 50.5899H122.416L114.784 59.3259V50.5899H111.616V68.0859Z" fill="white"/>
<rect x="428.869" y="44.5" width="7" height="7" rx="3.5" fill="#00C2FF"/>
<path d="M444.925 52H451.069V50.86H446.233V48.064H450.469V47.008H446.233V44.38H451.057V43.252H444.925V52ZM451.638 52H453.03L454.878 49.516H454.95L456.726 52H458.178L455.778 48.688L457.938 45.652H456.534L454.986 47.872H454.926L453.354 45.652H451.89L454.11 48.724L451.638 52ZM459.018 54.004H460.254V50.752H460.326C460.638 51.568 461.43 52.108 462.486 52.108C464.034 52.108 465.078 50.956 465.078 48.832C465.078 46.708 464.034 45.544 462.486 45.544C461.43 45.544 460.638 46.096 460.326 46.9H460.254L460.206 45.652H459.018V54.004ZM462.054 51.088C460.878 51.088 460.266 50.164 460.266 49.18V48.472C460.266 47.488 460.878 46.564 462.054 46.564C463.11 46.564 463.818 47.332 463.818 48.832C463.818 50.32 463.11 51.088 462.054 51.088ZM469.147 52.108C470.647 52.108 471.799 51.292 471.967 50.044H470.791C470.635 50.704 469.999 51.124 469.147 51.124C468.043 51.124 467.323 50.38 467.299 49.072H472.003C472.195 47.08 471.187 45.556 469.099 45.556C467.239 45.556 466.075 46.852 466.075 48.856C466.075 50.812 467.239 52.108 469.147 52.108ZM469.087 46.528C470.023 46.528 470.755 47.02 470.791 48.196H467.323C467.419 47.164 468.091 46.528 469.087 46.528ZM473.339 52H474.563V48.532C474.563 47.44 475.247 46.576 476.339 46.576C477.347 46.576 477.815 47.188 477.815 48.484V52H479.051V48.232C479.051 46.288 478.079 45.556 476.783 45.556C475.847 45.556 475.007 46.012 474.635 46.912H474.563L474.515 45.652H473.339V52ZM483.085 52.12C484.741 52.12 485.773 51.496 485.773 50.2C485.773 48.748 484.669 48.46 483.349 48.28C482.269 48.136 481.789 47.944 481.789 47.32C481.789 46.78 482.245 46.408 483.085 46.408C483.901 46.408 484.417 46.756 484.429 47.524H485.641C485.617 46.288 484.669 45.532 483.109 45.532C481.573 45.532 480.553 46.228 480.553 47.44C480.553 48.736 481.549 49.072 482.989 49.276C484.057 49.432 484.513 49.6 484.513 50.308C484.513 50.896 484.033 51.244 483.121 51.244C482.233 51.244 481.597 50.872 481.597 50.008H480.373C480.373 51.268 481.345 52.12 483.085 52.12ZM489.877 52.108C491.377 52.108 492.529 51.292 492.697 50.044H491.521C491.365 50.704 490.729 51.124 489.877 51.124C488.773 51.124 488.053 50.38 488.029 49.072H492.733C492.925 47.08 491.917 45.556 489.829 45.556C487.969 45.556 486.805 46.852 486.805 48.856C486.805 50.812 487.969 52.108 489.877 52.108ZM489.817 46.528C490.753 46.528 491.485 47.02 491.521 48.196H488.053C488.149 47.164 488.821 46.528 489.817 46.528ZM496.433 52.12C498.089 52.12 499.121 51.496 499.121 50.2C499.121 48.748 498.017 48.46 496.697 48.28C495.617 48.136 495.137 47.944 495.137 47.32C495.137 46.78 495.593 46.408 496.433 46.408C497.249 46.408 497.765 46.756 497.777 47.524H498.989C498.965 46.288 498.017 45.532 496.457 45.532C494.921 45.532 493.901 46.228 493.901 47.44C493.901 48.736 494.897 49.072 496.337 49.276C497.405 49.432 497.861 49.6 497.861 50.308C497.861 50.896 497.381 51.244 496.469 51.244C495.581 51.244 494.945 50.872 494.945 50.008H493.721C493.721 51.268 494.693 52.12 496.433 52.12Z" fill="#AEB9E1"/>
<rect x="363" y="44.5" width="7" height="7" rx="3.5" fill="#CB3CFF"/>
<path d="M379.056 52H380.364V48.46H382.968C384.204 48.46 384.528 48.928 384.528 49.816V51.028C384.528 51.436 384.552 51.772 384.66 52H385.98C385.836 51.676 385.836 51.352 385.836 51.052V49.588C385.836 48.592 385.44 48.028 384.492 47.86V47.776C385.488 47.512 386.04 46.72 386.04 45.664C386.04 44.116 385.056 43.252 383.136 43.252H379.056V52ZM380.364 47.404V44.356H382.956C384 44.356 384.696 44.788 384.696 45.832C384.696 46.744 384.204 47.404 382.956 47.404H380.364ZM390.024 52.108C391.524 52.108 392.676 51.292 392.844 50.044H391.668C391.512 50.704 390.876 51.124 390.024 51.124C388.92 51.124 388.2 50.38 388.176 49.072H392.88C393.072 47.08 392.064 45.556 389.976 45.556C388.116 45.556 386.952 46.852 386.952 48.856C386.952 50.812 388.116 52.108 390.024 52.108ZM389.964 46.528C390.9 46.528 391.632 47.02 391.668 48.196H388.2C388.296 47.164 388.968 46.528 389.964 46.528ZM395.455 52H396.967L399.223 45.652H397.891L396.619 49.564L396.235 50.932H396.187L395.779 49.564L394.507 45.652H393.175L395.455 52ZM402.563 52.108C404.063 52.108 405.215 51.292 405.383 50.044H404.207C404.051 50.704 403.415 51.124 402.563 51.124C401.459 51.124 400.739 50.38 400.715 49.072H405.419C405.611 47.08 404.603 45.556 402.515 45.556C400.655 45.556 399.491 46.852 399.491 48.856C399.491 50.812 400.655 52.108 402.563 52.108ZM402.503 46.528C403.439 46.528 404.171 47.02 404.207 48.196H400.739C400.835 47.164 401.507 46.528 402.503 46.528ZM406.755 52H407.979V48.532C407.979 47.44 408.663 46.576 409.755 46.576C410.763 46.576 411.231 47.188 411.231 48.484V52H412.467V48.232C412.467 46.288 411.495 45.556 410.199 45.556C409.263 45.556 408.423 46.012 408.051 46.912H407.979L407.931 45.652H406.755V52ZM416.24 52.108C417.224 52.108 418.052 51.592 418.364 50.716H418.436L418.496 52H419.672V45.652H418.436V49.084C418.436 50.248 417.74 51.076 416.696 51.076C415.628 51.076 415.196 50.428 415.196 49.252V45.652H413.96V49.564C413.96 51.244 414.8 52.108 416.24 52.108ZM423.938 52.108C425.438 52.108 426.59 51.292 426.758 50.044H425.582C425.426 50.704 424.79 51.124 423.938 51.124C422.834 51.124 422.114 50.38 422.09 49.072H426.794C426.986 47.08 425.978 45.556 423.89 45.556C422.03 45.556 420.866 46.852 420.866 48.856C420.866 50.812 422.03 52.108 423.938 52.108ZM423.878 46.528C424.814 46.528 425.546 47.02 425.582 48.196H422.114C422.21 47.164 422.882 46.528 423.878 46.528Z" fill="#AEB9E1"/>
<path d="M65.1562 300.015C103.688 258.583 110.428 328.079 145.541 326.203C189.433 323.857 187.727 212.651 243.383 255.847C294.608 295.606 284.388 170.072 328.567 170.072C373.987 170.073 384.035 324.64 469.158 242.168" stroke="#571ED7" stroke-width="3" stroke-linecap="round"/>
<path opacity="0.4" d="M145.541 326.203C110.428 328.079 103.688 258.583 65.1562 300.015V356.536H469.158V242.168C384.035 324.64 373.987 170.073 328.567 170.072C284.388 170.072 294.608 295.606 243.383 255.847C187.727 212.651 189.433 323.857 145.541 326.203Z" fill="url(#paint0_linear_205_9667)"/>
<path d="M65.1562 356.534C84.2832 354.114 127.475 340.174 147.224 303.774C171.911 258.274 189.762 224.875 260.985 224.875C343.581 224.875 368.408 119.838 469.158 119.838" stroke="#C927AC" stroke-width="2" stroke-linecap="round"/>
<circle cx="4.8079" cy="4.8079" r="3.8079" transform="matrix(-1 0 0 1 269.982 220.424)" fill="#0B1739" stroke="#C927AC" stroke-width="2"/>
<circle cx="468.697" cy="119.943" r="1.84919" fill="#C927AC"/>
<circle cx="468.697" cy="242.359" r="1.84919" fill="#571FD6"/>
<rect x="186.975" y="159.6" width="107.586" height="46.9732" rx="8" fill="#0B1739"/>
<g filter="url(#filter1_d_205_9667)">
<rect x="186.975" y="159.6" width="107.586" height="46.9732" rx="8" fill="#0B0C12"/>
<rect x="187.275" y="159.9" width="106.986" height="46.3732" rx="7.7" stroke="#0E0B2A" stroke-width="0.6"/>
</g>
<path d="M201.874 196.266C203.124 196.266 203.924 195.686 203.924 194.286V188.896H202.844V194.196C202.844 195.006 202.434 195.356 201.674 195.356C201.344 195.356 201.074 195.276 200.884 195.166V196.056C201.104 196.176 201.474 196.266 201.874 196.266ZM207.377 196.276C208.197 196.276 208.887 195.846 209.147 195.116H209.207L209.257 196.186H210.237V190.896H209.207V193.756C209.207 194.726 208.627 195.416 207.757 195.416C206.867 195.416 206.507 194.876 206.507 193.896V190.896H205.477V194.156C205.477 195.556 206.177 196.276 207.377 196.276ZM211.63 196.186H212.65V193.296C212.65 192.386 213.22 191.666 214.13 191.666C214.97 191.666 215.36 192.176 215.36 193.256V196.186H216.39V193.046C216.39 191.426 215.58 190.816 214.5 190.816C213.72 190.816 213.02 191.196 212.71 191.946H212.65L212.61 190.896H211.63V196.186ZM219.983 196.276C221.233 196.276 222.193 195.596 222.333 194.556H221.353C221.223 195.106 220.693 195.456 219.983 195.456C219.063 195.456 218.463 194.836 218.443 193.746H222.363C222.523 192.086 221.683 190.816 219.943 190.816C218.393 190.816 217.423 191.896 217.423 193.566C217.423 195.196 218.393 196.276 219.983 196.276ZM219.933 191.626C220.713 191.626 221.323 192.036 221.353 193.016H218.463C218.543 192.156 219.103 191.626 219.933 191.626ZM225.422 196.186H230.262V195.276H226.712C227.072 193.716 230.182 193.176 230.182 190.976C230.182 189.716 229.262 188.886 227.862 188.886C226.392 188.886 225.402 189.806 225.442 191.216H226.452C226.402 190.316 226.972 189.776 227.802 189.776C228.592 189.776 229.112 190.266 229.112 191.026C229.112 192.866 225.422 193.196 225.422 196.006V196.186ZM232.784 196.186H233.814V188.976H232.824C232.754 189.696 232.284 190.176 231.324 190.176H231.044V190.966H232.784V196.186ZM235.146 197.776H235.406C235.986 197.746 236.326 197.466 236.326 196.706V195.136H235.306V196.186H235.766V196.646C235.766 196.986 235.646 197.206 235.296 197.226H235.146V197.776ZM239.543 196.186H244.383V195.276H240.833C241.193 193.716 244.303 193.176 244.303 190.976C244.303 189.716 243.383 188.886 241.983 188.886C240.513 188.886 239.523 189.806 239.563 191.216H240.573C240.523 190.316 241.093 189.776 241.923 189.776C242.713 189.776 243.233 190.266 243.233 191.026C243.233 192.866 239.543 193.196 239.543 196.006V196.186ZM247.845 196.266C249.395 196.266 250.445 194.976 250.445 192.576C250.445 190.236 249.445 188.896 247.855 188.896C246.275 188.896 245.215 190.176 245.215 192.566C245.215 194.916 246.235 196.266 247.845 196.266ZM247.835 195.386C246.855 195.386 246.255 194.556 246.255 192.576C246.255 190.586 246.855 189.766 247.835 189.766C248.815 189.766 249.415 190.596 249.415 192.576C249.415 194.556 248.815 195.386 247.835 195.386ZM251.233 196.186H256.073V195.276H252.523C252.883 193.716 255.993 193.176 255.993 190.976C255.993 189.716 255.073 188.886 253.673 188.886C252.203 188.886 251.213 189.806 251.253 191.216H252.263C252.213 190.316 252.783 189.776 253.613 189.776C254.403 189.776 254.923 190.266 254.923 191.026C254.923 192.866 251.233 193.196 251.233 196.006V196.186ZM259.405 196.276C260.915 196.276 261.925 195.436 261.925 194.176C261.925 193.306 261.475 192.666 260.695 192.476V192.416C261.365 192.196 261.815 191.586 261.815 190.786C261.815 189.636 260.895 188.886 259.465 188.886C257.975 188.886 257.005 189.786 257.005 191.166H258.015C258.025 190.326 258.535 189.776 259.425 189.776C260.225 189.776 260.755 190.186 260.755 190.906C260.755 191.576 260.315 192.086 259.485 192.086H258.755V192.876H259.545C260.335 192.876 260.865 193.276 260.865 194.086C260.865 194.876 260.285 195.386 259.405 195.386C258.515 195.386 257.935 194.816 257.955 193.966H256.945C256.945 195.356 257.875 196.276 259.405 196.276Z" fill="#AEB9E1"/>
<path d="M206.789 182.649H207.845V181.417C210.405 181.273 211.749 179.961 211.749 178.073C211.749 175.385 209.877 174.889 207.893 174.537C205.765 174.137 204.933 173.881 204.933 172.585C204.933 171.513 205.781 170.825 207.221 170.825C208.629 170.825 209.589 171.497 209.637 172.905H211.397C211.365 171.017 210.069 169.705 207.845 169.513V168.265H206.789V169.513C204.517 169.673 203.141 170.905 203.141 172.809C203.141 174.905 204.597 175.625 207.029 176.057C209.205 176.457 209.957 176.857 209.957 178.233C209.957 179.481 208.917 180.073 207.397 180.073C205.509 180.073 204.693 179.129 204.661 177.641H202.885C202.917 179.737 204.197 181.225 206.789 181.417V182.649ZM215.711 181.289H217.359V169.753H215.775C215.663 170.905 214.911 171.673 213.375 171.673H212.927V172.937H215.711V181.289ZM219.651 181.289H227.395V179.833H221.715C222.291 177.337 227.267 176.473 227.267 172.953C227.267 170.937 225.795 169.609 223.555 169.609C221.203 169.609 219.619 171.081 219.683 173.337H221.299C221.219 171.897 222.131 171.033 223.459 171.033C224.723 171.033 225.555 171.817 225.555 173.033C225.555 175.977 219.651 176.505 219.651 181.001V181.289ZM232.95 181.433C235.462 181.433 237.062 179.833 237.062 177.449C237.062 175.177 235.606 173.593 233.318 173.593C232.278 173.593 231.35 174.009 230.886 174.649L230.79 174.617L230.95 171.193H236.454V169.753H229.494L229.222 176.297H230.79C231.11 175.529 231.878 174.985 232.982 174.985C234.422 174.985 235.366 175.945 235.366 177.513C235.366 178.969 234.486 179.977 232.966 179.977C231.558 179.977 230.646 179.097 230.646 177.769H228.998C229.014 179.961 230.55 181.433 232.95 181.433ZM238.749 181.289H240.397V179.609H238.749V181.289ZM241.963 181.289H249.707V179.833H244.027C244.603 177.337 249.579 176.473 249.579 172.953C249.579 170.937 248.107 169.609 245.867 169.609C243.515 169.609 241.931 171.081 241.995 173.337H243.611C243.531 171.897 244.443 171.033 245.771 171.033C247.035 171.033 247.867 171.817 247.867 173.033C247.867 175.977 241.963 176.505 241.963 181.001V181.289ZM251.631 181.289H253.295V178.697L254.799 177.241L255.311 178.089L257.423 181.289H259.359L255.951 176.121L259.231 172.825H257.183L254.031 176.073L253.295 176.873V169.625H251.631V181.289Z" fill="white"/>
<rect x="266.213" y="167.289" width="45" height="18" rx="2" fill="#05C168" fill-opacity="0.2"/>
<rect x="266.513" y="167.589" width="44.4" height="17.4" rx="1.7" stroke="#05C168" stroke-opacity="0.2" stroke-width="0.6"/>
<path d="M272.253 179.289H273.283V172.079H272.293C272.223 172.799 271.753 173.279 270.793 173.279H270.513V174.069H272.253V179.289ZM274.715 179.289H279.555V178.379H276.005C276.365 176.819 279.475 176.279 279.475 174.079C279.475 172.819 278.555 171.989 277.155 171.989C275.685 171.989 274.695 172.909 274.735 174.319H275.745C275.695 173.419 276.265 172.879 277.095 172.879C277.885 172.879 278.405 173.369 278.405 174.129C278.405 175.969 274.715 176.299 274.715 179.109V179.289ZM280.587 179.289H281.617V178.239H280.587V179.289ZM285.156 179.379C286.726 179.379 287.726 178.379 287.726 176.889C287.726 175.469 286.816 174.479 285.386 174.479C284.736 174.479 284.156 174.739 283.866 175.139L283.806 175.119L283.906 172.979H287.346V172.079H282.996L282.826 176.169H283.806C284.006 175.689 284.486 175.349 285.176 175.349C286.076 175.349 286.666 175.949 286.666 176.929C286.666 177.839 286.116 178.469 285.166 178.469C284.286 178.469 283.716 177.919 283.716 177.089H282.686C282.696 178.459 283.656 179.379 285.156 179.379ZM289.83 179.289H290.6L295.23 171.999H294.46L289.83 179.289ZM290.15 175.969C291.03 175.969 291.62 175.269 291.62 173.999C291.62 172.779 291.07 172.039 290.17 172.039C289.27 172.039 288.68 172.739 288.68 173.989C288.68 175.219 289.23 175.969 290.15 175.969ZM290.16 175.349C289.71 175.349 289.41 175.019 289.41 173.999C289.41 172.979 289.72 172.659 290.16 172.659C290.59 172.659 290.89 172.979 290.89 173.999C290.89 175.019 290.59 175.349 290.16 175.349ZM294.91 179.329C295.79 179.329 296.38 178.629 296.38 177.369C296.38 176.139 295.83 175.389 294.93 175.389C294.03 175.389 293.44 176.099 293.44 177.349C293.44 178.579 293.99 179.329 294.91 179.329ZM294.92 178.709C294.47 178.709 294.17 178.379 294.17 177.359C294.17 176.339 294.47 176.019 294.92 176.019C295.34 176.019 295.64 176.339 295.64 177.359C295.64 178.389 295.34 178.709 294.92 178.709Z" fill="#14CA74"/>
<path d="M300.546 178.955L305.879 173.622" stroke="#14CA74" stroke-width="0.8" stroke-linecap="round" stroke-linejoin="round"/>
<path d="M305.879 178.65V173.622H300.851" stroke="#14CA74" stroke-width="0.8" stroke-linecap="round" stroke-linejoin="round"/>
<rect x="137" y="51" width="53" height="18" rx="2" fill="#05C168" fill-opacity="0.2"/>
<rect x="137.3" y="51.3" width="52.4" height="17.4" rx="1.7" stroke="#05C168" stroke-opacity="0.2" stroke-width="0.6"/>
<g clip-path="url(#clip0_205_9667)">
<path d="M179.333 62.666L184.666 57.3327" stroke="#14CA74" stroke-width="0.8" stroke-linecap="round" stroke-linejoin="round"/>
<path d="M184.666 62.3613V57.333H179.638" stroke="#14CA74" stroke-width="0.8" stroke-linecap="round" stroke-linejoin="round"/>
</g>
<path d="M145.43 63H150.27V62.09H146.72C147.08 60.53 150.19 59.99 150.19 57.79C150.19 56.53 149.27 55.7 147.87 55.7C146.4 55.7 145.41 56.62 145.45 58.03H146.46C146.41 57.13 146.98 56.59 147.81 56.59C148.6 56.59 149.12 57.08 149.12 57.84C149.12 59.68 145.43 60.01 145.43 62.82V63ZM154.234 63H155.264V61.23H156.244V60.38H155.264V55.79H153.924L150.694 60.43V61.23H154.234V63ZM151.744 60.38L154.234 56.83V60.38H151.744ZM157.171 63H158.201V61.95H157.171V63ZM161.82 63.08C163.31 63.08 164.33 62.17 164.33 60.65C164.33 59.22 163.43 58.28 162.1 58.28C161.21 58.28 160.54 58.72 160.31 59.39H160.26C160.27 57.72 160.61 56.6 161.92 56.6C162.63 56.6 163.16 56.96 163.26 57.59H164.26C164.14 56.44 163.29 55.7 161.92 55.7C160.14 55.7 159.22 56.96 159.22 59.67C159.22 61.91 160.12 63.08 161.82 63.08ZM161.85 62.18C160.97 62.18 160.39 61.61 160.39 60.66C160.39 59.75 160.94 59.07 161.86 59.07C162.72 59.07 163.29 59.66 163.29 60.61C163.29 61.57 162.72 62.18 161.85 62.18ZM166.366 63H167.136L171.766 55.71H170.996L166.366 63ZM166.686 59.68C167.566 59.68 168.156 58.98 168.156 57.71C168.156 56.49 167.606 55.75 166.706 55.75C165.806 55.75 165.216 56.45 165.216 57.7C165.216 58.93 165.766 59.68 166.686 59.68ZM166.696 59.06C166.246 59.06 165.946 58.73 165.946 57.71C165.946 56.69 166.256 56.37 166.696 56.37C167.126 56.37 167.426 56.69 167.426 57.71C167.426 58.73 167.126 59.06 166.696 59.06ZM171.446 63.04C172.326 63.04 172.916 62.34 172.916 61.08C172.916 59.85 172.366 59.1 171.466 59.1C170.566 59.1 169.976 59.81 169.976 61.06C169.976 62.29 170.526 63.04 171.446 63.04ZM171.456 62.42C171.006 62.42 170.706 62.09 170.706 61.07C170.706 60.05 171.006 59.73 171.456 59.73C171.876 59.73 172.176 60.05 172.176 61.07C172.176 62.1 171.876 62.42 171.456 62.42Z" fill="#14CA74"/>
<defs>
<filter id="filter0_d_205_9667" x="0" y="0" width="535" height="414" filterUnits="userSpaceOnUse" color-interpolation-filters="sRGB">
<feFlood flood-opacity="0" result="BackgroundImageFix"/>
<feColorMatrix in="SourceAlpha" type="matrix" values="0 0 0 0 0 0 0 0 0 0 0 0 0 0 0 0 0 0 127 0" result="hardAlpha"/>
<feOffset dx="1" dy="1"/>
<feGaussianBlur stdDeviation="0.5"/>
<feComposite in2="hardAlpha" operator="out"/>
<feColorMatrix type="matrix" values="0 0 0 0 0.06125 0 0 0 0 0.0969792 0 0 0 0 0.204167 0 0 0 0.4 0"/>
<feBlend mode="normal" in2="BackgroundImageFix" result="effect1_dropShadow_205_9667"/>
<feBlend mode="normal" in="SourceGraphic" in2="effect1_dropShadow_205_9667" result="shape"/>
</filter>
<filter id="filter1_d_205_9667" x="172.975" y="146.6" width="141.586" height="80.9727" filterUnits="userSpaceOnUse" color-interpolation-filters="sRGB">
<feFlood flood-opacity="0" result="BackgroundImageFix"/>
<feColorMatrix in="SourceAlpha" type="matrix" values="0 0 0 0 0 0 0 0 0 0 0 0 0 0 0 0 0 0 127 0" result="hardAlpha"/>
<feOffset dx="3" dy="4"/>
<feGaussianBlur stdDeviation="8.5"/>
<feComposite in2="hardAlpha" operator="out"/>
<feColorMatrix type="matrix" values="0 0 0 0 0.00527778 0 0 0 0 0.0200958 0 0 0 0 0.0666667 0 0 0 0.2 0"/>
<feBlend mode="normal" in2="BackgroundImageFix" result="effect1_dropShadow_205_9667"/>
<feBlend mode="normal" in="SourceGraphic" in2="effect1_dropShadow_205_9667" result="shape"/>
</filter>
<linearGradient id="paint0_linear_205_9667" x1="207.497" y1="170.072" x2="207.497" y2="356.536" gradientUnits="userSpaceOnUse">
<stop stop-color="#7037F9"/>
<stop offset="1" stop-color="#4217A5" stop-opacity="0.1"/>
</linearGradient>
<clipPath id="clip0_205_9667">
<rect width="8" height="8" fill="white" transform="translate(178 56)"/>
</clipPath>
</defs>
</svg>
