<svg width="500" height="442" viewBox="0 0 500 442" fill="none" xmlns="http://www.w3.org/2000/svg">
<rect width="500" height="442" rx="10" fill="#11122C"/>
<path d="M25.082 338.168C24.2513 338.168 23.5233 337.944 22.898 337.496C22.282 337.039 21.8013 336.409 21.456 335.606C21.1107 334.794 20.938 333.851 20.938 332.778C20.938 331.705 21.1107 330.767 21.456 329.964C21.8013 329.152 22.282 328.522 22.898 328.074C23.514 327.626 24.2373 327.402 25.068 327.402C25.8987 327.402 26.622 327.626 27.238 328.074C27.854 328.522 28.3347 329.152 28.68 329.964C29.0347 330.767 29.212 331.705 29.212 332.778C29.212 333.851 29.0393 334.794 28.694 335.606C28.3487 336.418 27.8633 337.048 27.238 337.496C26.622 337.944 25.9033 338.168 25.082 338.168ZM25.082 336.894C25.642 336.894 26.1273 336.726 26.538 336.39C26.9487 336.045 27.266 335.564 27.49 334.948C27.7233 334.332 27.84 333.609 27.84 332.778C27.84 331.947 27.7233 331.224 27.49 330.608C27.266 329.992 26.944 329.516 26.524 329.18C26.1133 328.844 25.628 328.676 25.068 328.676C24.508 328.676 24.0227 328.844 23.612 329.18C23.2013 329.516 22.8793 329.992 22.646 330.608C22.422 331.224 22.31 331.947 22.31 332.778C22.31 333.599 22.422 334.318 22.646 334.934C22.8793 335.55 23.2013 336.031 23.612 336.376C24.032 336.721 24.522 336.894 25.082 336.894ZM32.6229 338V328.76H30.6489V327.57H34.0089V338H32.6229Z" fill="white" fill-opacity="0.3"/>
<path d="M25.082 396.168C24.2513 396.168 23.5233 395.944 22.898 395.496C22.282 395.039 21.8013 394.409 21.456 393.606C21.1107 392.794 20.938 391.851 20.938 390.778C20.938 389.705 21.1107 388.767 21.456 387.964C21.8013 387.152 22.282 386.522 22.898 386.074C23.514 385.626 24.2373 385.402 25.068 385.402C25.8987 385.402 26.622 385.626 27.238 386.074C27.854 386.522 28.3347 387.152 28.68 387.964C29.0347 388.767 29.212 389.705 29.212 390.778C29.212 391.851 29.0393 392.794 28.694 393.606C28.3487 394.418 27.8633 395.048 27.238 395.496C26.622 395.944 25.9033 396.168 25.082 396.168ZM25.082 394.894C25.642 394.894 26.1273 394.726 26.538 394.39C26.9487 394.045 27.266 393.564 27.49 392.948C27.7233 392.332 27.84 391.609 27.84 390.778C27.84 389.947 27.7233 389.224 27.49 388.608C27.266 387.992 26.944 387.516 26.524 387.18C26.1133 386.844 25.628 386.676 25.068 386.676C24.508 386.676 24.0227 386.844 23.612 387.18C23.2013 387.516 22.8793 387.992 22.646 388.608C22.422 389.224 22.31 389.947 22.31 390.778C22.31 391.599 22.422 392.318 22.646 392.934C22.8793 393.55 23.2013 394.031 23.612 394.376C24.032 394.721 24.522 394.894 25.082 394.894Z" fill="white" fill-opacity="0.3"/>
<path d="M70.162 396V385.57H71.422L75.328 391.128H74.684L78.562 385.57H79.822V396H78.436V387.306L78.926 387.46L75.048 392.92H74.936L71.1 387.46L71.534 387.306V396H70.162Z" fill="white" fill-opacity="0.3"/>
<path d="M117.982 396V386.83H115.154V385.57H122.154V386.83H119.368V396H117.982Z" fill="white" fill-opacity="0.3"/>
<path d="M208.982 396V386.83H206.154V385.57H213.154V386.83H210.368V396H208.982Z" fill="white" fill-opacity="0.3"/>
<path d="M248.162 396V385.57H254.77V386.83H249.534V390.204H254.28V391.464H249.534V396H248.162Z" fill="white" fill-opacity="0.3"/>
<path d="M297.746 396.168C297.083 396.168 296.477 396.047 295.926 395.804C295.375 395.552 294.909 395.211 294.526 394.782C294.143 394.353 293.868 393.872 293.7 393.34L294.89 392.85C295.142 393.522 295.515 394.04 296.01 394.404C296.514 394.759 297.102 394.936 297.774 394.936C298.185 394.936 298.544 394.871 298.852 394.74C299.16 394.609 299.398 394.427 299.566 394.194C299.743 393.951 299.832 393.671 299.832 393.354C299.832 392.915 299.706 392.57 299.454 392.318C299.211 392.057 298.852 391.861 298.376 391.73L296.458 391.142C295.702 390.909 295.123 390.54 294.722 390.036C294.321 389.532 294.12 388.953 294.12 388.3C294.12 387.731 294.255 387.231 294.526 386.802C294.806 386.363 295.189 386.023 295.674 385.78C296.169 385.528 296.729 385.402 297.354 385.402C297.979 385.402 298.544 385.514 299.048 385.738C299.561 385.962 299.995 386.265 300.35 386.648C300.705 387.021 300.966 387.451 301.134 387.936L299.958 388.426C299.734 387.838 299.398 387.395 298.95 387.096C298.502 386.788 297.975 386.634 297.368 386.634C296.995 386.634 296.663 386.699 296.374 386.83C296.094 386.951 295.875 387.133 295.716 387.376C295.567 387.609 295.492 387.889 295.492 388.216C295.492 388.599 295.613 388.939 295.856 389.238C296.099 389.537 296.467 389.765 296.962 389.924L298.712 390.442C299.533 390.694 300.154 391.053 300.574 391.52C300.994 391.987 301.204 392.565 301.204 393.256C301.204 393.825 301.055 394.329 300.756 394.768C300.467 395.207 300.061 395.552 299.538 395.804C299.025 396.047 298.427 396.168 297.746 396.168Z" fill="white" fill-opacity="0.3"/>
<path d="M341.746 396.168C341.083 396.168 340.477 396.047 339.926 395.804C339.375 395.552 338.909 395.211 338.526 394.782C338.143 394.353 337.868 393.872 337.7 393.34L338.89 392.85C339.142 393.522 339.515 394.04 340.01 394.404C340.514 394.759 341.102 394.936 341.774 394.936C342.185 394.936 342.544 394.871 342.852 394.74C343.16 394.609 343.398 394.427 343.566 394.194C343.743 393.951 343.832 393.671 343.832 393.354C343.832 392.915 343.706 392.57 343.454 392.318C343.211 392.057 342.852 391.861 342.376 391.73L340.458 391.142C339.702 390.909 339.123 390.54 338.722 390.036C338.321 389.532 338.12 388.953 338.12 388.3C338.12 387.731 338.255 387.231 338.526 386.802C338.806 386.363 339.189 386.023 339.674 385.78C340.169 385.528 340.729 385.402 341.354 385.402C341.979 385.402 342.544 385.514 343.048 385.738C343.561 385.962 343.995 386.265 344.35 386.648C344.705 387.021 344.966 387.451 345.134 387.936L343.958 388.426C343.734 387.838 343.398 387.395 342.95 387.096C342.502 386.788 341.975 386.634 341.368 386.634C340.995 386.634 340.663 386.699 340.374 386.83C340.094 386.951 339.875 387.133 339.716 387.376C339.567 387.609 339.492 387.889 339.492 388.216C339.492 388.599 339.613 388.939 339.856 389.238C340.099 389.537 340.467 389.765 340.962 389.924L342.712 390.442C343.533 390.694 344.154 391.053 344.574 391.52C344.994 391.987 345.204 392.565 345.204 393.256C345.204 393.825 345.055 394.329 344.756 394.768C344.467 395.207 344.061 395.552 343.538 395.804C343.025 396.047 342.427 396.168 341.746 396.168Z" fill="white" fill-opacity="0.3"/>
<path d="M161.08 396L158.154 385.57H159.596L162.046 394.754H161.71L164.258 385.57H165.7L168.234 394.754H167.884L170.348 385.57H171.79L168.864 396H167.338L164.79 386.858H165.154L162.606 396H161.08Z" fill="white" fill-opacity="0.3"/>
<path d="M25.082 280.168C24.2513 280.168 23.5233 279.944 22.898 279.496C22.282 279.039 21.8013 278.409 21.456 277.606C21.1107 276.794 20.938 275.851 20.938 274.778C20.938 273.705 21.1107 272.767 21.456 271.964C21.8013 271.152 22.282 270.522 22.898 270.074C23.514 269.626 24.2373 269.402 25.068 269.402C25.8987 269.402 26.622 269.626 27.238 270.074C27.854 270.522 28.3347 271.152 28.68 271.964C29.0347 272.767 29.212 273.705 29.212 274.778C29.212 275.851 29.0393 276.794 28.694 277.606C28.3487 278.418 27.8633 279.048 27.238 279.496C26.622 279.944 25.9033 280.168 25.082 280.168ZM25.082 278.894C25.642 278.894 26.1273 278.726 26.538 278.39C26.9487 278.045 27.266 277.564 27.49 276.948C27.7233 276.332 27.84 275.609 27.84 274.778C27.84 273.947 27.7233 273.224 27.49 272.608C27.266 271.992 26.944 271.516 26.524 271.18C26.1133 270.844 25.628 270.676 25.068 270.676C24.508 270.676 24.0227 270.844 23.612 271.18C23.2013 271.516 22.8793 271.992 22.646 272.608C22.422 273.224 22.31 273.947 22.31 274.778C22.31 275.599 22.422 276.318 22.646 276.934C22.8793 277.55 23.2013 278.031 23.612 278.376C24.032 278.721 24.522 278.894 25.082 278.894ZM30.8869 280V279.048L33.7709 275.926C34.3402 275.319 34.7929 274.82 35.1289 274.428C35.4742 274.036 35.7262 273.686 35.8849 273.378C36.0435 273.07 36.1229 272.743 36.1229 272.398C36.1229 271.829 35.9549 271.39 35.6189 271.082C35.2829 270.774 34.8395 270.62 34.2889 270.62C33.7289 270.62 33.2529 270.783 32.8609 271.11C32.4689 271.427 32.1982 271.88 32.0489 272.468L30.8029 272.146C30.9242 271.586 31.1482 271.101 31.4749 270.69C31.8015 270.279 32.2075 269.962 32.6929 269.738C33.1782 269.514 33.7102 269.402 34.2889 269.402C34.9235 269.402 35.4789 269.528 35.9549 269.78C36.4402 270.023 36.8182 270.363 37.0889 270.802C37.3689 271.241 37.5089 271.749 37.5089 272.328C37.5089 272.711 37.4295 273.084 37.2709 273.448C37.1122 273.812 36.8789 274.199 36.5709 274.61C36.2629 275.011 35.8615 275.478 35.3669 276.01L32.7909 278.81H37.7329V280H30.8869Z" fill="white" fill-opacity="0.3"/>
<path d="M25.082 222.168C24.2513 222.168 23.5233 221.944 22.898 221.496C22.282 221.039 21.8013 220.409 21.456 219.606C21.1107 218.794 20.938 217.851 20.938 216.778C20.938 215.705 21.1107 214.767 21.456 213.964C21.8013 213.152 22.282 212.522 22.898 212.074C23.514 211.626 24.2373 211.402 25.068 211.402C25.8987 211.402 26.622 211.626 27.238 212.074C27.854 212.522 28.3347 213.152 28.68 213.964C29.0347 214.767 29.212 215.705 29.212 216.778C29.212 217.851 29.0393 218.794 28.694 219.606C28.3487 220.418 27.8633 221.048 27.238 221.496C26.622 221.944 25.9033 222.168 25.082 222.168ZM25.082 220.894C25.642 220.894 26.1273 220.726 26.538 220.39C26.9487 220.045 27.266 219.564 27.49 218.948C27.7233 218.332 27.84 217.609 27.84 216.778C27.84 215.947 27.7233 215.224 27.49 214.608C27.266 213.992 26.944 213.516 26.524 213.18C26.1133 212.844 25.628 212.676 25.068 212.676C24.508 212.676 24.0227 212.844 23.612 213.18C23.2013 213.516 22.8793 213.992 22.646 214.608C22.422 215.224 22.31 215.947 22.31 216.778C22.31 217.599 22.422 218.318 22.646 218.934C22.8793 219.55 23.2013 220.031 23.612 220.376C24.032 220.721 24.522 220.894 25.082 220.894ZM34.2469 222.168C33.6962 222.168 33.1829 222.07 32.7069 221.874C32.2309 221.678 31.8202 221.403 31.4749 221.048C31.1295 220.684 30.8729 220.255 30.7049 219.76L31.8669 219.284C32.0629 219.807 32.3709 220.213 32.7909 220.502C33.2109 220.791 33.6962 220.936 34.2469 220.936C34.6762 220.936 35.0589 220.852 35.3949 220.684C35.7309 220.516 35.9922 220.273 36.1789 219.956C36.3749 219.639 36.4729 219.256 36.4729 218.808C36.4729 218.351 36.3749 217.968 36.1789 217.66C35.9922 217.343 35.7309 217.1 35.3949 216.932C35.0589 216.764 34.6715 216.68 34.2329 216.68C34.0929 216.68 33.9389 216.689 33.7709 216.708C33.6122 216.727 33.4769 216.755 33.3649 216.792L33.0709 216.162L35.8569 212.76H31.2369V211.57H37.4109V212.718L34.7509 215.994L34.6669 215.63C35.2922 215.649 35.8429 215.793 36.3189 216.064C36.7949 216.335 37.1682 216.703 37.4389 217.17C37.7095 217.627 37.8449 218.164 37.8449 218.78C37.8449 219.415 37.6909 219.989 37.3829 220.502C37.0749 221.015 36.6502 221.421 36.1089 221.72C35.5675 222.019 34.9469 222.168 34.2469 222.168Z" fill="white" fill-opacity="0.3"/>
<path d="M25.082 164.168C24.2513 164.168 23.5233 163.944 22.898 163.496C22.282 163.039 21.8013 162.409 21.456 161.606C21.1107 160.794 20.938 159.851 20.938 158.778C20.938 157.705 21.1107 156.767 21.456 155.964C21.8013 155.152 22.282 154.522 22.898 154.074C23.514 153.626 24.2373 153.402 25.068 153.402C25.8987 153.402 26.622 153.626 27.238 154.074C27.854 154.522 28.3347 155.152 28.68 155.964C29.0347 156.767 29.212 157.705 29.212 158.778C29.212 159.851 29.0393 160.794 28.694 161.606C28.3487 162.418 27.8633 163.048 27.238 163.496C26.622 163.944 25.9033 164.168 25.082 164.168ZM25.082 162.894C25.642 162.894 26.1273 162.726 26.538 162.39C26.9487 162.045 27.266 161.564 27.49 160.948C27.7233 160.332 27.84 159.609 27.84 158.778C27.84 157.947 27.7233 157.224 27.49 156.608C27.266 155.992 26.944 155.516 26.524 155.18C26.1133 154.844 25.628 154.676 25.068 154.676C24.508 154.676 24.0227 154.844 23.612 155.18C23.2013 155.516 22.8793 155.992 22.646 156.608C22.422 157.224 22.31 157.947 22.31 158.778C22.31 159.599 22.422 160.318 22.646 160.934C22.8793 161.55 23.2013 162.031 23.612 162.376C24.032 162.721 24.522 162.894 25.082 162.894ZM35.8569 164V161.592H30.7329V160.458L35.8289 153.57H37.1449V160.458H38.5029V161.592H37.1449V164H35.8569ZM31.7689 160.948L31.5729 160.458H35.8569V154.718L36.2629 154.83L31.7689 160.948Z" fill="white" fill-opacity="0.3"/>
<path d="M25.082 107.168C24.2513 107.168 23.5233 106.944 22.898 106.496C22.282 106.039 21.8013 105.409 21.456 104.606C21.1107 103.794 20.938 102.851 20.938 101.778C20.938 100.705 21.1107 99.7667 21.456 98.964C21.8013 98.152 22.282 97.522 22.898 97.074C23.514 96.626 24.2373 96.402 25.068 96.402C25.8987 96.402 26.622 96.626 27.238 97.074C27.854 97.522 28.3347 98.152 28.68 98.964C29.0347 99.7667 29.212 100.705 29.212 101.778C29.212 102.851 29.0393 103.794 28.694 104.606C28.3487 105.418 27.8633 106.048 27.238 106.496C26.622 106.944 25.9033 107.168 25.082 107.168ZM25.082 105.894C25.642 105.894 26.1273 105.726 26.538 105.39C26.9487 105.045 27.266 104.564 27.49 103.948C27.7233 103.332 27.84 102.609 27.84 101.778C27.84 100.947 27.7233 100.224 27.49 99.608C27.266 98.992 26.944 98.516 26.524 98.18C26.1133 97.844 25.628 97.676 25.068 97.676C24.508 97.676 24.0227 97.844 23.612 98.18C23.2013 98.516 22.8793 98.992 22.646 99.608C22.422 100.224 22.31 100.947 22.31 101.778C22.31 102.599 22.422 103.318 22.646 103.934C22.8793 104.55 23.2013 105.031 23.612 105.376C24.032 105.721 24.522 105.894 25.082 105.894ZM34.3309 107.168C33.7895 107.168 33.2809 107.075 32.8049 106.888C32.3289 106.692 31.9135 106.417 31.5589 106.062C31.2135 105.698 30.9615 105.273 30.8029 104.788L31.9229 104.312C32.1189 104.825 32.4362 105.227 32.8749 105.516C33.3229 105.796 33.8082 105.936 34.3309 105.936C34.7602 105.936 35.1382 105.843 35.4649 105.656C35.8009 105.46 36.0622 105.194 36.2489 104.858C36.4355 104.513 36.5289 104.13 36.5289 103.71C36.5289 103.271 36.4309 102.884 36.2349 102.548C36.0482 102.212 35.7915 101.951 35.4649 101.764C35.1382 101.568 34.7649 101.47 34.3449 101.47C33.9155 101.47 33.5235 101.568 33.1689 101.764C32.8142 101.96 32.5575 102.207 32.3989 102.506L31.2929 102.268L32.0909 96.57H37.4949V97.76H32.6089L33.1409 97.228L32.5249 101.652L32.0489 101.372C32.3569 100.98 32.7162 100.7 33.1269 100.532C33.5469 100.355 33.9995 100.266 34.4849 100.266C35.1662 100.266 35.7635 100.42 36.2769 100.728C36.7902 101.036 37.1915 101.447 37.4809 101.96C37.7702 102.473 37.9149 103.057 37.9149 103.71C37.9149 104.363 37.7562 104.951 37.4389 105.474C37.1309 105.997 36.7062 106.412 36.1649 106.72C35.6329 107.019 35.0215 107.168 34.3309 107.168Z" fill="white" fill-opacity="0.3"/>
<path d="M377.556 129V121.14H375.132V120.06H381.132V121.14H378.744V129H377.556ZM382.134 129V122.532H383.25V129H382.134ZM382.134 121.5V120.06H383.25V121.5H382.134ZM384.981 129V122.532H386.073V123.852L385.917 123.648C386.077 123.24 386.333 122.928 386.685 122.712C387.037 122.496 387.433 122.388 387.873 122.388C388.377 122.388 388.829 122.528 389.229 122.808C389.637 123.088 389.917 123.456 390.069 123.912L389.757 123.924C389.925 123.42 390.209 123.04 390.609 122.784C391.009 122.52 391.453 122.388 391.941 122.388C392.389 122.388 392.793 122.492 393.153 122.7C393.521 122.908 393.813 123.196 394.029 123.564C394.245 123.932 394.353 124.348 394.353 124.812V129H393.225V125.172C393.225 124.812 393.161 124.508 393.033 124.26C392.905 124.012 392.729 123.82 392.505 123.684C392.289 123.54 392.033 123.468 391.737 123.468C391.449 123.468 391.189 123.54 390.957 123.684C390.733 123.82 390.553 124.016 390.417 124.272C390.289 124.52 390.225 124.82 390.225 125.172V129H389.097V125.172C389.097 124.812 389.033 124.508 388.905 124.26C388.777 124.012 388.601 123.82 388.377 123.684C388.161 123.54 387.905 123.468 387.609 123.468C387.321 123.468 387.061 123.54 386.829 123.684C386.605 123.82 386.425 124.016 386.289 124.272C386.161 124.52 386.097 124.82 386.097 125.172V129H384.981ZM398.914 129.144C398.29 129.144 397.734 128.996 397.246 128.7C396.758 128.404 396.374 128 396.094 127.488C395.814 126.968 395.674 126.388 395.674 125.748C395.674 125.1 395.81 124.524 396.082 124.02C396.362 123.516 396.738 123.12 397.21 122.832C397.69 122.536 398.226 122.388 398.818 122.388C399.298 122.388 399.722 122.476 400.09 122.652C400.466 122.82 400.782 123.052 401.038 123.348C401.302 123.636 401.502 123.968 401.638 124.344C401.782 124.712 401.854 125.096 401.854 125.496C401.854 125.584 401.846 125.684 401.83 125.796C401.822 125.9 401.81 126 401.794 126.096H396.49V125.136H401.146L400.618 125.568C400.69 125.152 400.65 124.78 400.498 124.452C400.346 124.124 400.122 123.864 399.826 123.672C399.53 123.48 399.194 123.384 398.818 123.384C398.442 123.384 398.098 123.48 397.786 123.672C397.474 123.864 397.23 124.14 397.054 124.5C396.886 124.852 396.818 125.272 396.85 125.76C396.818 126.232 396.89 126.648 397.066 127.008C397.25 127.36 397.506 127.636 397.834 127.836C398.17 128.028 398.534 128.124 398.926 128.124C399.358 128.124 399.722 128.024 400.018 127.824C400.314 127.624 400.554 127.368 400.738 127.056L401.674 127.536C401.546 127.832 401.346 128.104 401.074 128.352C400.81 128.592 400.494 128.784 400.126 128.928C399.766 129.072 399.362 129.144 398.914 129.144ZM407.7 129.144C407.052 129.144 406.488 128.984 406.008 128.664C405.528 128.344 405.188 127.912 404.988 127.368L405.876 126.936C406.06 127.32 406.312 127.624 406.632 127.848C406.952 128.072 407.308 128.184 407.7 128.184C408.052 128.184 408.344 128.1 408.576 127.932C408.808 127.764 408.924 127.544 408.924 127.272C408.924 127.08 408.868 126.928 408.756 126.816C408.652 126.696 408.524 126.604 408.372 126.54C408.22 126.468 408.08 126.416 407.952 126.384L406.98 126.108C406.396 125.94 405.968 125.7 405.696 125.388C405.432 125.076 405.3 124.712 405.3 124.296C405.3 123.912 405.396 123.58 405.588 123.3C405.788 123.012 406.056 122.788 406.392 122.628C406.736 122.468 407.12 122.388 407.544 122.388C408.112 122.388 408.62 122.532 409.068 122.82C409.524 123.108 409.848 123.512 410.04 124.032L409.128 124.452C408.984 124.116 408.768 123.852 408.48 123.66C408.192 123.46 407.868 123.36 407.508 123.36C407.18 123.36 406.92 123.444 406.728 123.612C406.536 123.772 406.44 123.976 406.44 124.224C406.44 124.408 406.488 124.56 406.584 124.68C406.68 124.792 406.796 124.88 406.932 124.944C407.068 125 407.2 125.048 407.328 125.088L408.384 125.4C408.912 125.552 409.32 125.788 409.608 126.108C409.904 126.428 410.052 126.812 410.052 127.26C410.052 127.62 409.952 127.944 409.752 128.232C409.552 128.52 409.276 128.744 408.924 128.904C408.572 129.064 408.164 129.144 407.7 129.144ZM411.512 131.4V122.532H412.604V123.924L412.46 123.648C412.7 123.264 413.028 122.96 413.444 122.736C413.86 122.504 414.336 122.388 414.872 122.388C415.48 122.388 416.024 122.536 416.504 122.832C416.992 123.128 417.376 123.532 417.656 124.044C417.936 124.548 418.076 125.124 418.076 125.772C418.076 126.404 417.936 126.976 417.656 127.488C417.376 128 416.992 128.404 416.504 128.7C416.024 128.996 415.476 129.144 414.86 129.144C414.34 129.144 413.864 129.028 413.432 128.796C413.008 128.564 412.68 128.236 412.448 127.812L412.628 127.62V131.4H411.512ZM414.776 128.064C415.184 128.064 415.548 127.964 415.868 127.764C416.188 127.564 416.436 127.292 416.612 126.948C416.796 126.596 416.888 126.204 416.888 125.772C416.888 125.324 416.796 124.932 416.612 124.596C416.436 124.252 416.188 123.98 415.868 123.78C415.548 123.572 415.184 123.468 414.776 123.468C414.368 123.468 414 123.568 413.672 123.768C413.352 123.968 413.096 124.244 412.904 124.596C412.72 124.94 412.628 125.332 412.628 125.772C412.628 126.204 412.72 126.596 412.904 126.948C413.096 127.292 413.352 127.564 413.672 127.764C414 127.964 414.368 128.064 414.776 128.064ZM422.516 129.144C421.892 129.144 421.336 128.996 420.848 128.7C420.36 128.404 419.976 128 419.696 127.488C419.416 126.968 419.276 126.388 419.276 125.748C419.276 125.1 419.412 124.524 419.684 124.02C419.964 123.516 420.34 123.12 420.812 122.832C421.292 122.536 421.828 122.388 422.42 122.388C422.9 122.388 423.324 122.476 423.692 122.652C424.068 122.82 424.384 123.052 424.64 123.348C424.904 123.636 425.104 123.968 425.24 124.344C425.384 124.712 425.456 125.096 425.456 125.496C425.456 125.584 425.448 125.684 425.432 125.796C425.424 125.9 425.412 126 425.396 126.096H420.092V125.136H424.748L424.22 125.568C424.292 125.152 424.252 124.78 424.1 124.452C423.948 124.124 423.724 123.864 423.428 123.672C423.132 123.48 422.796 123.384 422.42 123.384C422.044 123.384 421.7 123.48 421.388 123.672C421.076 123.864 420.832 124.14 420.656 124.5C420.488 124.852 420.42 125.272 420.452 125.76C420.42 126.232 420.492 126.648 420.668 127.008C420.852 127.36 421.108 127.636 421.436 127.836C421.772 128.028 422.136 128.124 422.528 128.124C422.96 128.124 423.324 128.024 423.62 127.824C423.916 127.624 424.156 127.368 424.34 127.056L425.276 127.536C425.148 127.832 424.948 128.104 424.676 128.352C424.412 128.592 424.096 128.784 423.728 128.928C423.368 129.072 422.964 129.144 422.516 129.144ZM426.911 129V122.532H428.003V123.792L427.823 123.684C427.983 123.276 428.239 122.96 428.591 122.736C428.951 122.504 429.371 122.388 429.851 122.388C430.315 122.388 430.727 122.492 431.087 122.7C431.455 122.908 431.743 123.196 431.951 123.564C432.167 123.932 432.275 124.348 432.275 124.812V129H431.147V125.172C431.147 124.812 431.083 124.508 430.955 124.26C430.827 124.012 430.643 123.82 430.403 123.684C430.171 123.54 429.903 123.468 429.599 123.468C429.295 123.468 429.023 123.54 428.783 123.684C428.551 123.82 428.367 124.016 428.231 124.272C428.095 124.52 428.027 124.82 428.027 125.172V129H426.911ZM436.5 129.072C435.868 129.072 435.38 128.892 435.036 128.532C434.7 128.172 434.532 127.664 434.532 127.008V123.6H433.356V122.532H433.596C433.884 122.532 434.112 122.444 434.28 122.268C434.448 122.092 434.532 121.86 434.532 121.572V121.044H435.648V122.532H437.1V123.6H435.648V126.972C435.648 127.188 435.68 127.376 435.744 127.536C435.816 127.696 435.932 127.824 436.092 127.92C436.252 128.008 436.464 128.052 436.728 128.052C436.784 128.052 436.852 128.048 436.932 128.04C437.02 128.032 437.1 128.024 437.172 128.016V129C437.068 129.024 436.952 129.04 436.824 129.048C436.696 129.064 436.588 129.072 436.5 129.072Z" fill="white" fill-opacity="0.3"/>
<path d="M374.996 218V209.06H376.172V216.92H380.096V218H374.996ZM384.262 218.144C383.638 218.144 383.082 217.996 382.594 217.7C382.106 217.404 381.722 217 381.442 216.488C381.162 215.968 381.022 215.388 381.022 214.748C381.022 214.1 381.158 213.524 381.43 213.02C381.71 212.516 382.086 212.12 382.558 211.832C383.038 211.536 383.574 211.388 384.166 211.388C384.646 211.388 385.07 211.476 385.438 211.652C385.814 211.82 386.13 212.052 386.386 212.348C386.65 212.636 386.85 212.968 386.986 213.344C387.13 213.712 387.202 214.096 387.202 214.496C387.202 214.584 387.194 214.684 387.178 214.796C387.17 214.9 387.158 215 387.142 215.096H381.838V214.136H386.494L385.966 214.568C386.038 214.152 385.998 213.78 385.846 213.452C385.694 213.124 385.47 212.864 385.174 212.672C384.878 212.48 384.542 212.384 384.166 212.384C383.79 212.384 383.446 212.48 383.134 212.672C382.822 212.864 382.578 213.14 382.402 213.5C382.234 213.852 382.166 214.272 382.198 214.76C382.166 215.232 382.238 215.648 382.414 216.008C382.598 216.36 382.854 216.636 383.182 216.836C383.518 217.028 383.882 217.124 384.274 217.124C384.706 217.124 385.07 217.024 385.366 216.824C385.662 216.624 385.902 216.368 386.086 216.056L387.022 216.536C386.894 216.832 386.694 217.104 386.422 217.352C386.158 217.592 385.842 217.784 385.474 217.928C385.114 218.072 384.71 218.144 384.262 218.144ZM390.973 218.144C390.325 218.144 389.761 217.984 389.281 217.664C388.801 217.344 388.461 216.912 388.261 216.368L389.149 215.936C389.333 216.32 389.585 216.624 389.905 216.848C390.225 217.072 390.581 217.184 390.973 217.184C391.325 217.184 391.617 217.1 391.849 216.932C392.081 216.764 392.197 216.544 392.197 216.272C392.197 216.08 392.141 215.928 392.029 215.816C391.925 215.696 391.797 215.604 391.645 215.54C391.493 215.468 391.353 215.416 391.225 215.384L390.253 215.108C389.669 214.94 389.241 214.7 388.969 214.388C388.705 214.076 388.573 213.712 388.573 213.296C388.573 212.912 388.669 212.58 388.861 212.3C389.061 212.012 389.329 211.788 389.665 211.628C390.009 211.468 390.393 211.388 390.817 211.388C391.385 211.388 391.893 211.532 392.341 211.82C392.797 212.108 393.121 212.512 393.313 213.032L392.401 213.452C392.257 213.116 392.041 212.852 391.753 212.66C391.465 212.46 391.141 212.36 390.781 212.36C390.453 212.36 390.193 212.444 390.001 212.612C389.809 212.772 389.713 212.976 389.713 213.224C389.713 213.408 389.761 213.56 389.857 213.68C389.953 213.792 390.069 213.88 390.205 213.944C390.341 214 390.473 214.048 390.601 214.088L391.657 214.4C392.185 214.552 392.593 214.788 392.881 215.108C393.177 215.428 393.325 215.812 393.325 216.26C393.325 216.62 393.225 216.944 393.025 217.232C392.825 217.52 392.549 217.744 392.197 217.904C391.845 218.064 391.437 218.144 390.973 218.144ZM397.102 218.144C396.454 218.144 395.89 217.984 395.41 217.664C394.93 217.344 394.59 216.912 394.39 216.368L395.278 215.936C395.462 216.32 395.714 216.624 396.034 216.848C396.354 217.072 396.71 217.184 397.102 217.184C397.454 217.184 397.746 217.1 397.978 216.932C398.21 216.764 398.326 216.544 398.326 216.272C398.326 216.08 398.27 215.928 398.158 215.816C398.054 215.696 397.926 215.604 397.774 215.54C397.622 215.468 397.482 215.416 397.354 215.384L396.382 215.108C395.798 214.94 395.37 214.7 395.098 214.388C394.834 214.076 394.702 213.712 394.702 213.296C394.702 212.912 394.798 212.58 394.99 212.3C395.19 212.012 395.458 211.788 395.794 211.628C396.138 211.468 396.522 211.388 396.946 211.388C397.514 211.388 398.022 211.532 398.47 211.82C398.926 212.108 399.25 212.512 399.442 213.032L398.53 213.452C398.386 213.116 398.17 212.852 397.882 212.66C397.594 212.46 397.27 212.36 396.91 212.36C396.582 212.36 396.322 212.444 396.13 212.612C395.938 212.772 395.842 212.976 395.842 213.224C395.842 213.408 395.89 213.56 395.986 213.68C396.082 213.792 396.198 213.88 396.334 213.944C396.47 214 396.602 214.048 396.73 214.088L397.786 214.4C398.314 214.552 398.722 214.788 399.01 215.108C399.306 215.428 399.454 215.812 399.454 216.26C399.454 216.62 399.354 216.944 399.154 217.232C398.954 217.52 398.678 217.744 398.326 217.904C397.974 218.064 397.566 218.144 397.102 218.144ZM403.987 218.144C403.363 218.144 402.799 218 402.295 217.712C401.791 217.416 401.391 217.012 401.095 216.5C400.799 215.988 400.651 215.408 400.651 214.76C400.651 214.112 400.795 213.536 401.083 213.032C401.379 212.528 401.779 212.128 402.283 211.832C402.787 211.536 403.355 211.388 403.987 211.388C404.611 211.388 405.175 211.536 405.679 211.832C406.183 212.12 406.579 212.516 406.867 213.02C407.163 213.524 407.311 214.104 407.311 214.76C407.311 215.416 407.159 216 406.855 216.512C406.551 217.016 406.147 217.416 405.643 217.712C405.147 218 404.595 218.144 403.987 218.144ZM403.987 217.064C404.387 217.064 404.747 216.964 405.067 216.764C405.395 216.564 405.651 216.288 405.835 215.936C406.027 215.584 406.123 215.192 406.123 214.76C406.123 214.32 406.027 213.932 405.835 213.596C405.651 213.252 405.395 212.98 405.067 212.78C404.747 212.572 404.387 212.468 403.987 212.468C403.579 212.468 403.211 212.572 402.883 212.78C402.563 212.98 402.307 213.252 402.115 213.596C401.923 213.932 401.827 214.32 401.827 214.76C401.827 215.192 401.923 215.584 402.115 215.936C402.307 216.288 402.563 216.564 402.883 216.764C403.211 216.964 403.579 217.064 403.987 217.064ZM408.766 218V211.532H409.858V212.792L409.678 212.684C409.838 212.276 410.094 211.96 410.446 211.736C410.806 211.504 411.226 211.388 411.706 211.388C412.17 211.388 412.582 211.492 412.942 211.7C413.31 211.908 413.598 212.196 413.806 212.564C414.022 212.932 414.13 213.348 414.13 213.812V218H413.002V214.172C413.002 213.812 412.938 213.508 412.81 213.26C412.682 213.012 412.498 212.82 412.258 212.684C412.026 212.54 411.758 212.468 411.454 212.468C411.15 212.468 410.878 212.54 410.638 212.684C410.406 212.82 410.222 213.016 410.086 213.272C409.95 213.52 409.882 213.82 409.882 214.172V218H408.766ZM417.934 218V209.06H419.11V216.92H423.034V218H417.934ZM427.199 218.144C426.575 218.144 426.019 217.996 425.531 217.7C425.043 217.404 424.659 217 424.379 216.488C424.099 215.968 423.959 215.388 423.959 214.748C423.959 214.1 424.095 213.524 424.367 213.02C424.647 212.516 425.023 212.12 425.495 211.832C425.975 211.536 426.511 211.388 427.103 211.388C427.583 211.388 428.007 211.476 428.375 211.652C428.751 211.82 429.067 212.052 429.323 212.348C429.587 212.636 429.787 212.968 429.923 213.344C430.067 213.712 430.139 214.096 430.139 214.496C430.139 214.584 430.131 214.684 430.115 214.796C430.107 214.9 430.095 215 430.079 215.096H424.775V214.136H429.431L428.903 214.568C428.975 214.152 428.935 213.78 428.783 213.452C428.631 213.124 428.407 212.864 428.111 212.672C427.815 212.48 427.479 212.384 427.103 212.384C426.727 212.384 426.383 212.48 426.071 212.672C425.759 212.864 425.515 213.14 425.339 213.5C425.171 213.852 425.103 214.272 425.135 214.76C425.103 215.232 425.175 215.648 425.351 216.008C425.535 216.36 425.791 216.636 426.119 216.836C426.455 217.028 426.819 217.124 427.211 217.124C427.643 217.124 428.007 217.024 428.303 216.824C428.599 216.624 428.839 216.368 429.023 216.056L429.959 216.536C429.831 216.832 429.631 217.104 429.359 217.352C429.095 217.592 428.779 217.784 428.411 217.928C428.051 218.072 427.647 218.144 427.199 218.144ZM433.408 218.144C432.984 218.144 432.608 218.068 432.28 217.916C431.96 217.756 431.708 217.54 431.524 217.268C431.34 216.988 431.248 216.668 431.248 216.308C431.248 215.964 431.32 215.656 431.464 215.384C431.616 215.104 431.848 214.868 432.16 214.676C432.48 214.484 432.88 214.348 433.36 214.268L435.76 213.872V214.808L433.612 215.168C433.196 215.24 432.892 215.372 432.7 215.564C432.516 215.756 432.424 215.992 432.424 216.272C432.424 216.536 432.528 216.756 432.736 216.932C432.952 217.108 433.22 217.196 433.54 217.196C433.948 217.196 434.3 217.112 434.596 216.944C434.9 216.768 435.136 216.532 435.304 216.236C435.48 215.94 435.568 215.612 435.568 215.252V213.608C435.568 213.256 435.436 212.972 435.172 212.756C434.916 212.532 434.576 212.42 434.152 212.42C433.784 212.42 433.456 212.516 433.168 212.708C432.888 212.892 432.68 213.14 432.544 213.452L431.572 212.948C431.692 212.652 431.884 212.388 432.148 212.156C432.412 211.916 432.72 211.728 433.072 211.592C433.424 211.456 433.792 211.388 434.176 211.388C434.672 211.388 435.108 211.484 435.484 211.676C435.86 211.86 436.152 212.12 436.36 212.456C436.576 212.784 436.684 213.168 436.684 213.608V218H435.592V216.776L435.796 216.848C435.66 217.104 435.476 217.328 435.244 217.52C435.012 217.712 434.74 217.864 434.428 217.976C434.116 218.088 433.776 218.144 433.408 218.144ZM438.415 218V211.532H439.507V212.72L439.387 212.552C439.539 212.184 439.771 211.912 440.083 211.736C440.395 211.552 440.775 211.46 441.223 211.46H441.619V212.516H441.055C440.599 212.516 440.231 212.66 439.951 212.948C439.671 213.228 439.531 213.628 439.531 214.148V218H438.415ZM442.61 218V211.532H443.702V212.792L443.522 212.684C443.682 212.276 443.938 211.96 444.29 211.736C444.65 211.504 445.07 211.388 445.55 211.388C446.014 211.388 446.426 211.492 446.786 211.7C447.154 211.908 447.442 212.196 447.65 212.564C447.866 212.932 447.974 213.348 447.974 213.812V218H446.846V214.172C446.846 213.812 446.782 213.508 446.654 213.26C446.526 213.012 446.342 212.82 446.102 212.684C445.87 212.54 445.602 212.468 445.298 212.468C444.994 212.468 444.722 212.54 444.482 212.684C444.25 212.82 444.066 213.016 443.93 213.272C443.794 213.52 443.726 213.82 443.726 214.172V218H442.61ZM452.199 218.072C451.567 218.072 451.079 217.892 450.735 217.532C450.399 217.172 450.231 216.664 450.231 216.008V212.6H449.055V211.532H449.295C449.583 211.532 449.811 211.444 449.979 211.268C450.147 211.092 450.231 210.86 450.231 210.572V210.044H451.347V211.532H452.799V212.6H451.347V215.972C451.347 216.188 451.379 216.376 451.443 216.536C451.515 216.696 451.631 216.824 451.791 216.92C451.951 217.008 452.163 217.052 452.427 217.052C452.483 217.052 452.551 217.048 452.631 217.04C452.719 217.032 452.799 217.024 452.871 217.016V218C452.767 218.024 452.651 218.04 452.523 218.048C452.395 218.064 452.287 218.072 452.199 218.072Z" fill="white" fill-opacity="0.3"/>
<path d="M374.996 308V299.06H380.816V300.14H376.172V302.972H380.576V304.052H376.172V306.92H380.816V308H374.996ZM381.409 308L383.677 304.76L381.421 301.532H382.765L384.697 304.34H384.013L385.921 301.532H387.277L385.021 304.76L387.265 308H385.921L384.013 305.192H384.685L382.777 308H381.409ZM390.049 308.144C389.625 308.144 389.249 308.068 388.921 307.916C388.601 307.756 388.349 307.54 388.165 307.268C387.981 306.988 387.889 306.668 387.889 306.308C387.889 305.964 387.961 305.656 388.105 305.384C388.257 305.104 388.489 304.868 388.801 304.676C389.121 304.484 389.521 304.348 390.001 304.268L392.401 303.872V304.808L390.253 305.168C389.837 305.24 389.533 305.372 389.341 305.564C389.157 305.756 389.065 305.992 389.065 306.272C389.065 306.536 389.169 306.756 389.377 306.932C389.593 307.108 389.861 307.196 390.181 307.196C390.589 307.196 390.941 307.112 391.237 306.944C391.541 306.768 391.777 306.532 391.945 306.236C392.121 305.94 392.209 305.612 392.209 305.252V303.608C392.209 303.256 392.077 302.972 391.813 302.756C391.557 302.532 391.217 302.42 390.793 302.42C390.425 302.42 390.097 302.516 389.809 302.708C389.529 302.892 389.321 303.14 389.185 303.452L388.213 302.948C388.333 302.652 388.525 302.388 388.789 302.156C389.053 301.916 389.361 301.728 389.713 301.592C390.065 301.456 390.433 301.388 390.817 301.388C391.313 301.388 391.749 301.484 392.125 301.676C392.501 301.86 392.793 302.12 393.001 302.456C393.217 302.784 393.325 303.168 393.325 303.608V308H392.233V306.776L392.437 306.848C392.301 307.104 392.117 307.328 391.885 307.52C391.653 307.712 391.381 307.864 391.069 307.976C390.757 308.088 390.417 308.144 390.049 308.144ZM395.055 308V301.532H396.147V302.852L395.991 302.648C396.151 302.24 396.407 301.928 396.759 301.712C397.111 301.496 397.507 301.388 397.947 301.388C398.451 301.388 398.903 301.528 399.303 301.808C399.711 302.088 399.991 302.456 400.143 302.912L399.831 302.924C399.999 302.42 400.283 302.04 400.683 301.784C401.083 301.52 401.527 301.388 402.015 301.388C402.463 301.388 402.867 301.492 403.227 301.7C403.595 301.908 403.887 302.196 404.103 302.564C404.319 302.932 404.427 303.348 404.427 303.812V308H403.299V304.172C403.299 303.812 403.235 303.508 403.107 303.26C402.979 303.012 402.803 302.82 402.579 302.684C402.363 302.54 402.107 302.468 401.811 302.468C401.523 302.468 401.263 302.54 401.031 302.684C400.807 302.82 400.627 303.016 400.491 303.272C400.363 303.52 400.299 303.82 400.299 304.172V308H399.171V304.172C399.171 303.812 399.107 303.508 398.979 303.26C398.851 303.012 398.675 302.82 398.451 302.684C398.235 302.54 397.979 302.468 397.683 302.468C397.395 302.468 397.135 302.54 396.903 302.684C396.679 302.82 396.499 303.016 396.363 303.272C396.235 303.52 396.171 303.82 396.171 304.172V308H395.055ZM408.328 308.144C407.68 308.144 407.116 307.984 406.636 307.664C406.156 307.344 405.816 306.912 405.616 306.368L406.504 305.936C406.688 306.32 406.94 306.624 407.26 306.848C407.58 307.072 407.936 307.184 408.328 307.184C408.68 307.184 408.972 307.1 409.204 306.932C409.436 306.764 409.552 306.544 409.552 306.272C409.552 306.08 409.496 305.928 409.384 305.816C409.28 305.696 409.152 305.604 409 305.54C408.848 305.468 408.708 305.416 408.58 305.384L407.608 305.108C407.024 304.94 406.596 304.7 406.324 304.388C406.06 304.076 405.928 303.712 405.928 303.296C405.928 302.912 406.024 302.58 406.216 302.3C406.416 302.012 406.684 301.788 407.02 301.628C407.364 301.468 407.748 301.388 408.172 301.388C408.74 301.388 409.248 301.532 409.696 301.82C410.152 302.108 410.476 302.512 410.668 303.032L409.756 303.452C409.612 303.116 409.396 302.852 409.108 302.66C408.82 302.46 408.496 302.36 408.136 302.36C407.808 302.36 407.548 302.444 407.356 302.612C407.164 302.772 407.068 302.976 407.068 303.224C407.068 303.408 407.116 303.56 407.212 303.68C407.308 303.792 407.424 303.88 407.56 303.944C407.696 304 407.828 304.048 407.956 304.088L409.012 304.4C409.54 304.552 409.948 304.788 410.236 305.108C410.532 305.428 410.68 305.812 410.68 306.26C410.68 306.62 410.58 306.944 410.38 307.232C410.18 307.52 409.904 307.744 409.552 307.904C409.2 308.064 408.792 308.144 408.328 308.144ZM414.348 308V299.06H417.504C418.096 299.06 418.616 299.172 419.064 299.396C419.512 299.62 419.86 299.94 420.108 300.356C420.364 300.772 420.492 301.26 420.492 301.82C420.492 302.38 420.364 302.868 420.108 303.284C419.86 303.692 419.512 304.012 419.064 304.244C418.624 304.468 418.104 304.58 417.504 304.58H415.524V308H414.348ZM415.524 303.5H417.54C417.9 303.5 418.212 303.432 418.476 303.296C418.74 303.16 418.944 302.964 419.088 302.708C419.232 302.452 419.304 302.156 419.304 301.82C419.304 301.476 419.232 301.18 419.088 300.932C418.944 300.676 418.74 300.48 418.476 300.344C418.212 300.208 417.9 300.14 417.54 300.14H415.524V303.5ZM423.401 308.144C422.977 308.144 422.601 308.068 422.273 307.916C421.953 307.756 421.701 307.54 421.517 307.268C421.333 306.988 421.241 306.668 421.241 306.308C421.241 305.964 421.313 305.656 421.457 305.384C421.609 305.104 421.841 304.868 422.153 304.676C422.473 304.484 422.873 304.348 423.353 304.268L425.753 303.872V304.808L423.605 305.168C423.189 305.24 422.885 305.372 422.693 305.564C422.509 305.756 422.417 305.992 422.417 306.272C422.417 306.536 422.521 306.756 422.729 306.932C422.945 307.108 423.213 307.196 423.533 307.196C423.941 307.196 424.293 307.112 424.589 306.944C424.893 306.768 425.129 306.532 425.297 306.236C425.473 305.94 425.561 305.612 425.561 305.252V303.608C425.561 303.256 425.429 302.972 425.165 302.756C424.909 302.532 424.569 302.42 424.145 302.42C423.777 302.42 423.449 302.516 423.161 302.708C422.881 302.892 422.673 303.14 422.537 303.452L421.565 302.948C421.685 302.652 421.877 302.388 422.141 302.156C422.405 301.916 422.713 301.728 423.065 301.592C423.417 301.456 423.785 301.388 424.169 301.388C424.665 301.388 425.101 301.484 425.477 301.676C425.853 301.86 426.145 302.12 426.353 302.456C426.569 302.784 426.677 303.168 426.677 303.608V308H425.585V306.776L425.789 306.848C425.653 307.104 425.469 307.328 425.237 307.52C425.005 307.712 424.733 307.864 424.421 307.976C424.109 308.088 423.769 308.144 423.401 308.144ZM430.723 308.144C430.075 308.144 429.511 307.984 429.031 307.664C428.551 307.344 428.211 306.912 428.011 306.368L428.899 305.936C429.083 306.32 429.335 306.624 429.655 306.848C429.975 307.072 430.331 307.184 430.723 307.184C431.075 307.184 431.367 307.1 431.599 306.932C431.831 306.764 431.947 306.544 431.947 306.272C431.947 306.08 431.891 305.928 431.779 305.816C431.675 305.696 431.547 305.604 431.395 305.54C431.243 305.468 431.103 305.416 430.975 305.384L430.003 305.108C429.419 304.94 428.991 304.7 428.719 304.388C428.455 304.076 428.323 303.712 428.323 303.296C428.323 302.912 428.419 302.58 428.611 302.3C428.811 302.012 429.079 301.788 429.415 301.628C429.759 301.468 430.143 301.388 430.567 301.388C431.135 301.388 431.643 301.532 432.091 301.82C432.547 302.108 432.871 302.512 433.063 303.032L432.151 303.452C432.007 303.116 431.791 302.852 431.503 302.66C431.215 302.46 430.891 302.36 430.531 302.36C430.203 302.36 429.943 302.444 429.751 302.612C429.559 302.772 429.463 302.976 429.463 303.224C429.463 303.408 429.511 303.56 429.607 303.68C429.703 303.792 429.819 303.88 429.955 303.944C430.091 304 430.223 304.048 430.351 304.088L431.407 304.4C431.935 304.552 432.343 304.788 432.631 305.108C432.927 305.428 433.075 305.812 433.075 306.26C433.075 306.62 432.975 306.944 432.775 307.232C432.575 307.52 432.299 307.744 431.947 307.904C431.595 308.064 431.187 308.144 430.723 308.144ZM436.852 308.144C436.204 308.144 435.64 307.984 435.16 307.664C434.68 307.344 434.34 306.912 434.14 306.368L435.028 305.936C435.212 306.32 435.464 306.624 435.784 306.848C436.104 307.072 436.46 307.184 436.852 307.184C437.204 307.184 437.496 307.1 437.728 306.932C437.96 306.764 438.076 306.544 438.076 306.272C438.076 306.08 438.02 305.928 437.908 305.816C437.804 305.696 437.676 305.604 437.524 305.54C437.372 305.468 437.232 305.416 437.104 305.384L436.132 305.108C435.548 304.94 435.12 304.7 434.848 304.388C434.584 304.076 434.452 303.712 434.452 303.296C434.452 302.912 434.548 302.58 434.74 302.3C434.94 302.012 435.208 301.788 435.544 301.628C435.888 301.468 436.272 301.388 436.696 301.388C437.264 301.388 437.772 301.532 438.22 301.82C438.676 302.108 439 302.512 439.192 303.032L438.28 303.452C438.136 303.116 437.92 302.852 437.632 302.66C437.344 302.46 437.02 302.36 436.66 302.36C436.332 302.36 436.072 302.444 435.88 302.612C435.688 302.772 435.592 302.976 435.592 303.224C435.592 303.408 435.64 303.56 435.736 303.68C435.832 303.792 435.948 303.88 436.084 303.944C436.22 304 436.352 304.048 436.48 304.088L437.536 304.4C438.064 304.552 438.472 304.788 438.76 305.108C439.056 305.428 439.204 305.812 439.204 306.26C439.204 306.62 439.104 306.944 438.904 307.232C438.704 307.52 438.428 307.744 438.076 307.904C437.724 308.064 437.316 308.144 436.852 308.144ZM443.641 308.144C443.017 308.144 442.461 307.996 441.973 307.7C441.485 307.404 441.101 307 440.821 306.488C440.541 305.968 440.401 305.388 440.401 304.748C440.401 304.1 440.537 303.524 440.809 303.02C441.089 302.516 441.465 302.12 441.937 301.832C442.417 301.536 442.953 301.388 443.545 301.388C444.025 301.388 444.449 301.476 444.817 301.652C445.193 301.82 445.509 302.052 445.765 302.348C446.029 302.636 446.229 302.968 446.365 303.344C446.509 303.712 446.581 304.096 446.581 304.496C446.581 304.584 446.573 304.684 446.557 304.796C446.549 304.9 446.537 305 446.521 305.096H441.217V304.136H445.873L445.345 304.568C445.417 304.152 445.377 303.78 445.225 303.452C445.073 303.124 444.849 302.864 444.553 302.672C444.257 302.48 443.921 302.384 443.545 302.384C443.169 302.384 442.825 302.48 442.513 302.672C442.201 302.864 441.957 303.14 441.781 303.5C441.613 303.852 441.545 304.272 441.577 304.76C441.545 305.232 441.617 305.648 441.793 306.008C441.977 306.36 442.233 306.636 442.561 306.836C442.897 307.028 443.261 307.124 443.653 307.124C444.085 307.124 444.449 307.024 444.745 306.824C445.041 306.624 445.281 306.368 445.465 306.056L446.401 306.536C446.273 306.832 446.073 307.104 445.801 307.352C445.537 307.592 445.221 307.784 444.853 307.928C444.493 308.072 444.089 308.144 443.641 308.144ZM450.976 308.144C450.368 308.144 449.82 307.996 449.332 307.7C448.852 307.404 448.472 307 448.192 306.488C447.912 305.976 447.772 305.404 447.772 304.772C447.772 304.124 447.912 303.548 448.192 303.044C448.472 302.532 448.852 302.128 449.332 301.832C449.82 301.536 450.368 301.388 450.976 301.388C451.512 301.388 451.988 301.504 452.404 301.736C452.82 301.96 453.148 302.264 453.388 302.648L453.208 302.924V298.916H454.336V308H453.244V306.62L453.388 306.812C453.164 307.236 452.836 307.564 452.404 307.796C451.98 308.028 451.504 308.144 450.976 308.144ZM451.072 307.064C451.48 307.064 451.844 306.964 452.164 306.764C452.484 306.564 452.736 306.292 452.92 305.948C453.112 305.596 453.208 305.204 453.208 304.772C453.208 304.332 453.112 303.94 452.92 303.596C452.736 303.244 452.484 302.968 452.164 302.768C451.844 302.568 451.48 302.468 451.072 302.468C450.672 302.468 450.308 302.572 449.98 302.78C449.66 302.98 449.408 303.252 449.224 303.596C449.04 303.932 448.948 304.324 448.948 304.772C448.948 305.204 449.04 305.596 449.224 305.948C449.408 306.292 449.66 306.564 449.98 306.764C450.3 306.964 450.664 307.064 451.072 307.064Z" fill="white" fill-opacity="0.3"/>
<path d="M378.56 168V154.8H375.74V153.1H380.54V168H378.56ZM388.937 168.24C387.937 168.24 387.05 168.04 386.277 167.64C385.517 167.24 384.917 166.7 384.477 166.02C384.05 165.327 383.837 164.553 383.837 163.7C383.837 162.74 384.103 161.9 384.637 161.18C385.17 160.46 385.903 159.947 386.837 159.64L386.797 160.14C386.09 159.86 385.537 159.413 385.137 158.8C384.75 158.173 384.557 157.5 384.557 156.78C384.557 156.02 384.743 155.347 385.117 154.76C385.503 154.173 386.023 153.713 386.677 153.38C387.343 153.033 388.097 152.86 388.937 152.86C389.777 152.86 390.523 153.027 391.177 153.36C391.83 153.693 392.343 154.16 392.717 154.76C393.103 155.347 393.297 156.02 393.297 156.78C393.297 157.54 393.09 158.22 392.677 158.82C392.277 159.42 391.743 159.867 391.077 160.16L391.017 159.64C391.963 159.947 392.703 160.467 393.237 161.2C393.77 161.92 394.037 162.753 394.037 163.7C394.037 164.553 393.817 165.327 393.377 166.02C392.95 166.7 392.35 167.24 391.577 167.64C390.817 168.04 389.937 168.24 388.937 168.24ZM388.937 166.54C389.563 166.54 390.11 166.42 390.577 166.18C391.043 165.94 391.403 165.607 391.657 165.18C391.923 164.74 392.057 164.24 392.057 163.68C392.057 163.107 391.923 162.607 391.657 162.18C391.403 161.74 391.043 161.407 390.577 161.18C390.11 160.94 389.563 160.82 388.937 160.82C388.31 160.82 387.757 160.94 387.277 161.18C386.81 161.407 386.45 161.74 386.197 162.18C385.943 162.607 385.817 163.107 385.817 163.68C385.817 164.24 385.943 164.74 386.197 165.18C386.45 165.607 386.81 165.94 387.277 166.18C387.757 166.42 388.31 166.54 388.937 166.54ZM388.937 159.12C389.39 159.12 389.79 159.02 390.137 158.82C390.497 158.62 390.783 158.353 390.997 158.02C391.21 157.673 391.317 157.273 391.317 156.82C391.317 156.367 391.21 155.973 390.997 155.64C390.783 155.307 390.497 155.047 390.137 154.86C389.79 154.66 389.39 154.56 388.937 154.56C388.47 154.56 388.057 154.66 387.697 154.86C387.337 155.047 387.05 155.307 386.837 155.64C386.623 155.973 386.517 156.367 386.517 156.82C386.517 157.273 386.623 157.673 386.837 158.02C387.05 158.353 387.337 158.62 387.697 158.82C388.057 159.02 388.47 159.12 388.937 159.12ZM396.655 168V152.86H398.515V159.32L398.175 159.14C398.442 158.46 398.868 157.933 399.455 157.56C400.055 157.173 400.755 156.98 401.555 156.98C402.328 156.98 403.015 157.153 403.615 157.5C404.228 157.847 404.708 158.327 405.055 158.94C405.415 159.553 405.595 160.247 405.595 161.02V168H403.715V161.62C403.715 161.02 403.602 160.513 403.375 160.1C403.162 159.687 402.862 159.367 402.475 159.14C402.088 158.9 401.642 158.78 401.135 158.78C400.642 158.78 400.195 158.9 399.795 159.14C399.395 159.367 399.082 159.693 398.855 160.12C398.628 160.533 398.515 161.033 398.515 161.62V168H396.655Z" fill="white"/>
<path d="M377.56 258V244.8H374.74V243.1H379.54V258H377.56ZM387.637 258.24C386.863 258.24 386.137 258.107 385.457 257.84C384.777 257.56 384.183 257.167 383.677 256.66C383.183 256.14 382.823 255.533 382.597 254.84L384.197 254.16C384.477 254.893 384.93 255.467 385.557 255.88C386.197 256.28 386.89 256.48 387.637 256.48C388.25 256.48 388.79 256.347 389.257 256.08C389.737 255.8 390.11 255.42 390.377 254.94C390.643 254.447 390.777 253.9 390.777 253.3C390.777 252.673 390.637 252.12 390.357 251.64C390.09 251.16 389.723 250.787 389.257 250.52C388.79 250.24 388.257 250.1 387.657 250.1C387.043 250.1 386.483 250.24 385.977 250.52C385.47 250.8 385.103 251.153 384.877 251.58L383.297 251.24L384.437 243.1H392.157V244.8H385.177L385.937 244.04L385.057 250.36L384.377 249.96C384.817 249.4 385.33 249 385.917 248.76C386.517 248.507 387.163 248.38 387.857 248.38C388.83 248.38 389.683 248.6 390.417 249.04C391.15 249.48 391.723 250.067 392.137 250.8C392.55 251.533 392.757 252.367 392.757 253.3C392.757 254.233 392.53 255.073 392.077 255.82C391.637 256.567 391.03 257.16 390.257 257.6C389.497 258.027 388.623 258.24 387.637 258.24ZM395.401 258V242.86H397.261V249.32L396.921 249.14C397.188 248.46 397.614 247.933 398.201 247.56C398.801 247.173 399.501 246.98 400.301 246.98C401.074 246.98 401.761 247.153 402.361 247.5C402.974 247.847 403.454 248.327 403.801 248.94C404.161 249.553 404.341 250.247 404.341 251.02V258H402.461V251.62C402.461 251.02 402.348 250.513 402.121 250.1C401.908 249.687 401.608 249.367 401.221 249.14C400.834 248.9 400.388 248.78 399.881 248.78C399.388 248.78 398.941 248.9 398.541 249.14C398.141 249.367 397.828 249.693 397.601 250.12C397.374 250.533 397.261 251.033 397.261 251.62V258H395.401Z" fill="white"/>
<path d="M376.08 348V346.64L380.2 342.18C381.013 341.313 381.66 340.6 382.14 340.04C382.633 339.48 382.993 338.98 383.22 338.54C383.447 338.1 383.56 337.633 383.56 337.14C383.56 336.327 383.32 335.7 382.84 335.26C382.36 334.82 381.727 334.6 380.94 334.6C380.14 334.6 379.46 334.833 378.9 335.3C378.34 335.753 377.953 336.4 377.74 337.24L375.96 336.78C376.133 335.98 376.453 335.287 376.92 334.7C377.387 334.113 377.967 333.66 378.66 333.34C379.353 333.02 380.113 332.86 380.94 332.86C381.847 332.86 382.64 333.04 383.32 333.4C384.013 333.747 384.553 334.233 384.94 334.86C385.34 335.487 385.54 336.213 385.54 337.04C385.54 337.587 385.427 338.12 385.2 338.64C384.973 339.16 384.64 339.713 384.2 340.3C383.76 340.873 383.187 341.54 382.48 342.3L378.8 346.3H385.86V348H376.08ZM388.413 348V332.86H390.273V339.32L389.933 339.14C390.199 338.46 390.626 337.933 391.213 337.56C391.813 337.173 392.513 336.98 393.313 336.98C394.086 336.98 394.773 337.153 395.373 337.5C395.986 337.847 396.466 338.327 396.813 338.94C397.173 339.553 397.353 340.247 397.353 341.02V348H395.473V341.62C395.473 341.02 395.359 340.513 395.133 340.1C394.919 339.687 394.619 339.367 394.233 339.14C393.846 338.9 393.399 338.78 392.893 338.78C392.399 338.78 391.953 338.9 391.553 339.14C391.153 339.367 390.839 339.693 390.613 340.12C390.386 340.533 390.273 341.033 390.273 341.62V348H388.413Z" fill="white"/>
<path d="M26.18 45V32.2H22.22V30.1H32.42V32.2H28.52V45H26.18ZM35.8131 45.24C35.0798 45.24 34.4331 45.1133 33.8731 44.86C33.3265 44.5933 32.8998 44.2333 32.5931 43.78C32.2865 43.3133 32.1331 42.7667 32.1331 42.14C32.1331 41.5533 32.2598 41.0267 32.5131 40.56C32.7798 40.0933 33.1865 39.7 33.7331 39.38C34.2798 39.06 34.9665 38.8333 35.7931 38.7L39.5531 38.08V39.86L36.2331 40.44C35.6331 40.5467 35.1931 40.74 34.9131 41.02C34.6331 41.2867 34.4931 41.6333 34.4931 42.06C34.4931 42.4733 34.6465 42.8133 34.9531 43.08C35.2731 43.3333 35.6798 43.46 36.1731 43.46C36.7865 43.46 37.3198 43.3267 37.7731 43.06C38.2398 42.7933 38.5998 42.44 38.8531 42C39.1065 41.5467 39.2331 41.0467 39.2331 40.5V37.72C39.2331 37.1867 39.0331 36.7533 38.6331 36.42C38.2465 36.0733 37.7265 35.9 37.0731 35.9C36.4731 35.9 35.9465 36.06 35.4931 36.38C35.0531 36.6867 34.7265 37.0867 34.5131 37.58L32.6331 36.64C32.8331 36.1067 33.1598 35.64 33.6131 35.24C34.0665 34.8267 34.5931 34.5067 35.1931 34.28C35.8065 34.0533 36.4531 33.94 37.1331 33.94C37.9865 33.94 38.7398 34.1 39.3931 34.42C40.0598 34.74 40.5731 35.1867 40.9331 35.76C41.3065 36.32 41.4931 36.9733 41.4931 37.72V45H39.3331V43.04L39.7931 43.1C39.5398 43.54 39.2131 43.92 38.8131 44.24C38.4265 44.56 37.9798 44.8067 37.4731 44.98C36.9798 45.1533 36.4265 45.24 35.8131 45.24ZM47.9356 45.24C46.829 45.24 45.8556 44.9667 45.0156 44.42C44.189 43.8733 43.609 43.14 43.2756 42.22L45.0156 41.4C45.309 42.0133 45.709 42.5 46.2156 42.86C46.7356 43.22 47.309 43.4 47.9356 43.4C48.469 43.4 48.9023 43.28 49.2356 43.04C49.569 42.8 49.7356 42.4733 49.7356 42.06C49.7356 41.7933 49.6623 41.58 49.5156 41.42C49.369 41.2467 49.1823 41.1067 48.9556 41C48.7423 40.8933 48.5223 40.8133 48.2956 40.76L46.5956 40.28C45.6623 40.0133 44.9623 39.6133 44.4956 39.08C44.0423 38.5333 43.8156 37.9 43.8156 37.18C43.8156 36.5267 43.9823 35.96 44.3156 35.48C44.649 34.9867 45.109 34.6067 45.6956 34.34C46.2823 34.0733 46.9423 33.94 47.6756 33.94C48.6623 33.94 49.5423 34.1867 50.3156 34.68C51.089 35.16 51.6356 35.8333 51.9556 36.7L50.2156 37.52C50.0023 37 49.6623 36.5867 49.1956 36.28C48.7423 35.9733 48.229 35.82 47.6556 35.82C47.1623 35.82 46.769 35.94 46.4756 36.18C46.1823 36.4067 46.0356 36.7067 46.0356 37.08C46.0356 37.3333 46.1023 37.5467 46.2356 37.72C46.369 37.88 46.5423 38.0133 46.7556 38.12C46.969 38.2133 47.189 38.2933 47.4156 38.36L49.1756 38.88C50.069 39.1333 50.7556 39.5333 51.2356 40.08C51.7156 40.6133 51.9556 41.2533 51.9556 42C51.9556 42.64 51.7823 43.2067 51.4356 43.7C51.1023 44.18 50.6356 44.56 50.0356 44.84C49.4356 45.1067 48.7356 45.24 47.9356 45.24ZM53.97 45V29.86H56.23V40L55.35 39.78L60.77 34.18H63.59L59.51 38.52L63.77 45H61.17L57.37 39.26L58.71 39.08L55.51 42.48L56.23 40.98V45H53.97ZM69.1177 45.24C68.011 45.24 67.0377 44.9667 66.1977 44.42C65.371 43.8733 64.791 43.14 64.4577 42.22L66.1977 41.4C66.491 42.0133 66.891 42.5 67.3977 42.86C67.9177 43.22 68.491 43.4 69.1177 43.4C69.651 43.4 70.0843 43.28 70.4177 43.04C70.751 42.8 70.9177 42.4733 70.9177 42.06C70.9177 41.7933 70.8443 41.58 70.6977 41.42C70.551 41.2467 70.3643 41.1067 70.1377 41C69.9243 40.8933 69.7043 40.8133 69.4777 40.76L67.7777 40.28C66.8443 40.0133 66.1443 39.6133 65.6777 39.08C65.2243 38.5333 64.9977 37.9 64.9977 37.18C64.9977 36.5267 65.1643 35.96 65.4977 35.48C65.831 34.9867 66.291 34.6067 66.8777 34.34C67.4643 34.0733 68.1243 33.94 68.8577 33.94C69.8443 33.94 70.7243 34.1867 71.4977 34.68C72.271 35.16 72.8177 35.8333 73.1377 36.7L71.3977 37.52C71.1843 37 70.8443 36.5867 70.3777 36.28C69.9243 35.9733 69.411 35.82 68.8377 35.82C68.3443 35.82 67.951 35.94 67.6577 36.18C67.3643 36.4067 67.2177 36.7067 67.2177 37.08C67.2177 37.3333 67.2843 37.5467 67.4177 37.72C67.551 37.88 67.7243 38.0133 67.9377 38.12C68.151 38.2133 68.371 38.2933 68.5977 38.36L70.3577 38.88C71.251 39.1333 71.9377 39.5333 72.4177 40.08C72.8977 40.6133 73.1377 41.2533 73.1377 42C73.1377 42.64 72.9643 43.2067 72.6177 43.7C72.2843 44.18 71.8177 44.56 71.2177 44.84C70.6177 45.1067 69.9177 45.24 69.1177 45.24ZM78.6681 45V30.1H84.0881C85.0881 30.1 85.9681 30.2867 86.7281 30.66C87.5015 31.02 88.1015 31.5533 88.5281 32.26C88.9548 32.9533 89.1681 33.7867 89.1681 34.76C89.1681 35.72 88.9481 36.5467 88.5081 37.24C88.0815 37.9333 87.4881 38.4667 86.7281 38.84C85.9681 39.2133 85.0881 39.4 84.0881 39.4H81.0281V45H78.6681ZM81.0281 37.3H84.1481C84.6815 37.3 85.1481 37.1933 85.5481 36.98C85.9481 36.7667 86.2615 36.4733 86.4881 36.1C86.7148 35.7133 86.8281 35.26 86.8281 34.74C86.8281 34.22 86.7148 33.7733 86.4881 33.4C86.2615 33.0133 85.9481 32.72 85.5481 32.52C85.1481 32.3067 84.6815 32.2 84.1481 32.2H81.0281V37.3ZM91.1778 45V34.18H93.3378V36.36L93.1378 36.04C93.3778 35.3333 93.7645 34.8267 94.2978 34.52C94.8311 34.2 95.4711 34.04 96.2178 34.04H96.8778V36.1H95.9378C95.1911 36.1 94.5845 36.3333 94.1178 36.8C93.6645 37.2533 93.4378 37.9067 93.4378 38.76V45H91.1778ZM103.444 45.24C102.404 45.24 101.451 44.9933 100.584 44.5C99.7306 44.0067 99.0506 43.3333 98.5439 42.48C98.0372 41.6267 97.7839 40.66 97.7839 39.58C97.7839 38.4867 98.0372 37.52 98.5439 36.68C99.0506 35.8267 99.7306 35.16 100.584 34.68C101.437 34.1867 102.391 33.94 103.444 33.94C104.511 33.94 105.464 34.1867 106.304 34.68C107.157 35.16 107.831 35.8267 108.324 36.68C108.831 37.52 109.084 38.4867 109.084 39.58C109.084 40.6733 108.831 41.6467 108.324 42.5C107.817 43.3533 107.137 44.0267 106.284 44.52C105.431 45 104.484 45.24 103.444 45.24ZM103.444 43.14C104.084 43.14 104.651 42.9867 105.144 42.68C105.637 42.3733 106.024 41.9533 106.304 41.42C106.597 40.8733 106.744 40.26 106.744 39.58C106.744 38.9 106.597 38.2933 106.304 37.76C106.024 37.2267 105.637 36.8067 105.144 36.5C104.651 36.1933 104.084 36.04 103.444 36.04C102.817 36.04 102.251 36.1933 101.744 36.5C101.251 36.8067 100.857 37.2267 100.564 37.76C100.284 38.2933 100.144 38.9 100.144 39.58C100.144 40.26 100.284 40.8733 100.564 41.42C100.857 41.9533 101.251 42.3733 101.744 42.68C102.251 42.9867 102.817 43.14 103.444 43.14ZM116.31 49.4C115.524 49.4 114.797 49.2733 114.13 49.02C113.464 48.7667 112.89 48.4133 112.41 47.96C111.93 47.52 111.57 47 111.33 46.4L113.41 45.54C113.597 46.0467 113.937 46.4667 114.43 46.8C114.937 47.1333 115.557 47.3 116.29 47.3C116.864 47.3 117.377 47.1867 117.83 46.96C118.284 46.7467 118.644 46.4267 118.91 46C119.177 45.5867 119.31 45.0867 119.31 44.5V42.06L119.71 42.52C119.337 43.2133 118.817 43.74 118.15 44.1C117.497 44.46 116.757 44.64 115.93 44.64C114.93 44.64 114.03 44.4067 113.23 43.94C112.43 43.4733 111.797 42.8333 111.33 42.02C110.877 41.2067 110.65 40.2933 110.65 39.28C110.65 38.2533 110.877 37.34 111.33 36.54C111.797 35.74 112.424 35.1067 113.21 34.64C113.997 34.1733 114.897 33.94 115.91 33.94C116.737 33.94 117.47 34.12 118.11 34.48C118.764 34.8267 119.297 35.3333 119.71 36L119.41 36.56V34.18H121.55V44.5C121.55 45.4333 121.324 46.2667 120.87 47C120.43 47.7467 119.817 48.3333 119.03 48.76C118.244 49.1867 117.337 49.4 116.31 49.4ZM116.19 42.54C116.79 42.54 117.324 42.4 117.79 42.12C118.257 41.8267 118.624 41.44 118.89 40.96C119.17 40.4667 119.31 39.9133 119.31 39.3C119.31 38.6867 119.17 38.1333 118.89 37.64C118.61 37.1467 118.237 36.76 117.77 36.48C117.304 36.1867 116.777 36.04 116.19 36.04C115.577 36.04 115.03 36.1867 114.55 36.48C114.07 36.76 113.69 37.1467 113.41 37.64C113.144 38.12 113.01 38.6733 113.01 39.3C113.01 39.9 113.144 40.4467 113.41 40.94C113.69 41.4333 114.07 41.8267 114.55 42.12C115.03 42.4 115.577 42.54 116.19 42.54ZM123.996 45V34.18H126.156V36.36L125.956 36.04C126.196 35.3333 126.582 34.8267 127.116 34.52C127.649 34.2 128.289 34.04 129.036 34.04H129.696V36.1H128.756C128.009 36.1 127.402 36.3333 126.936 36.8C126.482 37.2533 126.256 37.9067 126.256 38.76V45H123.996ZM136.122 45.24C135.042 45.24 134.082 44.9933 133.242 44.5C132.415 43.9933 131.769 43.3133 131.302 42.46C130.835 41.5933 130.602 40.6267 130.602 39.56C130.602 38.4667 130.835 37.5 131.302 36.66C131.782 35.82 132.422 35.16 133.222 34.68C134.022 34.1867 134.929 33.94 135.942 33.94C136.755 33.94 137.482 34.08 138.122 34.36C138.762 34.64 139.302 35.0267 139.742 35.52C140.182 36 140.515 36.5533 140.742 37.18C140.982 37.8067 141.102 38.4733 141.102 39.18C141.102 39.3533 141.095 39.5333 141.082 39.72C141.069 39.9067 141.042 40.08 141.002 40.24H132.382V38.44H139.722L138.642 39.26C138.775 38.6067 138.729 38.0267 138.502 37.52C138.289 37 137.955 36.5933 137.502 36.3C137.062 35.9933 136.542 35.84 135.942 35.84C135.342 35.84 134.809 35.9933 134.342 36.3C133.875 36.5933 133.515 37.02 133.262 37.58C133.009 38.1267 132.909 38.7933 132.962 39.58C132.895 40.3133 132.995 40.9533 133.262 41.5C133.542 42.0467 133.929 42.4733 134.422 42.78C134.929 43.0867 135.502 43.24 136.142 43.24C136.795 43.24 137.349 43.0933 137.802 42.8C138.269 42.5067 138.635 42.1267 138.902 41.66L140.742 42.56C140.529 43.0667 140.195 43.5267 139.742 43.94C139.302 44.34 138.769 44.66 138.142 44.9C137.529 45.1267 136.855 45.24 136.122 45.24ZM147.107 45.24C146.001 45.24 145.027 44.9667 144.187 44.42C143.361 43.8733 142.781 43.14 142.447 42.22L144.187 41.4C144.481 42.0133 144.881 42.5 145.387 42.86C145.907 43.22 146.481 43.4 147.107 43.4C147.641 43.4 148.074 43.28 148.407 43.04C148.741 42.8 148.907 42.4733 148.907 42.06C148.907 41.7933 148.834 41.58 148.687 41.42C148.541 41.2467 148.354 41.1067 148.127 41C147.914 40.8933 147.694 40.8133 147.467 40.76L145.767 40.28C144.834 40.0133 144.134 39.6133 143.667 39.08C143.214 38.5333 142.987 37.9 142.987 37.18C142.987 36.5267 143.154 35.96 143.487 35.48C143.821 34.9867 144.281 34.6067 144.867 34.34C145.454 34.0733 146.114 33.94 146.847 33.94C147.834 33.94 148.714 34.1867 149.487 34.68C150.261 35.16 150.807 35.8333 151.127 36.7L149.387 37.52C149.174 37 148.834 36.5867 148.367 36.28C147.914 35.9733 147.401 35.82 146.827 35.82C146.334 35.82 145.941 35.94 145.647 36.18C145.354 36.4067 145.207 36.7067 145.207 37.08C145.207 37.3333 145.274 37.5467 145.407 37.72C145.541 37.88 145.714 38.0133 145.927 38.12C146.141 38.2133 146.361 38.2933 146.587 38.36L148.347 38.88C149.241 39.1333 149.927 39.5333 150.407 40.08C150.887 40.6133 151.127 41.2533 151.127 42C151.127 42.64 150.954 43.2067 150.607 43.7C150.274 44.18 149.807 44.56 149.207 44.84C148.607 45.1067 147.907 45.24 147.107 45.24ZM157.142 45.24C156.035 45.24 155.062 44.9667 154.222 44.42C153.395 43.8733 152.815 43.14 152.482 42.22L154.222 41.4C154.515 42.0133 154.915 42.5 155.422 42.86C155.942 43.22 156.515 43.4 157.142 43.4C157.675 43.4 158.109 43.28 158.442 43.04C158.775 42.8 158.942 42.4733 158.942 42.06C158.942 41.7933 158.869 41.58 158.722 41.42C158.575 41.2467 158.389 41.1067 158.162 41C157.949 40.8933 157.729 40.8133 157.502 40.76L155.802 40.28C154.869 40.0133 154.169 39.6133 153.702 39.08C153.249 38.5333 153.022 37.9 153.022 37.18C153.022 36.5267 153.189 35.96 153.522 35.48C153.855 34.9867 154.315 34.6067 154.902 34.34C155.489 34.0733 156.149 33.94 156.882 33.94C157.869 33.94 158.749 34.1867 159.522 34.68C160.295 35.16 160.842 35.8333 161.162 36.7L159.422 37.52C159.209 37 158.869 36.5867 158.402 36.28C157.949 35.9733 157.435 35.82 156.862 35.82C156.369 35.82 155.975 35.94 155.682 36.18C155.389 36.4067 155.242 36.7067 155.242 37.08C155.242 37.3333 155.309 37.5467 155.442 37.72C155.575 37.88 155.749 38.0133 155.962 38.12C156.175 38.2133 156.395 38.2933 156.622 38.36L158.382 38.88C159.275 39.1333 159.962 39.5333 160.442 40.08C160.922 40.6133 161.162 41.2533 161.162 42C161.162 42.64 160.989 43.2067 160.642 43.7C160.309 44.18 159.842 44.56 159.242 44.84C158.642 45.1067 157.942 45.24 157.142 45.24Z" fill="white"/>
<rect x="72" y="94" width="14" height="275" rx="5" fill="#1F2147"/>
<rect x="116" y="94" width="14" height="275" rx="5" fill="#1F2147"/>
<rect x="160" y="94" width="14" height="275" rx="5" fill="#1F2147"/>
<rect x="204" y="94" width="14" height="275" rx="5" fill="#1F2147"/>
<rect x="248" y="94" width="14" height="275" rx="5" fill="#1F2147"/>
<rect x="292" y="94" width="14" height="275" rx="5" fill="#1F2147"/>
<rect x="336" y="94" width="14" height="275" rx="5" fill="#1F2147"/>
<rect x="72" y="286" width="14" height="83" rx="5" fill="#591DDD"/>
<rect x="116" y="158" width="14" height="211" rx="5" fill="#C927AC"/>
<rect x="160" y="202" width="14" height="167" rx="7" fill="#591DDD"/>
<rect x="204" y="281" width="14" height="88" rx="5" fill="#591DDD"/>
<rect x="248" y="232" width="14" height="137" rx="5" fill="#591DDD"/>
<rect x="292" y="182" width="14" height="187" rx="5" fill="#591DDD"/>
<rect x="336" y="281" width="14" height="88" rx="5" fill="#591DDD"/>
<rect x="360" y="28" width="121" height="37" rx="10" fill="#1E2047"/>
<path d="M380.08 52L377.154 41.57H378.596L381.046 50.754H380.71L383.258 41.57H384.7L387.234 50.754H386.884L389.348 41.57H390.79L387.864 52H386.338L383.79 42.858H384.154L381.606 52H380.08ZM394.906 52.168C394.178 52.168 393.529 51.9953 392.96 51.65C392.39 51.3047 391.942 50.8333 391.616 50.236C391.289 49.6293 391.126 48.9527 391.126 48.206C391.126 47.45 391.284 46.778 391.602 46.19C391.928 45.602 392.367 45.14 392.918 44.804C393.478 44.4587 394.103 44.286 394.794 44.286C395.354 44.286 395.848 44.3887 396.278 44.594C396.716 44.79 397.085 45.0607 397.384 45.406C397.692 45.742 397.925 46.1293 398.084 46.568C398.252 46.9973 398.336 47.4453 398.336 47.912C398.336 48.0147 398.326 48.1313 398.308 48.262C398.298 48.3833 398.284 48.5 398.266 48.612H392.078V47.492H397.51L396.894 47.996C396.978 47.5107 396.931 47.0767 396.754 46.694C396.576 46.3113 396.315 46.008 395.97 45.784C395.624 45.56 395.232 45.448 394.794 45.448C394.355 45.448 393.954 45.56 393.59 45.784C393.226 46.008 392.941 46.33 392.736 46.75C392.54 47.1607 392.46 47.6507 392.498 48.22C392.46 48.7707 392.544 49.256 392.75 49.676C392.964 50.0867 393.263 50.4087 393.646 50.642C394.038 50.866 394.462 50.978 394.92 50.978C395.424 50.978 395.848 50.8613 396.194 50.628C396.539 50.3947 396.819 50.096 397.034 49.732L398.126 50.292C397.976 50.6373 397.743 50.9547 397.426 51.244C397.118 51.524 396.749 51.748 396.32 51.916C395.9 52.084 395.428 52.168 394.906 52.168ZM403.505 52.168C402.777 52.168 402.129 51.9953 401.559 51.65C400.99 51.3047 400.542 50.8333 400.215 50.236C399.889 49.6293 399.725 48.9527 399.725 48.206C399.725 47.45 399.884 46.778 400.201 46.19C400.528 45.602 400.967 45.14 401.517 44.804C402.077 44.4587 402.703 44.286 403.393 44.286C403.953 44.286 404.448 44.3887 404.877 44.594C405.316 44.79 405.685 45.0607 405.983 45.406C406.291 45.742 406.525 46.1293 406.683 46.568C406.851 46.9973 406.935 47.4453 406.935 47.912C406.935 48.0147 406.926 48.1313 406.907 48.262C406.898 48.3833 406.884 48.5 406.865 48.612H400.677V47.492H406.109L405.493 47.996C405.577 47.5107 405.531 47.0767 405.353 46.694C405.176 46.3113 404.915 46.008 404.569 45.784C404.224 45.56 403.832 45.448 403.393 45.448C402.955 45.448 402.553 45.56 402.189 45.784C401.825 46.008 401.541 46.33 401.335 46.75C401.139 47.1607 401.06 47.6507 401.097 48.22C401.06 48.7707 401.144 49.256 401.349 49.676C401.564 50.0867 401.863 50.4087 402.245 50.642C402.637 50.866 403.062 50.978 403.519 50.978C404.023 50.978 404.448 50.8613 404.793 50.628C405.139 50.3947 405.419 50.096 405.633 49.732L406.725 50.292C406.576 50.6373 406.343 50.9547 406.025 51.244C405.717 51.524 405.349 51.748 404.919 51.916C404.499 52.084 404.028 52.168 403.505 52.168ZM408.633 52V41.402H409.935V48.668L409.403 48.542L413.407 44.454H415.073L412.175 47.492L415.269 52H413.729L410.901 47.912L411.713 47.87L409.515 50.166L409.935 49.214V52H408.633ZM416.44 52V41.402H417.742V52H416.44ZM420.168 55.08C420 55.08 419.832 55.066 419.664 55.038C419.496 55.0193 419.337 54.9773 419.188 54.912V53.75C419.291 53.7593 419.417 53.778 419.566 53.806C419.725 53.834 419.879 53.848 420.028 53.848C420.467 53.848 420.798 53.75 421.022 53.554C421.255 53.358 421.475 53.0267 421.68 52.56L422.156 51.426L422.128 52.56L418.908 44.454H420.322L422.828 50.894H422.408L424.9 44.454H426.342L422.94 52.896C422.781 53.2973 422.576 53.666 422.324 54.002C422.081 54.338 421.783 54.5993 421.428 54.786C421.073 54.982 420.653 55.08 420.168 55.08Z" fill="#FFFBFB" fill-opacity="0.6"/>
<path d="M468 45L463.5 50L459 45" stroke="white" stroke-opacity="0.6" stroke-width="1.5" stroke-linecap="square"/>
<rect x="416.5" y="148.5" width="59" height="23" rx="9.5" fill="#0B3235" stroke="#0A4F3F"/>
<rect x="416.5" y="237.5" width="59" height="24" rx="9.5" fill="#0B3235" stroke="#0A4F3F"/>
<rect x="416.5" y="329.5" width="59" height="24" rx="9.5" fill="#0B3235" stroke="#0A4F3F"/>
<path d="M432.136 165V157.08H430.444V156.06H433.324V165H432.136ZM435.23 165V164.184L437.702 161.508C438.19 160.988 438.578 160.56 438.866 160.224C439.162 159.888 439.378 159.588 439.514 159.324C439.65 159.06 439.718 158.78 439.718 158.484C439.718 157.996 439.574 157.62 439.286 157.356C438.998 157.092 438.618 156.96 438.146 156.96C437.666 156.96 437.258 157.1 436.922 157.38C436.586 157.652 436.354 158.04 436.226 158.544L435.158 158.268C435.262 157.788 435.454 157.372 435.734 157.02C436.014 156.668 436.362 156.396 436.778 156.204C437.194 156.012 437.65 155.916 438.146 155.916C438.69 155.916 439.166 156.024 439.574 156.24C439.99 156.448 440.314 156.74 440.546 157.116C440.786 157.492 440.906 157.928 440.906 158.424C440.906 158.752 440.838 159.072 440.702 159.384C440.566 159.696 440.366 160.028 440.102 160.38C439.838 160.724 439.494 161.124 439.07 161.58L436.862 163.98H441.098V165H435.23ZM446.122 165.144C445.41 165.144 444.786 164.952 444.25 164.568C443.722 164.176 443.31 163.636 443.014 162.948C442.718 162.252 442.57 161.444 442.57 160.524C442.57 159.604 442.718 158.8 443.014 158.112C443.31 157.416 443.722 156.876 444.25 156.492C444.778 156.108 445.398 155.916 446.11 155.916C446.822 155.916 447.442 156.108 447.97 156.492C448.498 156.876 448.91 157.416 449.206 158.112C449.51 158.8 449.662 159.604 449.662 160.524C449.662 161.444 449.514 162.252 449.218 162.948C448.922 163.644 448.506 164.184 447.97 164.568C447.442 164.952 446.826 165.144 446.122 165.144ZM446.122 164.052C446.602 164.052 447.018 163.908 447.37 163.62C447.722 163.324 447.994 162.912 448.186 162.384C448.386 161.856 448.486 161.236 448.486 160.524C448.486 159.812 448.386 159.192 448.186 158.664C447.994 158.136 447.718 157.728 447.358 157.44C447.006 157.152 446.59 157.008 446.11 157.008C445.63 157.008 445.214 157.152 444.862 157.44C444.51 157.728 444.234 158.136 444.034 158.664C443.842 159.192 443.746 159.812 443.746 160.524C443.746 161.228 443.842 161.844 444.034 162.372C444.234 162.9 444.51 163.312 444.862 163.608C445.222 163.904 445.642 164.052 446.122 164.052ZM452.165 165L459.461 156.06H460.793L453.497 165H452.165ZM453.509 160.596C453.069 160.596 452.673 160.492 452.321 160.284C451.969 160.068 451.685 159.784 451.469 159.432C451.261 159.08 451.157 158.688 451.157 158.256C451.157 157.824 451.261 157.432 451.469 157.08C451.685 156.72 451.969 156.436 452.321 156.228C452.673 156.02 453.069 155.916 453.509 155.916C453.941 155.916 454.333 156.02 454.685 156.228C455.037 156.436 455.317 156.72 455.525 157.08C455.733 157.432 455.837 157.824 455.837 158.256C455.837 158.688 455.733 159.08 455.525 159.432C455.317 159.784 455.037 160.068 454.685 160.284C454.333 160.492 453.941 160.596 453.509 160.596ZM453.497 159.612C453.769 159.612 454.001 159.548 454.193 159.42C454.385 159.292 454.537 159.124 454.649 158.916C454.761 158.708 454.817 158.488 454.817 158.256C454.817 158.016 454.761 157.796 454.649 157.596C454.537 157.388 454.385 157.22 454.193 157.092C454.001 156.956 453.769 156.888 453.497 156.888C453.241 156.888 453.013 156.956 452.813 157.092C452.613 157.22 452.457 157.388 452.345 157.596C452.233 157.804 452.177 158.024 452.177 158.256C452.177 158.48 452.233 158.7 452.345 158.916C452.457 159.124 452.613 159.292 452.813 159.42C453.013 159.548 453.241 159.612 453.497 159.612ZM459.377 165.144C458.937 165.144 458.541 165.04 458.189 164.832C457.837 164.616 457.553 164.332 457.337 163.98C457.129 163.628 457.025 163.236 457.025 162.804C457.025 162.372 457.129 161.98 457.337 161.628C457.553 161.268 457.837 160.984 458.189 160.776C458.541 160.568 458.937 160.464 459.377 160.464C459.809 160.464 460.201 160.568 460.553 160.776C460.905 160.984 461.185 161.268 461.393 161.628C461.601 161.98 461.705 162.372 461.705 162.804C461.705 163.236 461.601 163.628 461.393 163.98C461.185 164.332 460.905 164.616 460.553 164.832C460.201 165.04 459.809 165.144 459.377 165.144ZM459.377 164.16C459.641 164.16 459.869 164.096 460.061 163.968C460.261 163.84 460.413 163.672 460.517 163.464C460.629 163.256 460.685 163.036 460.685 162.804C460.685 162.564 460.629 162.344 460.517 162.144C460.413 161.936 460.261 161.768 460.061 161.64C459.869 161.504 459.641 161.436 459.377 161.436C459.121 161.436 458.889 161.504 458.681 161.64C458.481 161.768 458.325 161.936 458.213 162.144C458.101 162.352 458.045 162.572 458.045 162.804C458.045 163.028 458.101 163.248 458.213 163.464C458.325 163.672 458.481 163.84 458.681 163.968C458.889 164.096 459.121 164.16 459.377 164.16Z" fill="white"/>
<path d="M430.136 254V246.08H428.444V245.06H431.324V254H430.136ZM433.23 254V253.184L435.702 250.508C436.19 249.988 436.578 249.56 436.866 249.224C437.162 248.888 437.378 248.588 437.514 248.324C437.65 248.06 437.718 247.78 437.718 247.484C437.718 246.996 437.574 246.62 437.286 246.356C436.998 246.092 436.618 245.96 436.146 245.96C435.666 245.96 435.258 246.1 434.922 246.38C434.586 246.652 434.354 247.04 434.226 247.544L433.158 247.268C433.262 246.788 433.454 246.372 433.734 246.02C434.014 245.668 434.362 245.396 434.778 245.204C435.194 245.012 435.65 244.916 436.146 244.916C436.69 244.916 437.166 245.024 437.574 245.24C437.99 245.448 438.314 245.74 438.546 246.116C438.786 246.492 438.906 246.928 438.906 247.424C438.906 247.752 438.838 248.072 438.702 248.384C438.566 248.696 438.366 249.028 438.102 249.38C437.838 249.724 437.494 250.124 437.07 250.58L434.862 252.98H439.098V254H433.23ZM444.122 254.144C443.41 254.144 442.786 253.952 442.25 253.568C441.722 253.176 441.31 252.636 441.014 251.948C440.718 251.252 440.57 250.444 440.57 249.524C440.57 248.604 440.718 247.8 441.014 247.112C441.31 246.416 441.722 245.876 442.25 245.492C442.778 245.108 443.398 244.916 444.11 244.916C444.822 244.916 445.442 245.108 445.97 245.492C446.498 245.876 446.91 246.416 447.206 247.112C447.51 247.8 447.662 248.604 447.662 249.524C447.662 250.444 447.514 251.252 447.218 251.948C446.922 252.644 446.506 253.184 445.97 253.568C445.442 253.952 444.826 254.144 444.122 254.144ZM444.122 253.052C444.602 253.052 445.018 252.908 445.37 252.62C445.722 252.324 445.994 251.912 446.186 251.384C446.386 250.856 446.486 250.236 446.486 249.524C446.486 248.812 446.386 248.192 446.186 247.664C445.994 247.136 445.718 246.728 445.358 246.44C445.006 246.152 444.59 246.008 444.11 246.008C443.63 246.008 443.214 246.152 442.862 246.44C442.51 246.728 442.234 247.136 442.034 247.664C441.842 248.192 441.746 248.812 441.746 249.524C441.746 250.228 441.842 250.844 442.034 251.372C442.234 251.9 442.51 252.312 442.862 252.608C443.222 252.904 443.642 253.052 444.122 253.052ZM450.165 254L457.461 245.06H458.793L451.497 254H450.165ZM451.509 249.596C451.069 249.596 450.673 249.492 450.321 249.284C449.969 249.068 449.685 248.784 449.469 248.432C449.261 248.08 449.157 247.688 449.157 247.256C449.157 246.824 449.261 246.432 449.469 246.08C449.685 245.72 449.969 245.436 450.321 245.228C450.673 245.02 451.069 244.916 451.509 244.916C451.941 244.916 452.333 245.02 452.685 245.228C453.037 245.436 453.317 245.72 453.525 246.08C453.733 246.432 453.837 246.824 453.837 247.256C453.837 247.688 453.733 248.08 453.525 248.432C453.317 248.784 453.037 249.068 452.685 249.284C452.333 249.492 451.941 249.596 451.509 249.596ZM451.497 248.612C451.769 248.612 452.001 248.548 452.193 248.42C452.385 248.292 452.537 248.124 452.649 247.916C452.761 247.708 452.817 247.488 452.817 247.256C452.817 247.016 452.761 246.796 452.649 246.596C452.537 246.388 452.385 246.22 452.193 246.092C452.001 245.956 451.769 245.888 451.497 245.888C451.241 245.888 451.013 245.956 450.813 246.092C450.613 246.22 450.457 246.388 450.345 246.596C450.233 246.804 450.177 247.024 450.177 247.256C450.177 247.48 450.233 247.7 450.345 247.916C450.457 248.124 450.613 248.292 450.813 248.42C451.013 248.548 451.241 248.612 451.497 248.612ZM457.377 254.144C456.937 254.144 456.541 254.04 456.189 253.832C455.837 253.616 455.553 253.332 455.337 252.98C455.129 252.628 455.025 252.236 455.025 251.804C455.025 251.372 455.129 250.98 455.337 250.628C455.553 250.268 455.837 249.984 456.189 249.776C456.541 249.568 456.937 249.464 457.377 249.464C457.809 249.464 458.201 249.568 458.553 249.776C458.905 249.984 459.185 250.268 459.393 250.628C459.601 250.98 459.705 251.372 459.705 251.804C459.705 252.236 459.601 252.628 459.393 252.98C459.185 253.332 458.905 253.616 458.553 253.832C458.201 254.04 457.809 254.144 457.377 254.144ZM457.377 253.16C457.641 253.16 457.869 253.096 458.061 252.968C458.261 252.84 458.413 252.672 458.517 252.464C458.629 252.256 458.685 252.036 458.685 251.804C458.685 251.564 458.629 251.344 458.517 251.144C458.413 250.936 458.261 250.768 458.061 250.64C457.869 250.504 457.641 250.436 457.377 250.436C457.121 250.436 456.889 250.504 456.681 250.64C456.481 250.768 456.325 250.936 456.213 251.144C456.101 251.352 456.045 251.572 456.045 251.804C456.045 252.028 456.101 252.248 456.213 252.464C456.325 252.672 456.481 252.84 456.681 252.968C456.889 253.096 457.121 253.16 457.377 253.16Z" fill="white"/>
<path d="M432.136 347V339.08H430.444V338.06H433.324V347H432.136ZM438.938 347.144C438.226 347.144 437.602 346.952 437.066 346.568C436.538 346.176 436.126 345.636 435.83 344.948C435.534 344.252 435.386 343.444 435.386 342.524C435.386 341.604 435.534 340.8 435.83 340.112C436.126 339.416 436.538 338.876 437.066 338.492C437.594 338.108 438.214 337.916 438.926 337.916C439.638 337.916 440.258 338.108 440.786 338.492C441.314 338.876 441.726 339.416 442.022 340.112C442.326 340.8 442.478 341.604 442.478 342.524C442.478 343.444 442.33 344.252 442.034 344.948C441.738 345.644 441.322 346.184 440.786 346.568C440.258 346.952 439.642 347.144 438.938 347.144ZM438.938 346.052C439.418 346.052 439.834 345.908 440.186 345.62C440.538 345.324 440.81 344.912 441.002 344.384C441.202 343.856 441.302 343.236 441.302 342.524C441.302 341.812 441.202 341.192 441.002 340.664C440.81 340.136 440.534 339.728 440.174 339.44C439.822 339.152 439.406 339.008 438.926 339.008C438.446 339.008 438.03 339.152 437.678 339.44C437.326 339.728 437.05 340.136 436.85 340.664C436.658 341.192 436.562 341.812 436.562 342.524C436.562 343.228 436.658 343.844 436.85 344.372C437.05 344.9 437.326 345.312 437.678 345.608C438.038 345.904 438.458 346.052 438.938 346.052ZM447.622 347.144C446.91 347.144 446.286 346.952 445.75 346.568C445.222 346.176 444.81 345.636 444.514 344.948C444.218 344.252 444.07 343.444 444.07 342.524C444.07 341.604 444.218 340.8 444.514 340.112C444.81 339.416 445.222 338.876 445.75 338.492C446.278 338.108 446.898 337.916 447.61 337.916C448.322 337.916 448.942 338.108 449.47 338.492C449.998 338.876 450.41 339.416 450.706 340.112C451.01 340.8 451.162 341.604 451.162 342.524C451.162 343.444 451.014 344.252 450.718 344.948C450.422 345.644 450.006 346.184 449.47 346.568C448.942 346.952 448.326 347.144 447.622 347.144ZM447.622 346.052C448.102 346.052 448.518 345.908 448.87 345.62C449.222 345.324 449.494 344.912 449.686 344.384C449.886 343.856 449.986 343.236 449.986 342.524C449.986 341.812 449.886 341.192 449.686 340.664C449.494 340.136 449.218 339.728 448.858 339.44C448.506 339.152 448.09 339.008 447.61 339.008C447.13 339.008 446.714 339.152 446.362 339.44C446.01 339.728 445.734 340.136 445.534 340.664C445.342 341.192 445.246 341.812 445.246 342.524C445.246 343.228 445.342 343.844 445.534 344.372C445.734 344.9 446.01 345.312 446.362 345.608C446.722 345.904 447.142 346.052 447.622 346.052ZM453.665 347L460.961 338.06H462.293L454.997 347H453.665ZM455.009 342.596C454.569 342.596 454.173 342.492 453.821 342.284C453.469 342.068 453.185 341.784 452.969 341.432C452.761 341.08 452.657 340.688 452.657 340.256C452.657 339.824 452.761 339.432 452.969 339.08C453.185 338.72 453.469 338.436 453.821 338.228C454.173 338.02 454.569 337.916 455.009 337.916C455.441 337.916 455.833 338.02 456.185 338.228C456.537 338.436 456.817 338.72 457.025 339.08C457.233 339.432 457.337 339.824 457.337 340.256C457.337 340.688 457.233 341.08 457.025 341.432C456.817 341.784 456.537 342.068 456.185 342.284C455.833 342.492 455.441 342.596 455.009 342.596ZM454.997 341.612C455.269 341.612 455.501 341.548 455.693 341.42C455.885 341.292 456.037 341.124 456.149 340.916C456.261 340.708 456.317 340.488 456.317 340.256C456.317 340.016 456.261 339.796 456.149 339.596C456.037 339.388 455.885 339.22 455.693 339.092C455.501 338.956 455.269 338.888 454.997 338.888C454.741 338.888 454.513 338.956 454.313 339.092C454.113 339.22 453.957 339.388 453.845 339.596C453.733 339.804 453.677 340.024 453.677 340.256C453.677 340.48 453.733 340.7 453.845 340.916C453.957 341.124 454.113 341.292 454.313 341.42C454.513 341.548 454.741 341.612 454.997 341.612ZM460.877 347.144C460.437 347.144 460.041 347.04 459.689 346.832C459.337 346.616 459.053 346.332 458.837 345.98C458.629 345.628 458.525 345.236 458.525 344.804C458.525 344.372 458.629 343.98 458.837 343.628C459.053 343.268 459.337 342.984 459.689 342.776C460.041 342.568 460.437 342.464 460.877 342.464C461.309 342.464 461.701 342.568 462.053 342.776C462.405 342.984 462.685 343.268 462.893 343.628C463.101 343.98 463.205 344.372 463.205 344.804C463.205 345.236 463.101 345.628 462.893 345.98C462.685 346.332 462.405 346.616 462.053 346.832C461.701 347.04 461.309 347.144 460.877 347.144ZM460.877 346.16C461.141 346.16 461.369 346.096 461.561 345.968C461.761 345.84 461.913 345.672 462.017 345.464C462.129 345.256 462.185 345.036 462.185 344.804C462.185 344.564 462.129 344.344 462.017 344.144C461.913 343.936 461.761 343.768 461.561 343.64C461.369 343.504 461.141 343.436 460.877 343.436C460.621 343.436 460.389 343.504 460.181 343.64C459.981 343.768 459.825 343.936 459.713 344.144C459.601 344.352 459.545 344.572 459.545 344.804C459.545 345.028 459.601 345.248 459.713 345.464C459.825 345.672 459.981 345.84 460.181 345.968C460.389 346.096 460.621 346.16 460.877 346.16Z" fill="white"/>
</svg>
