<svg width="517" height="396" viewBox="0 0 517 396" fill="none" xmlns="http://www.w3.org/2000/svg">
<g filter="url(#filter0_d_121_9203)">
<rect width="513.409" height="392.471" rx="12" transform="matrix(-1 0 0 1 514.41 1)" fill="#11122C"/>
<rect width="513.409" height="392.471" rx="12" transform="matrix(-1 0 0 1 514.41 1)" stroke="#11122C" stroke-width="0.6"/>
</g>
<path d="M255.864 47.1516C255.864 46.7097 256.223 46.3513 256.664 46.3541C272.838 46.4574 288.841 49.6929 303.789 55.8844C318.983 62.178 332.789 71.4026 344.418 83.0316C356.047 94.6606 365.271 108.466 371.565 123.66C377.756 138.608 380.992 154.611 381.095 170.785C381.098 171.227 380.739 171.585 380.298 171.585H369.374C368.932 171.585 368.575 171.227 368.571 170.785C368.468 156.256 365.557 141.881 359.995 128.453C354.331 114.778 346.028 102.353 335.562 91.8869C325.096 81.4208 312.671 73.1187 298.997 67.4545C285.568 61.8923 271.194 58.9809 256.664 58.8777C256.223 58.8746 255.864 58.5167 255.864 58.0749V47.1516Z" fill="#212533"/>
<path d="M288.07 51.3915C288.184 50.9648 288.623 50.7113 289.049 50.8284C311.461 56.9874 331.723 69.264 347.561 86.2902C363.398 103.316 374.179 124.412 378.703 147.21C378.789 147.644 378.504 148.063 378.07 148.146L367.342 150.204C366.909 150.287 366.49 150.003 366.403 149.569C362.323 129.081 352.627 110.124 338.391 94.8197C324.155 79.5156 305.948 68.4753 285.808 62.9253C285.382 62.8079 285.128 62.3694 285.243 61.9427L288.07 51.3915Z" fill="#00C2FF"/>
<path d="M288.07 51.3915C288.184 50.9648 288.624 50.7114 289.05 50.8285C320.541 59.4824 347.407 80.0977 363.917 108.276C364.14 108.657 364.009 109.147 363.627 109.368L354.167 114.83C353.784 115.051 353.295 114.919 353.071 114.538C338.223 89.2357 314.092 70.7193 285.808 62.9254C285.383 62.808 285.128 62.3694 285.243 61.9427L288.07 51.3915Z" fill="#561ED4"/>
<path d="M131.431 171.585C130.989 171.585 130.631 171.227 130.633 170.785C130.754 151.85 135.168 133.185 143.546 116.196C152.042 98.9674 164.387 83.9245 179.627 72.2306C194.867 60.5368 212.592 52.5054 231.432 48.7579C250.011 45.0624 269.182 45.6302 287.503 50.4142C287.931 50.5258 288.184 50.9648 288.07 51.3915L285.243 61.9427C285.128 62.3694 284.69 62.6224 284.262 62.5111C267.796 58.2241 250.57 57.7199 233.876 61.0406C216.919 64.4134 200.966 71.6416 187.251 82.1661C173.535 92.6905 162.424 106.229 154.778 121.735C147.249 137.001 143.278 153.771 143.157 170.785C143.154 171.227 142.796 171.585 142.354 171.585H131.431Z" fill="#C927AC"/>
<path d="M200.751 160.586H218.175V157.31H205.395C206.691 151.694 217.887 149.75 217.887 141.83C217.887 137.294 214.575 134.306 209.535 134.306C204.243 134.306 200.679 137.618 200.823 142.694H204.459C204.279 139.454 206.331 137.51 209.319 137.51C212.163 137.51 214.035 139.274 214.035 142.01C214.035 148.634 200.751 149.822 200.751 159.938V160.586ZM230.17 160.91C235.606 160.91 239.242 157.886 239.242 153.35C239.242 150.218 237.622 147.914 234.814 147.23V147.014C237.226 146.222 238.846 144.026 238.846 141.146C238.846 137.006 235.534 134.306 230.386 134.306C225.022 134.306 221.53 137.546 221.53 142.514H225.166C225.202 139.49 227.038 137.51 230.242 137.51C233.122 137.51 235.03 138.986 235.03 141.578C235.03 143.99 233.446 145.826 230.458 145.826H227.83V148.67H230.674C233.518 148.67 235.426 150.11 235.426 153.026C235.426 155.87 233.338 157.706 230.17 157.706C226.966 157.706 224.878 155.654 224.95 152.594H221.314C221.314 157.598 224.662 160.91 230.17 160.91ZM242.333 166.31H243.269C245.357 166.202 246.581 165.194 246.581 162.458V156.806H242.909V160.586H244.565V162.242C244.565 163.466 244.133 164.258 242.873 164.33H242.333V166.31ZM259.615 160.874C264.979 160.874 268.651 157.598 268.651 152.126C268.651 146.978 265.411 143.594 260.623 143.594C257.419 143.594 255.007 145.178 254.179 147.59H253.999C254.035 141.578 255.259 137.546 259.975 137.546C262.531 137.546 264.439 138.842 264.799 141.11H268.398C267.967 136.97 264.907 134.306 259.975 134.306C253.567 134.306 250.255 138.842 250.255 148.598C250.255 156.662 253.495 160.874 259.615 160.874ZM259.723 157.634C256.555 157.634 254.467 155.582 254.467 152.162C254.467 148.886 256.447 146.438 259.759 146.438C262.855 146.438 264.907 148.562 264.907 151.982C264.907 155.438 262.855 157.634 259.723 157.634ZM284.651 160.586H288.359V154.214H291.887V151.154H288.359V134.63H283.535L271.907 151.334V154.214H284.651V160.586ZM275.687 151.154L284.651 138.374V151.154H275.687ZM304.19 160.838C309.77 160.838 313.55 158.066 313.55 153.674C313.55 150.506 311.678 147.95 308.33 147.554V147.374C311.606 146.798 313.118 144.242 313.118 141.398C313.118 137.186 309.734 134.342 304.19 134.342C298.682 134.342 295.298 137.15 295.298 141.362C295.298 144.242 296.882 146.762 300.122 147.374V147.554C296.738 148.022 294.83 150.686 294.83 153.71C294.83 158.102 298.61 160.838 304.19 160.838ZM304.19 146.006C300.734 146.006 299.114 144.242 299.114 141.722C299.114 139.094 301.022 137.438 304.19 137.438C307.322 137.438 309.338 139.058 309.338 141.722C309.338 144.134 307.79 146.006 304.19 146.006ZM304.19 157.634C300.986 157.634 298.826 156.014 298.826 153.206C298.826 150.866 300.482 148.994 304.19 148.994C307.862 148.994 309.59 150.758 309.59 153.206C309.59 155.942 307.502 157.634 304.19 157.634Z" fill="white"/>
<path d="M210.523 189.288C213.141 189.288 214.709 187.79 214.709 185.382V178.956H213.197V185.354C213.197 186.936 212.329 187.916 210.537 187.916C208.885 187.916 207.877 187.062 207.877 185.354V178.956H206.351V185.382C206.351 187.79 207.905 189.288 210.523 189.288ZM219.633 189.302C221.565 189.302 222.769 188.574 222.769 187.062C222.769 185.368 221.481 185.032 219.941 184.822C218.681 184.654 218.121 184.43 218.121 183.702C218.121 183.072 218.653 182.638 219.633 182.638C220.585 182.638 221.187 183.044 221.201 183.94H222.615C222.587 182.498 221.481 181.616 219.661 181.616C217.869 181.616 216.679 182.428 216.679 183.842C216.679 185.354 217.841 185.746 219.521 185.984C220.767 186.166 221.299 186.362 221.299 187.188C221.299 187.874 220.739 188.28 219.675 188.28C218.639 188.28 217.897 187.846 217.897 186.838H216.469C216.469 188.308 217.603 189.302 219.633 189.302ZM227.557 189.288C229.307 189.288 230.651 188.336 230.847 186.88H229.475C229.293 187.65 228.551 188.14 227.557 188.14C226.269 188.14 225.429 187.272 225.401 185.746H230.889C231.113 183.422 229.937 181.644 227.501 181.644C225.331 181.644 223.973 183.156 223.973 185.494C223.973 187.776 225.331 189.288 227.557 189.288ZM227.487 182.778C228.579 182.778 229.433 183.352 229.475 184.724H225.429C225.541 183.52 226.325 182.778 227.487 182.778ZM232.447 189.162H233.875V184.934C233.945 183.716 234.687 183.03 236.003 183.03C236.171 183.03 236.339 183.03 236.451 183.044V181.686C236.325 181.672 236.185 181.658 236.017 181.658C235.037 181.658 234.197 182.12 233.875 183.072H233.805L233.735 181.756H232.447V189.162ZM240.332 189.302C242.264 189.302 243.468 188.574 243.468 187.062C243.468 185.368 242.18 185.032 240.64 184.822C239.38 184.654 238.82 184.43 238.82 183.702C238.82 183.072 239.352 182.638 240.332 182.638C241.284 182.638 241.886 183.044 241.9 183.94H243.314C243.286 182.498 242.18 181.616 240.36 181.616C238.568 181.616 237.378 182.428 237.378 183.842C237.378 185.354 238.54 185.746 240.22 185.984C241.466 186.166 241.998 186.362 241.998 187.188C241.998 187.874 241.438 188.28 240.374 188.28C239.338 188.28 238.596 187.846 238.596 186.838H237.168C237.168 188.308 238.302 189.302 240.332 189.302ZM252.284 189.288C254.09 189.288 255.308 187.944 255.308 185.466C255.308 182.988 254.09 181.63 252.284 181.63C251.038 181.63 250.114 182.274 249.764 183.212H249.68V178.956H248.238V189.162H249.624L249.68 187.706H249.764C250.114 188.658 251.038 189.288 252.284 189.288ZM251.78 188.098C250.408 188.098 249.694 187.02 249.694 185.872V185.046C249.694 183.898 250.408 182.82 251.78 182.82C253.012 182.82 253.824 183.716 253.824 185.466C253.824 187.202 253.012 188.098 251.78 188.098ZM256.129 191.5H257.165C258.327 191.5 259.069 191.094 259.545 189.806L262.625 181.756H261.099L259.503 186.264L259.209 187.146H259.153L258.845 186.264L257.151 181.756H255.569L258.481 188.63L258.159 189.456C257.921 190.044 257.585 190.31 256.927 190.31H256.129V191.5ZM269.243 189.288C270.489 189.288 271.413 188.644 271.763 187.692H271.847L271.903 189.162H273.289V178.956H271.847V183.212H271.763C271.413 182.26 270.489 181.63 269.243 181.63C267.437 181.63 266.219 182.974 266.219 185.452C266.219 187.93 267.437 189.288 269.243 189.288ZM269.747 188.098C268.515 188.098 267.703 187.188 267.703 185.452C267.703 183.702 268.515 182.806 269.747 182.806C271.119 182.806 271.833 183.898 271.833 185.032V185.872C271.833 187.02 271.119 188.098 269.747 188.098ZM278.389 189.288C280.139 189.288 281.483 188.336 281.679 186.88H280.307C280.125 187.65 279.383 188.14 278.389 188.14C277.101 188.14 276.261 187.272 276.233 185.746H281.721C281.945 183.422 280.769 181.644 278.333 181.644C276.163 181.644 274.805 183.156 274.805 185.494C274.805 187.776 276.163 189.288 278.389 189.288ZM278.319 182.778C279.411 182.778 280.265 183.352 280.307 184.724H276.261C276.373 183.52 277.157 182.778 278.319 182.778ZM284.725 189.162H286.489L289.121 181.756H287.567L286.083 186.32L285.635 187.916H285.579L285.103 186.32L283.619 181.756H282.065L284.725 189.162ZM290.088 180.622H291.53V178.956H290.088V180.622ZM290.088 189.162H291.53V181.756H290.088V189.162ZM296.627 189.288C298.475 189.288 299.819 188.196 299.931 186.516H298.531C298.419 187.454 297.705 188.084 296.627 188.084C295.339 188.084 294.499 187.146 294.499 185.48C294.499 183.898 295.269 182.848 296.641 182.848C297.593 182.848 298.335 183.352 298.503 184.318H299.903C299.791 182.722 298.475 181.644 296.683 181.644C294.457 181.644 293.029 183.17 293.029 185.466C293.029 187.762 294.457 189.288 296.627 189.288ZM304.475 189.288C306.225 189.288 307.569 188.336 307.765 186.88H306.393C306.211 187.65 305.469 188.14 304.475 188.14C303.187 188.14 302.347 187.272 302.319 185.746H307.807C308.031 183.422 306.855 181.644 304.419 181.644C302.249 181.644 300.891 183.156 300.891 185.494C300.891 187.776 302.249 189.288 304.475 189.288ZM304.405 182.778C305.497 182.778 306.351 183.352 306.393 184.724H302.347C302.459 183.52 303.243 182.778 304.405 182.778Z" fill="#7E89AC"/>
<rect x="36.8633" y="258.838" width="7" height="7" rx="3.5" fill="#C927AC"/>
<path d="M53.1653 266.338H57.1833C60.0673 266.338 61.7613 264.308 61.7613 261.242C61.7613 258.162 60.0673 256.132 57.1833 256.132H53.1653V266.338ZM54.3553 265.288V257.182H57.0293C59.1293 257.182 60.5293 258.54 60.5293 261.214C60.5293 263.874 59.1713 265.288 57.0293 265.288H54.3553ZM66.505 266.464C68.185 266.464 69.501 265.526 69.711 264.112H68.619C68.423 264.98 67.611 265.526 66.505 265.526C65.091 265.526 64.167 264.56 64.125 262.866H69.739C69.963 260.612 68.815 258.876 66.449 258.876C64.321 258.876 63.005 260.388 63.005 262.684C63.005 264.966 64.349 266.464 66.505 266.464ZM66.435 259.8C67.653 259.8 68.591 260.43 68.633 261.984H64.153C64.293 260.626 65.161 259.8 66.435 259.8ZM74.0303 266.478C75.8643 266.478 77.0263 265.75 77.0263 264.308C77.0263 262.698 75.8083 262.348 74.2683 262.138C72.9383 261.956 72.3223 261.69 72.3223 260.878C72.3223 260.164 72.9243 259.688 74.0163 259.688C75.0663 259.688 75.7383 260.122 75.7663 261.144H76.8723C76.8583 259.716 75.8083 258.848 74.0303 258.848C72.3223 258.848 71.1883 259.66 71.1883 260.99C71.1883 262.432 72.2663 262.824 73.9603 263.076C75.3043 263.272 75.8643 263.51 75.8643 264.406C75.8643 265.19 75.2343 265.638 74.0583 265.638C72.9103 265.638 72.1123 265.148 72.1123 264.042H70.9783C70.9783 265.498 72.0703 266.478 74.0303 266.478ZM78.7808 266.338H79.9288V264.014L81.3848 262.6L81.8328 263.328L83.8348 266.338H85.1648L82.1688 261.83L85.0388 258.988H83.6108L80.5868 262.04L79.9288 262.74V256.132H78.7808V266.338ZM88.6291 266.338H90.0291V265.386H88.9791C88.4751 265.386 88.3211 265.26 88.3211 264.742V259.926H90.0291V258.988H88.3211V256.636L87.1871 256.79V258.988H85.7591V259.926H87.1871V264.938C87.1871 265.862 87.5511 266.338 88.6291 266.338ZM94.3422 266.464C96.4982 266.464 97.8702 264.91 97.8702 262.67C97.8702 260.36 96.4562 258.876 94.3422 258.876C92.1722 258.876 90.7862 260.43 90.7862 262.684C90.7862 264.966 92.2142 266.464 94.3422 266.464ZM94.3422 265.484C92.8722 265.484 91.9482 264.42 91.9482 262.684C91.9482 260.878 92.9142 259.828 94.3422 259.828C95.8122 259.828 96.7222 260.906 96.7222 262.67C96.7222 264.448 95.7702 265.484 94.3422 265.484ZM99.48 268.676H100.614V264.812H100.698C101.062 265.806 102.014 266.464 103.288 266.464C105.094 266.464 106.312 265.092 106.312 262.67C106.312 260.248 105.094 258.862 103.288 258.862C102.014 258.862 101.062 259.534 100.698 260.514H100.614L100.572 258.988H99.494L99.48 268.676ZM102.91 265.512C101.44 265.512 100.628 264.35 100.628 263.104V262.222C100.628 260.976 101.44 259.814 102.91 259.814C104.254 259.814 105.164 260.808 105.164 262.67C105.164 264.518 104.254 265.512 102.91 265.512ZM113.718 266.464C114.894 266.464 115.888 265.82 116.266 264.77H116.336L116.392 266.338H117.47V258.988H116.336V262.908C116.336 264.448 115.426 265.498 114.11 265.498C112.752 265.498 112.192 264.672 112.192 263.216V258.988H111.058V263.496C111.058 265.47 112.066 266.464 113.718 266.464ZM122.169 266.478C124.003 266.478 125.165 265.75 125.165 264.308C125.165 262.698 123.947 262.348 122.407 262.138C121.077 261.956 120.461 261.69 120.461 260.878C120.461 260.164 121.063 259.688 122.155 259.688C123.205 259.688 123.877 260.122 123.905 261.144H125.011C124.997 259.716 123.947 258.848 122.169 258.848C120.461 258.848 119.327 259.66 119.327 260.99C119.327 262.432 120.405 262.824 122.099 263.076C123.443 263.272 124.003 263.51 124.003 264.406C124.003 265.19 123.373 265.638 122.197 265.638C121.049 265.638 120.251 265.148 120.251 264.042H119.117C119.117 265.498 120.209 266.478 122.169 266.478ZM129.984 266.464C131.664 266.464 132.98 265.526 133.19 264.112H132.098C131.902 264.98 131.09 265.526 129.984 265.526C128.57 265.526 127.646 264.56 127.604 262.866H133.218C133.442 260.612 132.294 258.876 129.928 258.876C127.8 258.876 126.484 260.388 126.484 262.684C126.484 264.966 127.828 266.464 129.984 266.464ZM129.914 259.8C131.132 259.8 132.07 260.43 132.112 261.984H127.632C127.772 260.626 128.64 259.8 129.914 259.8ZM134.863 266.338H135.983V261.956C136.081 260.696 136.893 259.968 138.181 259.968C138.349 259.968 138.503 259.982 138.629 259.996V258.918C138.503 258.904 138.349 258.89 138.181 258.89C137.187 258.89 136.319 259.408 135.997 260.346H135.941L135.871 258.988H134.863V266.338ZM142.444 266.478C144.278 266.478 145.44 265.75 145.44 264.308C145.44 262.698 144.222 262.348 142.682 262.138C141.352 261.956 140.736 261.69 140.736 260.878C140.736 260.164 141.338 259.688 142.43 259.688C143.48 259.688 144.152 260.122 144.18 261.144H145.286C145.272 259.716 144.222 258.848 142.444 258.848C140.736 258.848 139.602 259.66 139.602 260.99C139.602 262.432 140.68 262.824 142.374 263.076C143.718 263.272 144.278 263.51 144.278 264.406C144.278 265.19 143.648 265.638 142.472 265.638C141.324 265.638 140.526 265.148 140.526 264.042H139.392C139.392 265.498 140.484 266.478 142.444 266.478Z" fill="#AEB9E1"/>
<path d="M431.272 267.338H432.92V255.802H431.336C431.224 256.954 430.472 257.722 428.936 257.722H428.488V258.986H431.272V267.338ZM439.307 267.482C441.819 267.482 443.419 265.882 443.419 263.498C443.419 261.226 441.963 259.642 439.675 259.642C438.635 259.642 437.707 260.058 437.243 260.698L437.147 260.666L437.307 257.242H442.811V255.802H435.851L435.579 262.346H437.147C437.467 261.578 438.235 261.034 439.339 261.034C440.779 261.034 441.723 261.994 441.723 263.562C441.723 265.018 440.843 266.026 439.323 266.026C437.915 266.026 437.003 265.146 437.003 263.818H435.355C435.371 266.01 436.907 267.482 439.307 267.482ZM444.755 269.882H445.171C446.099 269.834 446.643 269.386 446.643 268.17V265.658H445.011V267.338H445.747V268.074C445.747 268.618 445.555 268.97 444.995 269.002H444.755V269.882ZM452.435 267.466C454.819 267.466 456.451 266.01 456.451 263.578C456.451 261.29 455.011 259.786 452.883 259.786C451.459 259.786 450.387 260.49 450.019 261.562H449.939C449.955 258.89 450.499 257.098 452.595 257.098C453.731 257.098 454.579 257.674 454.739 258.682H456.339C456.147 256.842 454.787 255.658 452.595 255.658C449.747 255.658 448.275 257.674 448.275 262.01C448.275 265.594 449.715 267.466 452.435 267.466ZM452.483 266.026C451.075 266.026 450.147 265.114 450.147 263.594C450.147 262.138 451.027 261.05 452.499 261.05C453.875 261.05 454.787 261.994 454.787 263.514C454.787 265.05 453.875 266.026 452.483 266.026ZM457.836 267.338H465.58V265.882H459.9C460.476 263.386 465.452 262.522 465.452 259.002C465.452 256.986 463.98 255.658 461.74 255.658C459.388 255.658 457.804 257.13 457.868 259.386H459.484C459.404 257.946 460.316 257.082 461.644 257.082C462.908 257.082 463.74 257.866 463.74 259.082C463.74 262.026 457.836 262.554 457.836 267.05V267.338ZM471.922 267.338H473.57V264.506H475.138V263.146H473.57V255.802H471.426L466.258 263.226V264.506H471.922V267.338ZM467.938 263.146L471.922 257.466V263.146H467.938Z" fill="#D9E1FA"/>
<path d="M36.8633 285.338L256.803 285.338L476.742 285.338" stroke="#202147" stroke-width="0.6"/>
<rect x="36.8633" y="304.838" width="7" height="7" rx="3.5" fill="#561ED4"/>
<path d="M53.1653 312.338H54.3553V308.516H57.1553C59.3393 308.53 60.6833 307.256 60.6833 305.324C60.6833 303.294 59.3113 302.132 57.1693 302.132H53.1653V312.338ZM56.9873 307.536H54.3553V303.182H56.9873C58.4853 303.182 59.4513 303.91 59.4513 305.352C59.4513 306.78 58.4993 307.55 56.9873 307.536ZM62.1421 312.338H63.2621V308.362C63.2621 306.92 64.1581 305.828 65.5441 305.828C66.8181 305.828 67.4201 306.584 67.4201 308.236V312.338H68.5541V308.012C68.5541 305.744 67.4341 304.876 65.9081 304.876C64.8021 304.876 63.7941 305.436 63.3461 306.514H63.2621V302.132H62.1421V312.338ZM73.6567 312.464C75.8127 312.464 77.1847 310.91 77.1847 308.67C77.1847 306.36 75.7707 304.876 73.6567 304.876C71.4867 304.876 70.1007 306.43 70.1007 308.684C70.1007 310.966 71.5287 312.464 73.6567 312.464ZM73.6567 311.484C72.1867 311.484 71.2627 310.42 71.2627 308.684C71.2627 306.878 72.2287 305.828 73.6567 305.828C75.1267 305.828 76.0367 306.906 76.0367 308.67C76.0367 310.448 75.0847 311.484 73.6567 311.484ZM78.7945 312.338H79.9145V308.362C79.9145 306.92 80.8105 305.828 82.1965 305.828C83.4705 305.828 84.0725 306.584 84.0725 308.236V312.338H85.2065V308.012C85.2065 305.744 84.0865 304.876 82.5605 304.876C81.4545 304.876 80.4465 305.436 79.9985 306.514H79.9145L79.8725 304.988H78.7945V312.338ZM90.253 312.464C91.933 312.464 93.249 311.526 93.459 310.112H92.367C92.171 310.98 91.359 311.526 90.253 311.526C88.839 311.526 87.915 310.56 87.873 308.866H93.487C93.711 306.612 92.563 304.876 90.197 304.876C88.069 304.876 86.753 306.388 86.753 308.684C86.753 310.966 88.097 312.464 90.253 312.464ZM90.183 305.8C91.401 305.8 92.339 306.43 92.381 307.984H87.901C88.041 306.626 88.909 305.8 90.183 305.8ZM100.838 312.464C102.126 312.464 103.078 311.792 103.442 310.798H103.512V312.338H104.646V304.988H103.554L103.512 306.514H103.442C103.078 305.52 102.126 304.862 100.838 304.862C99.0316 304.862 97.8136 306.234 97.8136 308.656C97.8136 311.078 99.0316 312.464 100.838 312.464ZM101.216 311.512C99.8716 311.512 98.9756 310.504 98.9756 308.656C98.9756 306.794 99.8716 305.8 101.216 305.8C102.686 305.8 103.498 306.976 103.498 308.208V309.104C103.498 310.336 102.686 311.512 101.216 311.512ZM106.767 314.676H107.901V310.812H107.985C108.349 311.806 109.301 312.464 110.575 312.464C112.381 312.464 113.599 311.092 113.599 308.67C113.599 306.248 112.381 304.862 110.575 304.862C109.301 304.862 108.349 305.534 107.985 306.514H107.901L107.859 304.988H106.781L106.767 314.676ZM110.197 311.512C108.727 311.512 107.915 310.35 107.915 309.104V308.222C107.915 306.976 108.727 305.814 110.197 305.814C111.541 305.814 112.451 306.808 112.451 308.67C112.451 310.518 111.541 311.512 110.197 311.512ZM115.216 314.676H116.35V310.812H116.434C116.798 311.806 117.75 312.464 119.024 312.464C120.83 312.464 122.048 311.092 122.048 308.67C122.048 306.248 120.83 304.862 119.024 304.862C117.75 304.862 116.798 305.534 116.434 306.514H116.35L116.308 304.988H115.23L115.216 314.676ZM118.646 311.512C117.176 311.512 116.364 310.35 116.364 309.104V308.222C116.364 306.976 117.176 305.814 118.646 305.814C119.99 305.814 120.9 306.808 120.9 308.67C120.9 310.518 119.99 311.512 118.646 311.512ZM129.455 312.464C130.631 312.464 131.625 311.82 132.003 310.77H132.073L132.129 312.338H133.207V304.988H132.073V308.908C132.073 310.448 131.163 311.498 129.847 311.498C128.489 311.498 127.929 310.672 127.929 309.216V304.988H126.795V309.496C126.795 311.47 127.803 312.464 129.455 312.464ZM137.905 312.478C139.739 312.478 140.901 311.75 140.901 310.308C140.901 308.698 139.683 308.348 138.143 308.138C136.813 307.956 136.197 307.69 136.197 306.878C136.197 306.164 136.799 305.688 137.891 305.688C138.941 305.688 139.613 306.122 139.641 307.144H140.747C140.733 305.716 139.683 304.848 137.905 304.848C136.197 304.848 135.063 305.66 135.063 306.99C135.063 308.432 136.141 308.824 137.835 309.076C139.179 309.272 139.739 309.51 139.739 310.406C139.739 311.19 139.109 311.638 137.933 311.638C136.785 311.638 135.987 311.148 135.987 310.042H134.853C134.853 311.498 135.945 312.478 137.905 312.478ZM145.72 312.464C147.4 312.464 148.716 311.526 148.926 310.112H147.834C147.638 310.98 146.826 311.526 145.72 311.526C144.306 311.526 143.382 310.56 143.34 308.866H148.954C149.178 306.612 148.03 304.876 145.664 304.876C143.536 304.876 142.22 306.388 142.22 308.684C142.22 310.966 143.564 312.464 145.72 312.464ZM145.65 305.8C146.868 305.8 147.806 306.43 147.848 307.984H143.368C143.508 306.626 144.376 305.8 145.65 305.8ZM150.599 312.338H151.719V307.956C151.817 306.696 152.629 305.968 153.917 305.968C154.085 305.968 154.239 305.982 154.365 305.996V304.918C154.239 304.904 154.085 304.89 153.917 304.89C152.923 304.89 152.055 305.408 151.733 306.346H151.677L151.607 304.988H150.599V312.338ZM158.181 312.478C160.015 312.478 161.177 311.75 161.177 310.308C161.177 308.698 159.959 308.348 158.419 308.138C157.089 307.956 156.473 307.69 156.473 306.878C156.473 306.164 157.075 305.688 158.167 305.688C159.217 305.688 159.889 306.122 159.917 307.144H161.023C161.009 305.716 159.959 304.848 158.181 304.848C156.473 304.848 155.339 305.66 155.339 306.99C155.339 308.432 156.417 308.824 158.111 309.076C159.455 309.272 160.015 309.51 160.015 310.406C160.015 311.19 159.385 311.638 158.209 311.638C157.061 311.638 156.263 311.148 156.263 310.042H155.129C155.129 311.498 156.221 312.478 158.181 312.478Z" fill="#AEB9E1"/>
<path d="M439.026 313.482C441.538 313.482 443.138 311.882 443.138 309.498C443.138 307.226 441.682 305.642 439.394 305.642C438.354 305.642 437.426 306.058 436.962 306.698L436.866 306.666L437.026 303.242H442.53V301.802H435.57L435.298 308.346H436.866C437.186 307.578 437.954 307.034 439.058 307.034C440.498 307.034 441.442 307.994 441.442 309.562C441.442 311.018 440.562 312.026 439.042 312.026C437.634 312.026 436.722 311.146 436.722 309.818H435.074C435.09 312.01 436.626 313.482 439.026 313.482ZM444.473 315.882H444.889C445.817 315.834 446.361 315.386 446.361 314.17V311.658H444.729V313.338H445.465V314.074C445.465 314.618 445.273 314.97 444.713 315.002H444.473V315.882ZM452.026 313.482C454.538 313.482 456.138 311.882 456.138 309.498C456.138 307.226 454.682 305.642 452.394 305.642C451.354 305.642 450.426 306.058 449.962 306.698L449.866 306.666L450.026 303.242H455.53V301.802H448.57L448.298 308.346H449.866C450.186 307.578 450.954 307.034 452.058 307.034C453.498 307.034 454.442 307.994 454.442 309.562C454.442 311.018 453.562 312.026 452.042 312.026C450.634 312.026 449.722 311.146 449.722 309.818H448.074C448.09 312.01 449.626 313.482 452.026 313.482ZM463.297 313.338H464.945V310.506H466.513V309.146H464.945V301.802H462.801L457.633 309.226V310.506H463.297V313.338ZM459.313 309.146L463.297 303.466V309.146H459.313ZM472.029 313.466C474.413 313.466 476.045 312.01 476.045 309.578C476.045 307.29 474.605 305.786 472.477 305.786C471.053 305.786 469.981 306.49 469.613 307.562H469.533C469.549 304.89 470.093 303.098 472.189 303.098C473.325 303.098 474.173 303.674 474.333 304.682H475.933C475.741 302.842 474.381 301.658 472.189 301.658C469.341 301.658 467.869 303.674 467.869 308.01C467.869 311.594 469.309 313.466 472.029 313.466ZM472.077 312.026C470.669 312.026 469.741 311.114 469.741 309.594C469.741 308.138 470.621 307.05 472.093 307.05C473.469 307.05 474.381 307.994 474.381 309.514C474.381 311.05 473.469 312.026 472.077 312.026Z" fill="#D9E1FA"/>
<path d="M36.8633 331.338L256.803 331.338L476.742 331.338" stroke="#202147" stroke-width="0.6"/>
<rect x="36.8633" y="350.838" width="7" height="7" rx="3.5" fill="#00C2FF"/>
<path d="M53.1653 358.338H59.3953V357.246H54.3553V348.132H53.1653V358.338ZM62.9255 358.464C64.2135 358.464 65.1655 357.792 65.5295 356.798H65.5995V358.338H66.7335V350.988H65.6415L65.5995 352.514H65.5295C65.1655 351.52 64.2135 350.862 62.9255 350.862C61.1195 350.862 59.9015 352.234 59.9015 354.656C59.9015 357.078 61.1195 358.464 62.9255 358.464ZM63.3035 357.512C61.9595 357.512 61.0635 356.504 61.0635 354.656C61.0635 352.794 61.9595 351.8 63.3035 351.8C64.7735 351.8 65.5855 352.976 65.5855 354.208V355.104C65.5855 356.336 64.7735 357.512 63.3035 357.512ZM68.855 360.676H69.989V356.812H70.073C70.437 357.806 71.389 358.464 72.663 358.464C74.469 358.464 75.687 357.092 75.687 354.67C75.687 352.248 74.469 350.862 72.663 350.862C71.389 350.862 70.437 351.534 70.073 352.514H69.989L69.947 350.988H68.869L68.855 360.676ZM72.285 357.512C70.815 357.512 70.003 356.35 70.003 355.104V354.222C70.003 352.976 70.815 351.814 72.285 351.814C73.629 351.814 74.539 352.808 74.539 354.67C74.539 356.518 73.629 357.512 72.285 357.512ZM79.2502 358.338H80.6502V357.386H79.6002C79.0962 357.386 78.9422 357.26 78.9422 356.742V351.926H80.6502V350.988H78.9422V348.636L77.8082 348.79V350.988H76.3802V351.926H77.8082V356.938C77.8082 357.862 78.1722 358.338 79.2502 358.338ZM84.9633 358.464C87.1193 358.464 88.4913 356.91 88.4913 354.67C88.4913 352.36 87.0773 350.876 84.9633 350.876C82.7933 350.876 81.4073 352.43 81.4073 354.684C81.4073 356.966 82.8353 358.464 84.9633 358.464ZM84.9633 357.484C83.4933 357.484 82.5693 356.42 82.5693 354.684C82.5693 352.878 83.5353 351.828 84.9633 351.828C86.4333 351.828 87.3433 352.906 87.3433 354.67C87.3433 356.448 86.3913 357.484 84.9633 357.484ZM90.1011 360.676H91.2351V356.812H91.3191C91.6831 357.806 92.6351 358.464 93.9091 358.464C95.7151 358.464 96.9331 357.092 96.9331 354.67C96.9331 352.248 95.7151 350.862 93.9091 350.862C92.6351 350.862 91.6831 351.534 91.3191 352.514H91.2351L91.1931 350.988H90.1151L90.1011 360.676ZM93.5311 357.512C92.0611 357.512 91.2491 356.35 91.2491 355.104V354.222C91.2491 352.976 92.0611 351.814 93.5311 351.814C94.8751 351.814 95.7851 352.808 95.7851 354.67C95.7851 356.518 94.8751 357.512 93.5311 357.512ZM104.34 358.464C105.516 358.464 106.51 357.82 106.888 356.77H106.958L107.014 358.338H108.092V350.988H106.958V354.908C106.958 356.448 106.048 357.498 104.732 357.498C103.374 357.498 102.814 356.672 102.814 355.216V350.988H101.68V355.496C101.68 357.47 102.688 358.464 104.34 358.464ZM112.79 358.478C114.624 358.478 115.786 357.75 115.786 356.308C115.786 354.698 114.568 354.348 113.028 354.138C111.698 353.956 111.082 353.69 111.082 352.878C111.082 352.164 111.684 351.688 112.776 351.688C113.826 351.688 114.498 352.122 114.526 353.144H115.632C115.618 351.716 114.568 350.848 112.79 350.848C111.082 350.848 109.948 351.66 109.948 352.99C109.948 354.432 111.026 354.824 112.72 355.076C114.064 355.272 114.624 355.51 114.624 356.406C114.624 357.19 113.994 357.638 112.818 357.638C111.67 357.638 110.872 357.148 110.872 356.042H109.738C109.738 357.498 110.83 358.478 112.79 358.478ZM120.605 358.464C122.285 358.464 123.601 357.526 123.811 356.112H122.719C122.523 356.98 121.711 357.526 120.605 357.526C119.191 357.526 118.267 356.56 118.225 354.866H123.839C124.063 352.612 122.915 350.876 120.549 350.876C118.421 350.876 117.105 352.388 117.105 354.684C117.105 356.966 118.449 358.464 120.605 358.464ZM120.535 351.8C121.753 351.8 122.691 352.43 122.733 353.984H118.253C118.393 352.626 119.261 351.8 120.535 351.8ZM125.484 358.338H126.604V353.956C126.702 352.696 127.514 351.968 128.802 351.968C128.97 351.968 129.124 351.982 129.25 351.996V350.918C129.124 350.904 128.97 350.89 128.802 350.89C127.808 350.89 126.94 351.408 126.618 352.346H126.562L126.492 350.988H125.484V358.338ZM133.065 358.478C134.899 358.478 136.061 357.75 136.061 356.308C136.061 354.698 134.843 354.348 133.303 354.138C131.973 353.956 131.357 353.69 131.357 352.878C131.357 352.164 131.959 351.688 133.051 351.688C134.101 351.688 134.773 352.122 134.801 353.144H135.907C135.893 351.716 134.843 350.848 133.065 350.848C131.357 350.848 130.223 351.66 130.223 352.99C130.223 354.432 131.301 354.824 132.995 355.076C134.339 355.272 134.899 355.51 134.899 356.406C134.899 357.19 134.269 357.638 133.093 357.638C131.945 357.638 131.147 357.148 131.147 356.042H130.013C130.013 357.498 131.105 358.478 133.065 358.478Z" fill="#AEB9E1"/>
<path d="M436.336 359.338H444.08V357.882H438.4C438.976 355.386 443.952 354.522 443.952 351.002C443.952 348.986 442.48 347.658 440.24 347.658C437.888 347.658 436.304 349.13 436.368 351.386H437.984C437.904 349.946 438.816 349.082 440.144 349.082C441.408 349.082 442.24 349.866 442.24 351.082C442.24 354.026 436.336 354.554 436.336 359.05V359.338ZM445.38 361.882H445.796C446.724 361.834 447.268 361.386 447.268 360.17V357.658H445.636V359.338H446.372V360.074C446.372 360.618 446.18 360.97 445.62 361.002H445.38V361.882ZM454.5 359.338H456.148V356.506H457.716V355.146H456.148V347.802H454.004L448.836 355.226V356.506H454.5V359.338ZM450.516 355.146L454.5 349.466V355.146H450.516ZM460.928 359.338H462.688C462.688 354.538 464.352 351.866 466.352 348.986V347.802H458.336V351.498H459.68V349.242H464.4C462.624 351.818 460.928 354.746 460.928 359.338ZM471.872 359.45C474.352 359.45 476.032 358.218 476.032 356.266C476.032 354.858 475.2 353.722 473.712 353.546V353.466C475.168 353.21 475.84 352.074 475.84 350.81C475.84 348.938 474.336 347.674 471.872 347.674C469.424 347.674 467.92 348.922 467.92 350.794C467.92 352.074 468.624 353.194 470.064 353.466V353.546C468.56 353.754 467.712 354.938 467.712 356.282C467.712 358.234 469.392 359.45 471.872 359.45ZM471.872 352.858C470.336 352.858 469.616 352.074 469.616 350.954C469.616 349.786 470.464 349.05 471.872 349.05C473.264 349.05 474.16 349.77 474.16 350.954C474.16 352.026 473.472 352.858 471.872 352.858ZM471.872 358.026C470.448 358.026 469.488 357.306 469.488 356.058C469.488 355.018 470.224 354.186 471.872 354.186C473.504 354.186 474.272 354.97 474.272 356.058C474.272 357.274 473.344 358.026 471.872 358.026Z" fill="#D9E1FA"/>
<defs>
<filter id="filter0_d_121_9203" x="0.701172" y="0.699219" width="516.01" height="395.072" filterUnits="userSpaceOnUse" color-interpolation-filters="sRGB">
<feFlood flood-opacity="0" result="BackgroundImageFix"/>
<feColorMatrix in="SourceAlpha" type="matrix" values="0 0 0 0 0 0 0 0 0 0 0 0 0 0 0 0 0 0 127 0" result="hardAlpha"/>
<feOffset dx="1" dy="1"/>
<feGaussianBlur stdDeviation="0.5"/>
<feComposite in2="hardAlpha" operator="out"/>
<feColorMatrix type="matrix" values="0 0 0 0 0.06125 0 0 0 0 0.0969792 0 0 0 0 0.204167 0 0 0 0.4 0"/>
<feBlend mode="normal" in2="BackgroundImageFix" result="effect1_dropShadow_121_9203"/>
<feBlend mode="normal" in="SourceGraphic" in2="effect1_dropShadow_121_9203" result="shape"/>
</filter>
</defs>
</svg>
