<svg width="197" height="48" viewBox="0 0 197 48" fill="none" xmlns="http://www.w3.org/2000/svg">
<rect x="2.5" y="15.5" width="39" height="17" rx="8.5" stroke="#C35CFF" stroke-width="5"/>
<path d="M58.462 11.4199H53.75V33.2499H58.462V11.4199Z" fill="white"/>
<path d="M65.4974 12.4199H61.0014V33.2499H65.4974V27.6702L71.3574 33.2499H77.4349L68.7899 25.1331L76.9878 18.7099H70.6674L65.4974 22.8662V12.4199Z" fill="white"/>
<path d="M137.062 11.4199H132.35V33.2499H148.942V29.0779H137.062V11.4199Z" fill="white"/>
<path fill-rule="evenodd" clip-rule="evenodd" d="M170.999 12.4199H166.503V33.2499H171.287L171.119 32.0217C172.178 33.1328 173.634 33.6819 175.474 33.6819C176.68 33.6819 177.785 33.3726 178.75 32.6912C179.709 32.0139 180.438 31.0855 180.967 29.917C181.496 28.747 181.772 27.4152 181.772 25.9259C181.772 24.4891 181.495 23.1847 180.967 22.0159C180.437 20.8449 179.707 19.9445 178.75 19.2686L178.746 19.2659C177.786 18.6163 176.684 18.2779 175.474 18.2779C173.563 18.2779 172.067 18.8699 170.999 20.068V12.4199ZM171.86 23.2766C172.432 22.5798 173.171 22.2339 174.097 22.2339C174.994 22.2339 175.736 22.5787 176.339 23.2554C176.941 23.959 177.249 24.8429 177.249 25.9529C177.249 27.0917 176.94 27.9759 176.337 28.6792C175.735 29.3814 174.994 29.7259 174.097 29.7259C173.171 29.7259 172.432 29.38 171.86 28.6832L171.857 28.6792C171.256 27.979 170.972 27.0966 170.972 25.9529C170.972 24.8649 171.256 23.9819 171.857 23.2807L171.86 23.2766Z" fill="white"/>
<path d="M79.7626 11.9599C78.9455 11.9599 78.2893 12.2255 77.755 12.7302L77.7499 12.7351C77.2159 13.2691 76.9476 13.9272 76.9476 14.6939C76.9476 15.5118 77.2139 16.1707 77.7499 16.7067C78.2905 17.2473 78.9521 17.4819 79.7626 17.4819C80.5549 17.4819 81.2134 17.2147 81.7484 16.6797C82.2834 16.1447 82.5506 15.4862 82.5506 14.6939C82.5506 13.9272 82.2825 13.2691 81.7485 12.7351L81.7433 12.7302C81.2099 12.2264 80.5541 11.9599 79.7626 11.9599Z" fill="white"/>
<path d="M120.285 11.9599C119.468 11.9599 118.811 12.2255 118.277 12.7302L118.272 12.7351C117.738 13.2691 117.47 13.9272 117.47 14.6939C117.47 15.5118 117.736 16.1707 118.272 16.7067C118.813 17.2473 119.474 17.4819 120.285 17.4819C121.077 17.4819 121.736 17.2147 122.271 16.6797C122.806 16.1447 123.073 15.4862 123.073 14.6939C123.073 13.9272 122.805 13.2691 122.271 12.7351L122.265 12.7302C121.732 12.2264 121.076 11.9599 120.285 11.9599Z" fill="white"/>
<path fill-rule="evenodd" clip-rule="evenodd" d="M90.1927 18.2779C88.9564 18.2779 87.8543 18.616 86.8936 19.2659L86.8895 19.2687C85.9353 19.9422 85.1766 20.8417 84.6719 22.0181C84.142 23.1905 83.8947 24.5222 83.8947 26.0069C83.8947 27.4653 84.1422 28.7448 84.6737 29.8649C85.1783 30.9851 85.9114 31.8337 86.8731 32.4282C87.8382 33.0521 88.9398 33.3309 90.1927 33.3309C92.0918 33.3309 93.5867 32.8071 94.6407 31.7337V32.0549C94.6407 33.3308 94.3992 34.1975 93.9226 34.7217L93.919 34.7259C93.4417 35.2747 92.7124 35.5579 91.6777 35.5579C90.8082 35.5579 90.1537 35.4256 89.6651 35.1569C89.1924 34.8969 88.9219 34.5087 88.8757 33.9773L88.8559 33.7489H84.332L84.3545 34.0197C84.4947 35.7015 85.1733 36.9906 86.4327 37.8497C87.6535 38.7009 89.3594 39.0819 91.4887 39.0819C93.992 39.0819 95.9197 38.5148 97.2223 37.3293C98.5294 36.1398 99.1637 34.3676 99.1637 32.0549V18.7099H94.3524L94.5188 19.8928C93.4757 18.8219 92.0242 18.2779 90.1927 18.2779ZM89.2755 23.1186C89.8765 22.4174 90.6175 22.0719 91.5427 22.0719C92.4388 22.0719 93.1797 22.4159 93.7812 23.1167C94.3587 23.8208 94.6677 24.7333 94.6677 25.8449C94.6677 26.9839 94.3586 27.8673 93.784 28.5428C93.1853 29.2154 92.4446 29.5369 91.5427 29.5369C90.5832 29.5369 89.8475 29.2132 89.279 28.5211L89.2725 28.5138C88.6754 27.8421 88.3907 26.962 88.3907 25.8449C88.3907 24.7274 88.6757 23.8184 89.2755 23.1186Z" fill="white"/>
<path fill-rule="evenodd" clip-rule="evenodd" d="M107.204 18.2779C105.967 18.2779 104.865 18.616 103.905 19.2659L103.901 19.2687C102.947 19.9421 102.188 20.8413 101.683 21.9904C101.154 23.162 100.906 24.4668 100.906 25.9259C100.906 27.4106 101.153 28.7423 101.683 29.9147C102.187 31.0888 102.944 32.0162 103.901 32.6912C104.866 33.373 105.972 33.6819 107.204 33.6819C109.032 33.6819 110.484 33.1587 111.528 32.0788L111.362 33.2499H116.175V18.7099H111.362L111.531 19.9056C110.473 18.8272 109.022 18.2779 107.204 18.2779ZM105.402 25.9529C105.402 24.8379 105.685 23.9557 106.285 23.2553C106.887 22.5795 107.629 22.2339 108.554 22.2339C109.45 22.2339 110.192 22.578 110.794 23.2534C111.371 23.9582 111.679 24.8437 111.679 25.9529C111.679 27.0908 111.37 27.9766 110.792 28.6811C110.191 29.382 109.45 29.7259 108.554 29.7259C107.629 29.7259 106.888 29.3805 106.287 28.6792C105.686 27.979 105.402 27.0966 105.402 25.9529Z" fill="white"/>
<path fill-rule="evenodd" clip-rule="evenodd" d="M155.67 18.2779C154.433 18.2779 153.331 18.616 152.371 19.2659L152.367 19.2687C151.413 19.9421 150.654 20.8413 150.149 21.9904C149.62 23.162 149.372 24.4668 149.372 25.9259C149.372 27.4105 149.619 28.7422 150.149 29.9145C150.653 31.0887 151.41 32.0161 152.367 32.6912C153.332 33.373 154.438 33.6819 155.67 33.6819C157.499 33.6819 158.952 33.1579 159.996 32.0764L159.833 33.2499H164.641V18.7099H159.833L159.999 19.9079C158.941 18.828 157.489 18.2779 155.67 18.2779ZM153.868 25.9529C153.868 24.838 154.151 23.9558 154.751 23.2554C155.352 22.5796 156.095 22.2339 157.02 22.2339C157.916 22.2339 158.658 22.578 159.26 23.2533C159.837 23.9581 160.145 24.8437 160.145 25.9529C160.145 27.0909 159.836 27.9768 159.258 28.6813C158.657 29.3821 157.916 29.7259 157.02 29.7259C156.095 29.7259 155.354 29.3805 154.753 28.6792C154.152 27.979 153.868 27.0966 153.868 25.9529Z" fill="white"/>
<path d="M190.14 18.2779C188.055 18.2779 186.381 18.7166 185.139 19.5634L185.136 19.5656C183.881 20.45 183.275 21.6607 183.275 23.1449C183.275 24.2653 183.556 25.1702 184.15 25.8241C184.723 26.4541 185.439 26.8831 186.238 27.1113C187.009 27.3318 187.994 27.5227 189.188 27.6856C190.309 27.8458 191.1 28.0311 191.618 28.212C191.857 28.3081 192.015 28.4256 192.114 28.5571C192.212 28.6868 192.266 28.848 192.266 29.0579C192.266 29.3832 192.087 29.6953 191.691 29.9919C191.321 30.2696 190.79 30.4009 190.086 30.4009C189.258 30.4009 188.61 30.2198 188.124 29.8791C187.644 29.5437 187.393 29.1042 187.393 28.5179V28.2679H182.92L182.924 28.5223C182.953 30.1362 183.609 31.4266 184.891 32.3387C186.137 33.2442 187.842 33.6819 189.978 33.6819C192.033 33.6819 193.683 33.2714 194.9 32.422C196.125 31.5678 196.762 30.4131 196.762 28.9229C196.762 27.7465 196.454 26.8156 195.86 26.1627L195.856 26.1583C195.262 25.5363 194.55 25.0782 193.746 24.8485L193.744 24.8479C192.95 24.6289 191.94 24.4105 190.741 24.2471L190.732 24.2462C189.657 24.1387 188.878 23.9791 188.401 23.7783L188.391 23.7743C188.169 23.6928 188.026 23.5837 187.936 23.4605C187.848 23.3382 187.798 23.1828 187.798 22.9829C187.798 22.5761 187.95 22.2455 188.318 21.969C188.666 21.7137 189.175 21.5589 189.897 21.5589C190.656 21.5589 191.219 21.759 191.655 22.0955C192.053 22.4501 192.272 22.9241 192.321 23.5429L192.34 23.7729H196.785L196.761 23.5011C196.621 21.9004 195.97 20.6192 194.777 19.6813C193.589 18.7478 192.045 18.2779 190.14 18.2779Z" fill="white"/>
<path d="M82.0106 18.7099H77.4876V33.2499H82.0106V18.7099Z" fill="white"/>
<path d="M122.533 18.7099H118.01V33.2499H122.533V18.7099Z" fill="white"/>
</svg>
