<svg width="201" height="48" viewBox="0 0 201 48" fill="none" xmlns="http://www.w3.org/2000/svg">
<path fill-rule="evenodd" clip-rule="evenodd" d="M18.3279 33.2066C19.157 32.2118 20.3851 31.6365 21.6802 31.6365H39.2727C44.0927 31.6365 48 27.7292 48 22.9093V18.5456C48 13.7257 44.0927 9.81836 39.2727 9.81836H35.862C34.567 9.81836 33.3388 10.3936 32.5098 11.3885L29.6721 14.7937C28.843 15.7886 27.6149 16.3638 26.3198 16.3638H8.72727C3.90733 16.3638 0 20.2711 0 25.0911V29.4547C0 34.2747 3.90733 38.182 8.72727 38.182H12.138C13.433 38.182 14.6612 37.6068 15.4902 36.6119L18.3279 33.2066ZM41.4545 18.5456C41.4545 17.3406 40.4777 16.3638 39.2727 16.3638H32.5893C31.2942 16.3638 30.0661 16.939 29.237 17.9339L26.3993 21.3392C25.5703 22.334 24.3421 22.9093 23.0471 22.9093H8.72727C7.52229 22.9093 6.54545 23.8861 6.54545 25.0911V29.4547C6.54545 30.6597 7.52229 31.6365 8.72727 31.6365H15.4107C16.7058 31.6365 17.9339 31.0613 18.763 30.0664L21.6007 26.6612C22.4297 25.6663 23.6579 25.0911 24.9529 25.0911H39.2727C40.4777 25.0911 41.4545 24.1143 41.4545 22.9093V18.5456Z" fill="#FBBC05"/>
<path d="M75.145 33.0005L72.148 22.4435L71.716 20.4995L71.257 22.4435L68.287 33.0005H63.427L58 14.6405H62.617L65.56 26.6825L66.046 28.8695L66.532 26.6825L69.934 14.6405H73.714L77.089 26.6825L77.575 28.8695L78.061 26.6825L81.004 14.6405H85.378L79.951 33.0005H75.145Z" fill="white"/>
<path d="M89.6634 23.2805H85.5324C85.9644 20.0135 88.4754 18.0155 92.2014 18.0155C96.3594 18.0155 98.5194 20.4455 98.5194 23.8205V29.3825C98.5194 31.2725 98.6814 32.2445 98.9244 33.0005H94.6584C94.5234 32.5145 94.4424 31.8935 94.4154 31.1915C93.2814 32.7575 91.5534 33.4325 89.8254 33.4325C87.0714 33.4325 85.0194 32.0285 85.0194 29.2475C85.0194 27.2765 86.1534 25.7645 88.4484 24.9545C90.3384 24.3335 92.1474 24.1445 94.3884 24.1175V23.7935C94.3884 22.2005 93.6054 21.3635 92.0124 21.3635C90.6084 21.3635 89.8524 22.1465 89.6634 23.2805ZM89.1504 28.9775C89.1504 29.9495 89.8794 30.5705 91.0944 30.5705C92.9304 30.5705 94.3884 29.0855 94.3884 27.0875V26.5205C90.2034 26.6015 89.1504 27.6275 89.1504 28.9775Z" fill="white"/>
<path d="M100.92 33.0005V18.4745H105.051V20.4995C105.969 18.7715 107.373 18.0155 108.858 18.0155C109.452 18.0155 109.992 18.1775 110.289 18.4745V21.9575C109.803 21.8495 109.29 21.7955 108.642 21.7955C106.158 21.7955 105.051 23.1995 105.051 25.4945V33.0005H100.92Z" fill="white"/>
<path d="M115.533 38.9675H111.402V18.4745H115.533V19.9865C116.424 18.7175 117.666 18.0155 119.178 18.0155C122.931 18.0155 125.28 20.9585 125.28 25.7105C125.28 30.6515 122.877 33.4325 119.178 33.4325C117.639 33.4325 116.397 32.7845 115.533 31.5425V38.9675ZM118.314 21.3635C116.478 21.3635 115.533 22.9025 115.533 25.7105C115.533 28.5185 116.505 30.0845 118.314 30.0845C120.096 30.0845 121.041 28.5455 121.041 25.7105C121.041 22.9025 120.069 21.3635 118.314 21.3635Z" fill="white"/>
<path d="M130.51 22.4975C130.51 25.3595 139.501 22.8485 139.501 28.5995C139.501 31.4615 136.855 33.4325 133.075 33.4325C129.403 33.4325 126.757 31.8125 126.217 28.2215H130.348C130.537 29.5715 131.644 30.3005 133.183 30.3005C134.641 30.3005 135.37 29.7335 135.37 28.8425C135.37 26.0345 126.568 28.5455 126.568 22.7135C126.568 20.2835 128.539 18.0155 132.427 18.0155C135.91 18.0155 138.556 19.6085 138.961 23.2805H134.857C134.614 21.7955 133.75 21.1745 132.292 21.1745C131.212 21.1745 130.51 21.7145 130.51 22.4975Z" fill="white"/>
<path d="M145.17 38.9675H141.039V18.4745H145.17V19.9865C146.061 18.7175 147.303 18.0155 148.815 18.0155C152.568 18.0155 154.917 20.9585 154.917 25.7105C154.917 30.6515 152.514 33.4325 148.815 33.4325C147.276 33.4325 146.034 32.7845 145.17 31.5425V38.9675ZM147.951 21.3635C146.115 21.3635 145.17 22.9025 145.17 25.7105C145.17 28.5185 146.142 30.0845 147.951 30.0845C149.733 30.0845 150.678 28.5455 150.678 25.7105C150.678 22.9025 149.706 21.3635 147.951 21.3635Z" fill="white"/>
<path d="M170.246 28.2215C169.49 31.5695 166.79 33.4325 163.226 33.4325C158.717 33.4325 155.936 30.5165 155.936 25.7375C155.936 20.7965 158.744 18.0155 163.064 18.0155C167.411 18.0155 170.138 20.9045 170.138 25.6565V26.5745H160.148C160.364 28.8965 161.444 30.1385 163.226 30.1385C164.576 30.1385 165.494 29.5445 165.926 28.2215H170.246ZM163.064 21.3095C161.525 21.3095 160.553 22.3085 160.229 24.1985H165.872C165.548 22.3085 164.576 21.3095 163.064 21.3095Z" fill="white"/>
<path d="M185.553 28.2215C184.797 31.5695 182.097 33.4325 178.533 33.4325C174.024 33.4325 171.243 30.5165 171.243 25.7375C171.243 20.7965 174.051 18.0155 178.371 18.0155C182.718 18.0155 185.445 20.9045 185.445 25.6565V26.5745H175.455C175.671 28.8965 176.751 30.1385 178.533 30.1385C179.883 30.1385 180.801 29.5445 181.233 28.2215H185.553ZM178.371 21.3095C176.832 21.3095 175.86 22.3085 175.536 24.1985H181.179C180.855 22.3085 179.883 21.3095 178.371 21.3095Z" fill="white"/>
<path d="M192.624 33.4325C188.898 33.4325 186.549 30.5165 186.549 25.7375C186.549 20.7965 188.952 18.0155 192.624 18.0155C194.163 18.0155 195.405 18.6635 196.296 19.9055V13.5605H200.427V33.0005H196.296V31.4615C195.405 32.7305 194.136 33.4325 192.624 33.4325ZM193.515 30.0845C195.351 30.0845 196.296 28.5725 196.296 25.7375C196.296 22.9295 195.324 21.3635 193.515 21.3635C191.733 21.3635 190.788 22.9025 190.788 25.7375C190.788 28.5455 191.76 30.0845 193.515 30.0845Z" fill="white"/>
</svg>
