<svg width="198" height="48" viewBox="0 0 198 48" fill="none" xmlns="http://www.w3.org/2000/svg">
<path fill-rule="evenodd" clip-rule="evenodd" d="M26.6797 2.01388C27.1267 1.78062 27.6611 1.7876 28.1019 2.03247L38.2284 7.65748C38.7046 7.92204 39 8.42403 39 8.96885L38.9993 20.2184C38.9993 20.7772 38.6886 21.2897 38.1932 21.5482L12.3196 35.0478C11.8725 35.2811 11.3381 35.2741 10.8973 35.0291L0.773445 29.4043C0.297359 29.1397 0.00205758 28.638 0.00196257 28.0933L2.29477e-08 16.8436C-9.74903e-05 16.2847 0.310589 15.7721 0.806135 15.5135L26.6797 2.01388ZM3.00016 17.7526L3.00153 25.6188L25.8753 13.6842L25.874 5.81805L3.00016 17.7526ZM28.874 5.89309L28.8753 13.7108L35.9995 17.669L35.9999 9.85139L28.874 5.89309ZM34.3361 20.1768L27.3531 16.297L4.66512 28.1346L11.6481 32.0144L34.3361 20.1768Z" fill="#1570EF"/>
<path opacity="0.5" fill-rule="evenodd" clip-rule="evenodd" d="M12.3203 46.2986C11.8733 46.5319 11.3389 46.5249 10.8981 46.28L0.771626 40.655C0.295353 40.3905 -2.61276e-05 39.8885 8.25229e-06 39.3436L0.000707325 28.0941C0.000741706 27.5353 0.311407 27.0228 0.806841 26.7643L26.6804 13.2647C27.1275 13.0314 27.6619 13.0384 28.1028 13.2834L38.2266 18.9082C38.7026 19.1728 38.9979 19.6745 38.998 20.2192L39 31.4689C39.0001 32.0278 38.6894 32.5404 38.1939 32.799L12.3203 46.2986ZM35.9998 30.5599L35.9985 22.6937L13.1247 34.6282L13.126 42.4944L35.9998 30.5599ZM10.126 42.4194L10.1247 34.6017L3.00055 30.6435L3.00006 38.4611L10.126 42.4194ZM4.66387 28.1357L11.6469 32.0155L34.3349 20.1779L27.3519 16.2981L4.66387 28.1357Z" fill="#1570EF"/>
<path d="M65.065 26.9791C65.065 30.6781 62.095 33.2701 57.235 33.2701C52.348 33.2701 49.297 30.6511 49 26.5471H53.158C53.266 28.6801 54.643 30.0571 57.154 30.0571C59.233 30.0571 60.718 29.1391 60.718 27.5731C60.718 26.3581 59.773 25.6291 58.126 25.3051L54.94 24.6841C51.997 24.1171 49.729 22.5241 49.729 19.3111C49.729 15.8551 52.78 13.3711 56.965 13.3711C61.312 13.3711 64.498 15.9091 64.768 19.9591H60.61C60.475 17.9341 59.071 16.5571 57.019 16.5571C55.021 16.5571 53.887 17.6911 53.887 19.0411C53.887 20.3641 55.102 20.9311 56.506 21.2011L59.827 21.8761C63.229 22.5511 65.065 24.1171 65.065 26.9791Z" fill="white"/>
<path d="M75.7568 29.3551V32.6221C74.8388 33.0811 73.9748 33.2701 72.8678 33.2701C69.8978 33.2701 68.0348 31.5691 68.0348 28.3291V21.7951H65.1188V18.5821H68.0348V14.3161H71.7608V18.5821H75.8918V21.7951H71.7608V27.4651C71.7608 29.1391 72.5168 29.8141 73.8668 29.8141C74.5688 29.8141 75.2168 29.6521 75.7568 29.3551Z" fill="white"/>
<path d="M85.6894 33.0001V31.2181C84.7444 32.5681 83.3134 33.2701 81.3424 33.2701C78.3454 33.2701 76.3474 31.5151 76.3474 28.8151C76.3474 26.0071 78.6154 24.4951 82.8274 24.4951C83.6374 24.4951 84.3394 24.5491 85.2304 24.6571V23.7931C85.2304 22.1731 84.3124 21.2281 82.7464 21.2281C81.1264 21.2281 80.1544 22.1731 80.0194 23.7931H76.6444C76.8604 20.4721 79.2634 18.3121 82.7464 18.3121C86.5264 18.3121 88.7404 20.3911 88.7404 23.9281V33.0001H85.6894ZM79.8844 28.7071C79.8844 29.9221 80.7484 30.6781 82.1524 30.6781C84.0694 30.6781 85.2304 29.6251 85.2304 27.9511V26.9251C84.3394 26.7901 83.7184 26.7361 83.0704 26.7361C80.9374 26.7361 79.8844 27.4111 79.8844 28.7071Z" fill="white"/>
<path d="M96.9695 33.2701C92.8115 33.2701 89.9495 30.1921 89.9495 25.7911C89.9495 21.4711 92.9195 18.3121 96.9695 18.3121C100.723 18.3121 103.504 20.8501 103.963 24.7381H100.021C99.8315 22.8211 98.6705 21.6331 96.9695 21.6331C95.0255 21.6331 93.7835 23.2261 93.7835 25.7911C93.7835 28.3831 94.9985 29.9491 96.9695 29.9491C98.6975 29.9491 99.8045 28.8151 100.021 26.8441H103.963C103.531 30.8131 100.831 33.2701 96.9695 33.2701Z" fill="white"/>
<path d="M109.045 33.0001H105.292V13.6141H109.045V24.6841L114.31 18.5821H118.63L112.663 25.4941L119.332 33.0001H114.553L109.045 26.3041V33.0001Z" fill="white"/>
<path d="M133.538 25.7911C133.538 21.5251 136.049 18.3121 139.937 18.3121C141.665 18.3121 143.123 19.0681 144.203 20.4451V13.6141H147.929V33.0001H144.5V30.9211C143.366 32.4331 141.8 33.2701 139.937 33.2701C136.049 33.2701 133.538 30.0031 133.538 25.7911ZM137.399 25.7911C137.399 28.4911 138.938 29.9221 140.774 29.9221C142.637 29.9221 144.176 28.4641 144.176 25.7371C144.176 23.0101 142.61 21.6331 140.774 21.6331C138.938 21.6331 137.399 23.0371 137.399 25.7911Z" fill="white"/>
<path d="M167.613 33.0001H155.085V13.6141H159.189V29.3011H167.613V33.0001Z" fill="white"/>
<path d="M177.613 33.0001V31.2181C176.668 32.5681 175.237 33.2701 173.266 33.2701C170.269 33.2701 168.271 31.5151 168.271 28.8151C168.271 26.0071 170.539 24.4951 174.751 24.4951C175.561 24.4951 176.263 24.5491 177.154 24.6571V23.7931C177.154 22.1731 176.236 21.2281 174.67 21.2281C173.05 21.2281 172.078 22.1731 171.943 23.7931H168.568C168.784 20.4721 171.187 18.3121 174.67 18.3121C178.45 18.3121 180.664 20.3911 180.664 23.9281V33.0001H177.613ZM171.808 28.7071C171.808 29.9221 172.672 30.6781 174.076 30.6781C175.993 30.6781 177.154 29.6251 177.154 27.9511V26.9251C176.263 26.7901 175.642 26.7361 174.994 26.7361C172.861 26.7361 171.808 27.4111 171.808 28.7071Z" fill="white"/>
<path d="M197.209 25.7911C197.209 30.0031 194.698 33.2701 190.81 33.2701C188.947 33.2701 187.381 32.4331 186.274 30.9211V33.0001H182.818V13.6141H186.571V20.4451C187.624 19.0411 189.082 18.3121 190.81 18.3121C194.698 18.3121 197.209 21.5251 197.209 25.7911ZM193.348 25.7911C193.348 23.0371 191.809 21.6331 189.973 21.6331C188.164 21.6331 186.598 23.0101 186.598 25.7371C186.598 28.4641 188.11 29.9221 189.973 29.9221C191.809 29.9221 193.348 28.4911 193.348 25.7911Z" fill="white"/>
<path d="M126.19 33.2431C130.132 33.2431 132.913 30.9211 132.94 27.6271H129.295C129.187 29.2741 127.999 30.2731 126.136 30.2731C124.192 30.2731 123.058 29.3011 123.058 27.6811C123.058 26.0881 124.381 25.1431 126.622 25.1431H128.593V22.1731H126.838C125.002 22.1731 123.895 21.2551 123.895 19.7701C123.895 18.3391 124.84 17.4481 126.406 17.4481C127.945 17.4481 128.917 18.4201 128.944 20.0131H132.589C132.562 16.8541 129.808 14.4781 126.217 14.4781C122.383 14.4781 120.034 16.5571 120.034 19.5001C120.034 21.1741 121.006 22.4971 122.761 23.4151C120.493 24.1441 119.197 25.6021 119.197 27.5731C119.197 30.9481 122.005 33.2431 126.19 33.2431Z" fill="white"/>
</svg>
