<svg width="200" height="48" viewBox="0 0 200 48" fill="none" xmlns="http://www.w3.org/2000/svg">
<path d="M31.1627 4H15.8374L3.5 16.3373V31.6626L15.8374 44H31.1627L43.5 31.6626V16.3373L31.1627 4ZM17.9578 31.8554L10.0542 23.9518L17.9578 16.0482C20.9458 13.0602 25.8615 13.0602 28.8494 16.0482L36.753 23.9518L28.8494 31.8554C25.8615 34.8434 21.0422 34.8434 17.9578 31.8554Z" fill="#35AEB6"/>
<path fill-rule="evenodd" clip-rule="evenodd" d="M101.842 31.4052C102.654 32.5362 104.162 33.2322 105.844 33.2322C110.165 33.2322 112.746 30.2452 112.746 25.6922C112.746 21.1392 110.165 18.1522 105.902 18.1522C104.075 18.1522 102.654 18.8482 101.842 19.9212V12.0332H97.8105V33.0002H101.842V31.4052ZM108.773 25.6922C108.773 28.1282 107.323 29.7522 105.206 29.7522C103.031 29.7522 101.61 28.1282 101.61 25.6922C101.61 23.2272 103.031 21.6032 105.206 21.6032C107.323 21.6032 108.773 23.2272 108.773 25.6922Z" fill="white"/>
<path fill-rule="evenodd" clip-rule="evenodd" d="M119.783 18.1522C123.466 18.1522 126.163 20.2982 126.163 23.6042V33.0002H122.161V30.9702C121.668 32.3332 120.044 33.2322 118.043 33.2322C115.201 33.2322 113.258 31.3472 113.258 28.8532C113.258 25.9822 115.404 24.2422 118.594 24.2422H121.059C121.784 24.2422 122.161 23.7782 122.161 23.1692C122.161 21.9512 121.204 21.1102 119.551 21.1102C117.782 21.1102 116.883 22.2122 116.825 23.4302H113.229C113.403 20.5012 115.781 18.1522 119.783 18.1522ZM119.058 30.3032C121.03 30.3032 122.161 28.8532 122.161 26.9972V26.7942H119.203C117.985 26.7942 117.115 27.5482 117.115 28.6792C117.115 29.6362 117.927 30.3032 119.058 30.3032Z" fill="white"/>
<path d="M128.002 12.0332V33.0002H132.033V12.0332H128.002Z" fill="white"/>
<path fill-rule="evenodd" clip-rule="evenodd" d="M134.465 12.7002H142.527C146.21 12.7002 148.965 14.5272 148.965 17.9202C148.965 19.8342 147.776 21.2842 146.587 21.9222C148.443 22.6472 150.009 24.2712 150.009 26.9392C150.009 30.7962 147.051 33.0002 142.759 33.0002H134.465V12.7002ZM138.757 20.4432H142.208C144.064 20.4432 144.934 19.6602 144.934 18.2972C144.934 16.9342 144.064 16.1512 142.121 16.1512H138.757V20.4432ZM138.757 29.2302H142.382C144.789 29.2302 145.862 28.3602 145.862 26.7072C145.862 25.0542 144.789 24.1262 142.382 24.1262H138.757V29.2302Z" fill="white"/>
<path fill-rule="evenodd" clip-rule="evenodd" d="M163.691 23.6042C163.691 20.2982 160.994 18.1522 157.311 18.1522C153.309 18.1522 150.931 20.5012 150.757 23.4302H154.353C154.411 22.2122 155.31 21.1102 157.079 21.1102C158.732 21.1102 159.689 21.9512 159.689 23.1692C159.689 23.7782 159.312 24.2422 158.587 24.2422H156.122C152.932 24.2422 150.786 25.9822 150.786 28.8532C150.786 31.3472 152.729 33.2322 155.571 33.2322C157.572 33.2322 159.196 32.3332 159.689 30.9702V33.0002H163.691V23.6042ZM159.689 26.9972C159.689 28.8532 158.558 30.3032 156.586 30.3032C155.455 30.3032 154.643 29.6362 154.643 28.6792C154.643 27.5482 155.513 26.7942 156.731 26.7942H159.689V26.9972Z" fill="white"/>
<path d="M165.298 33.0002V18.6302H169.358V20.4142C170.17 18.9932 171.794 18.1522 173.795 18.1522C177.101 18.1522 179.247 20.5302 179.247 23.8942V33.0002H175.187V24.7932C175.187 23.0242 174.056 21.7482 172.374 21.7482C170.605 21.7482 169.358 23.1112 169.358 24.9962V33.0002H165.298Z" fill="white"/>
<path d="M186.961 26.8232L191.108 33.0002H195.98L189.687 24.1262L195.267 18.6302H190.162L185.337 23.3722V12.0332H181.277V33.0002H185.337V28.4182L186.961 26.8232Z" fill="white"/>
<path fill-rule="evenodd" clip-rule="evenodd" d="M95.8105 22.5654L91.1654 17.9203H85.3756L80.7305 22.5654V28.3552L85.3756 33.0003H91.1654L95.8105 28.3552V22.5654ZM83.6079 25.4426L86.3717 28.2064C87.4302 29.2307 89.0776 29.2272 90.0973 28.2075L92.8622 25.4426L90.0973 22.6777C89.0761 21.6564 87.3941 21.6564 86.3728 22.6777L83.6079 25.4426Z" fill="white"/>
<path d="M74.7017 12.0332V33.0002H78.7327V12.0332H74.7017Z" fill="white"/>
<path d="M53.5 22.8502C53.5 29.7812 58.285 33.2322 63.476 33.2322C66.086 33.2322 68.232 31.8982 68.899 29.8972V33.0002H72.756V25.1702C72.756 24.3784 72.4771 23.6389 72 23.0635C71.4111 22.3534 70.5203 21.8932 69.479 21.8932H63.969V25.1702H67.884C68.377 25.1702 68.696 25.4892 68.696 25.9822C68.696 27.8672 66.202 29.6942 63.679 29.6942C60.315 29.6942 57.647 27.0552 57.647 22.8502C57.647 18.6452 60.315 16.2092 63.766 16.2092C66.376 16.2092 68.174 17.6302 68.493 19.8052H72.814C72.553 15.4552 68.899 12.4682 63.795 12.4682C58.43 12.4682 53.5 15.9192 53.5 22.8502Z" fill="white"/>
</svg>
