<svg width="190" height="48" viewBox="0 0 190 48" fill="none" xmlns="http://www.w3.org/2000/svg">
<rect y="4" width="10" height="10" fill="#155EEF"/>
<rect opacity="0.6" x="20" y="4" width="10" height="10" fill="#155EEF"/>
<rect opacity="0.6" x="10" y="14" width="10" height="10" fill="#155EEF"/>
<rect opacity="0.45" x="20" y="14" width="10" height="10" fill="#155EEF"/>
<rect opacity="0.3" x="30" y="14" width="10" height="10" fill="#155EEF"/>
<rect opacity="0.6" y="24" width="10" height="10" fill="#155EEF"/>
<rect opacity="0.45" x="10" y="24" width="10" height="10" fill="#155EEF"/>
<rect opacity="0.3" x="20" y="24" width="10" height="10" fill="#155EEF"/>
<rect opacity="0.15" x="30" y="24" width="10" height="10" fill="#155EEF"/>
<rect opacity="0.3" x="10" y="34" width="10" height="10" fill="#155EEF"/>
<rect opacity="0.15" x="20" y="34" width="10" height="10" fill="#155EEF"/>
<path d="M69.92 23.2194C69.92 25.9794 69.03 28.3494 67.25 30.3294C65.49 32.3094 63.03 33.2994 59.87 33.2994C56.69 33.2994 54.25 32.3094 52.55 30.3294C50.85 28.3494 50 25.9994 50 23.2794C50 20.4394 50.9 18.0494 52.7 16.1094C54.5 14.1694 56.93 13.1994 59.99 13.1994C63.11 13.1994 65.54 14.1894 67.28 16.1694C69.04 18.1294 69.92 20.4794 69.92 23.2194ZM65.57 23.3394C65.57 21.2594 65.09 19.6394 64.13 18.4794C63.17 17.3194 61.78 16.7394 59.96 16.7394C58.02 16.7394 56.6 17.3594 55.7 18.5994C54.8 19.8194 54.35 21.3494 54.35 23.1894C54.35 24.9694 54.79 26.5094 55.67 27.8094C56.55 29.1094 58.02 29.7594 60.08 29.7594C61.98 29.7594 63.37 29.1694 64.25 27.9894C65.13 26.7894 65.57 25.2394 65.57 23.3394Z" fill="white"/>
<path d="M86.7174 32.9994H81.0474V30.4794C80.6674 31.2594 80.1074 31.9294 79.3674 32.4894C78.6274 33.0294 77.6474 33.2994 76.4274 33.2994C74.6474 33.2994 73.2474 32.6894 72.2274 31.4694C71.2074 30.2494 70.6974 28.5894 70.6974 26.4894C70.6974 24.4694 71.1974 22.7494 72.1974 21.3294C73.1974 19.9094 74.7074 19.1994 76.7274 19.1994C77.8274 19.1994 78.7274 19.4194 79.4274 19.8594C80.1274 20.2994 80.6674 20.8594 81.0474 21.5394V15.2994H78.3474V12.3594H84.9174V30.0894H86.7174V32.9994ZM81.0474 26.1594V25.8294C81.0474 24.7094 80.7474 23.8394 80.1474 23.2194C79.5674 22.5794 78.8374 22.2594 77.9574 22.2594C77.0974 22.2594 76.3374 22.5794 75.6774 23.2194C75.0374 23.8594 74.7174 24.8694 74.7174 26.2494C74.7174 27.5494 75.0174 28.5394 75.6174 29.2194C76.2174 29.8994 76.9274 30.2394 77.7474 30.2394C78.7674 30.2394 79.5674 29.8094 80.1474 28.9494C80.7474 28.0894 81.0474 27.1594 81.0474 26.1594Z" fill="white"/>
<path d="M100.437 28.7394C100.337 29.9394 99.7468 30.9994 98.6668 31.9194C97.5868 32.8394 96.0768 33.2994 94.1368 33.2994C92.1168 33.2994 90.4468 32.7294 89.1268 31.5894C87.8268 30.4494 87.1768 28.7494 87.1768 26.4894C87.1768 24.4094 87.7668 22.6794 88.9468 21.2994C90.1468 19.8994 91.8168 19.1994 93.9568 19.1994C95.8368 19.1994 97.3568 19.7394 98.5168 20.8194C99.6968 21.8994 100.297 23.3194 100.317 25.0794C100.317 25.7394 100.247 26.3894 100.107 27.0294H91.2268C91.4468 29.1694 92.5068 30.2394 94.4068 30.2394C95.4468 30.2394 96.1468 29.9894 96.5068 29.4894C96.8868 28.9894 97.1168 28.5394 97.1968 28.1394L100.437 28.7394ZM96.3268 24.7794C96.4068 24.0994 96.2568 23.4594 95.8768 22.8594C95.5168 22.2594 94.8768 21.9594 93.9568 21.9594C93.1568 21.9594 92.5368 22.2194 92.0968 22.7394C91.6568 23.2594 91.3768 23.9394 91.2568 24.7794H96.3268Z" fill="white"/>
<path d="M102.489 20.4294C103.669 19.9494 104.649 19.6294 105.429 19.4694C106.229 19.2894 107.179 19.1994 108.279 19.1994C109.739 19.1994 110.999 19.5794 112.059 20.3394C113.119 21.0994 113.649 22.2494 113.649 23.7894V29.6694C113.649 30.3694 113.959 30.7194 114.579 30.7194C114.759 30.7194 114.949 30.6894 115.149 30.6294L115.179 32.6694C114.399 33.0894 113.589 33.2994 112.749 33.2994C110.969 33.2994 109.979 32.4094 109.779 30.6294V30.5994C109.399 31.2794 108.849 31.8994 108.129 32.4594C107.429 33.0194 106.529 33.2994 105.429 33.2994C104.449 33.2994 103.509 33.0094 102.609 32.4294C101.709 31.8494 101.259 30.8494 101.259 29.4294C101.259 27.7694 101.919 26.6694 103.239 26.1294C104.579 25.5894 106.019 25.3194 107.559 25.3194C108.419 25.3194 109.159 25.3594 109.779 25.4394V24.9894C109.779 24.2894 109.679 23.6094 109.479 22.9494C109.299 22.2894 108.659 21.9594 107.559 21.9594C107.159 21.9594 106.789 21.9894 106.449 22.0494C106.129 22.0894 105.809 22.1894 105.489 22.3494L104.979 24.2694L101.889 23.9394L102.489 20.4294ZM109.779 27.4794V27.2994C109.459 27.2594 109.129 27.2194 108.789 27.1794C108.469 27.1394 108.149 27.1194 107.829 27.1194C107.149 27.1194 106.549 27.2494 106.029 27.5094C105.509 27.7494 105.249 28.2394 105.249 28.9794C105.249 29.4194 105.369 29.7894 105.609 30.0894C105.849 30.3894 106.259 30.5394 106.839 30.5394C107.519 30.5394 108.149 30.2994 108.729 29.8194C109.329 29.3194 109.679 28.5394 109.779 27.4794Z" fill="white"/>
<path d="M130.115 26.2494C130.115 28.3894 129.415 30.0994 128.015 31.3794C126.615 32.6594 124.835 33.2994 122.675 33.2994C120.595 33.2994 118.895 32.6994 117.575 31.4994C116.275 30.2794 115.625 28.5794 115.625 26.3994C115.625 24.4194 116.225 22.7194 117.425 21.2994C118.625 19.8794 120.445 19.1694 122.885 19.1694C125.325 19.1694 127.135 19.8794 128.315 21.2994C129.515 22.6994 130.115 24.3494 130.115 26.2494ZM126.125 26.1294C126.125 24.7494 125.805 23.7394 125.165 23.0994C124.525 22.4594 123.745 22.1394 122.825 22.1394C121.825 22.1394 121.035 22.4994 120.455 23.2194C119.895 23.9194 119.615 24.9094 119.615 26.1894C119.615 27.3494 119.875 28.3294 120.395 29.1294C120.935 29.9294 121.735 30.3294 122.795 30.3294C123.795 30.3294 124.595 29.9594 125.195 29.2194C125.815 28.4594 126.125 27.4294 126.125 26.1294Z" fill="white"/>
<path d="M145.293 32.9994H130.653V29.5794H132.753V16.9194H130.653V13.4994H139.503V16.9194H136.773V29.5794H141.873L142.473 25.7994L145.893 26.0994L145.293 32.9994Z" fill="white"/>
<path d="M147.652 20.4294C148.832 19.9494 149.812 19.6294 150.592 19.4694C151.392 19.2894 152.342 19.1994 153.442 19.1994C154.902 19.1994 156.162 19.5794 157.222 20.3394C158.282 21.0994 158.812 22.2494 158.812 23.7894V29.6694C158.812 30.3694 159.122 30.7194 159.742 30.7194C159.922 30.7194 160.112 30.6894 160.312 30.6294L160.342 32.6694C159.562 33.0894 158.752 33.2994 157.912 33.2994C156.132 33.2994 155.142 32.4094 154.942 30.6294V30.5994C154.562 31.2794 154.012 31.8994 153.292 32.4594C152.592 33.0194 151.692 33.2994 150.592 33.2994C149.612 33.2994 148.672 33.0094 147.772 32.4294C146.872 31.8494 146.422 30.8494 146.422 29.4294C146.422 27.7694 147.082 26.6694 148.402 26.1294C149.742 25.5894 151.182 25.3194 152.722 25.3194C153.582 25.3194 154.322 25.3594 154.942 25.4394V24.9894C154.942 24.2894 154.842 23.6094 154.642 22.9494C154.462 22.2894 153.822 21.9594 152.722 21.9594C152.322 21.9594 151.952 21.9894 151.612 22.0494C151.292 22.0894 150.972 22.1894 150.652 22.3494L150.142 24.2694L147.052 23.9394L147.652 20.4294ZM154.942 27.4794V27.2994C154.622 27.2594 154.292 27.2194 153.952 27.1794C153.632 27.1394 153.312 27.1194 152.992 27.1194C152.312 27.1194 151.712 27.2494 151.192 27.5094C150.672 27.7494 150.412 28.2394 150.412 28.9794C150.412 29.4194 150.532 29.7894 150.772 30.0894C151.012 30.3894 151.422 30.5394 152.002 30.5394C152.682 30.5394 153.312 30.2994 153.892 29.8194C154.492 29.3194 154.842 28.5394 154.942 27.4794Z" fill="white"/>
<path d="M176.087 25.9194C176.087 27.9194 175.557 29.6494 174.497 31.1094C173.457 32.5694 171.917 33.2994 169.877 33.2994C167.817 33.2994 166.367 32.5194 165.527 30.9594C165.487 31.2994 165.437 31.6394 165.377 31.9794C165.337 32.3194 165.287 32.6594 165.227 32.9994H161.357C161.497 32.2994 161.617 31.5994 161.717 30.8994C161.817 30.1994 161.867 29.5094 161.867 28.8294V15.2994H160.067V12.3594H165.737V22.0494C166.097 21.2694 166.637 20.5994 167.357 20.0394C168.097 19.4794 169.077 19.1994 170.297 19.1994C171.997 19.1994 173.387 19.7894 174.467 20.9694C175.547 22.1494 176.087 23.7994 176.087 25.9194ZM172.067 26.2494C172.067 24.9494 171.787 23.9594 171.227 23.2794C170.667 22.5994 169.927 22.2594 169.007 22.2594C167.967 22.2594 167.157 22.6394 166.577 23.3994C166.017 24.1594 165.737 25.0394 165.737 26.0394V26.3694C165.737 27.4694 166.007 28.3994 166.547 29.1594C167.107 29.8994 167.897 30.2694 168.917 30.2694C169.797 30.2694 170.537 29.9494 171.137 29.3094C171.757 28.6494 172.067 27.6294 172.067 26.2494Z" fill="white"/>
<path d="M189.161 28.8594C189.161 30.3594 188.561 31.4794 187.361 32.2194C186.181 32.9394 184.641 33.2994 182.741 33.2994C181.761 33.2994 180.771 33.1994 179.771 32.9994C178.791 32.7794 177.851 32.4394 176.951 31.9794L177.491 28.1994L180.491 28.5294V30.2094C180.851 30.3294 181.231 30.4094 181.631 30.4494C182.031 30.4694 182.331 30.4794 182.531 30.4794C183.271 30.4794 183.911 30.3594 184.451 30.1194C184.991 29.8794 185.261 29.5194 185.261 29.0394C185.261 28.4594 184.851 28.0794 184.031 27.8994C183.211 27.7194 182.261 27.5394 181.181 27.3594C180.101 27.1794 179.151 26.8094 178.331 26.2494C177.511 25.6894 177.101 24.7394 177.101 23.3994C177.101 21.7394 177.741 20.6294 179.021 20.0694C180.321 19.4894 181.661 19.1994 183.041 19.1994C184.841 19.1994 186.531 19.6094 188.111 20.4294L188.441 23.8794L185.441 24.2094L185.201 22.3194C184.541 22.0994 183.831 21.9894 183.071 21.9894C182.571 21.9894 182.141 22.0994 181.781 22.3194C181.441 22.5194 181.271 22.8394 181.271 23.2794C181.271 23.8594 181.661 24.2494 182.441 24.4494C183.241 24.6294 184.161 24.8094 185.201 24.9894C186.261 25.1694 187.181 25.5394 187.961 26.0994C188.761 26.6394 189.161 27.5594 189.161 28.8594Z" fill="white"/>
</svg>
