<svg width="157" height="48" viewBox="0 0 157 48" fill="none" xmlns="http://www.w3.org/2000/svg">
<rect x="0.601562" y="19.1992" width="9.59998" height="9.59999" fill="#099250"/>
<rect x="31.3984" y="28.8008" width="9.6" height="9.59999" transform="rotate(180 31.3984 28.8008)" fill="#099250"/>
<path opacity="0.2" d="M10.1992 19.1996L21.7992 9.59961V19.1996L10.1992 28.7996V19.1996Z" fill="#099250"/>
<path opacity="0.5" d="M21.7969 28.8004L10.1969 38.4004L10.1969 28.8004L21.7969 19.2004L21.7969 28.8004Z" fill="#099250"/>
<path opacity="0.6" d="M0.601562 19.2L21.8015 0V9.59999L10.2015 19.2H0.601562Z" fill="#099250"/>
<path opacity="0.7" d="M31.3984 28.8L10.1985 48L10.1985 38.4L21.7984 28.8L31.3984 28.8Z" fill="#099250"/>
<path d="M50.127 33.2432C47.463 33.2432 45.438 32.6492 44.052 31.4612C42.684 30.2732 42 28.7252 42 26.8172H46.266C46.302 27.7892 46.626 28.5722 47.238 29.1662C47.868 29.7422 48.885 30.0302 50.289 30.0302C51.369 30.0302 52.233 29.8322 52.881 29.4362C53.529 29.0402 53.853 28.4552 53.853 27.6812C53.853 27.0512 53.718 26.5652 53.448 26.2232C53.178 25.8632 52.71 25.5842 52.044 25.3862C51.378 25.1882 50.451 24.9902 49.263 24.7922C46.995 24.4322 45.285 23.8202 44.133 22.9562C42.981 22.0742 42.405 20.7782 42.405 19.0682C42.405 17.2142 43.089 15.7562 44.457 14.6942C45.825 13.6142 47.706 13.0742 50.1 13.0742C51.648 13.0742 52.98 13.3172 54.096 13.8032C55.212 14.2892 56.076 14.9732 56.688 15.8552C57.318 16.7372 57.633 17.7632 57.633 18.9332H53.394C53.358 17.9792 53.007 17.2952 52.341 16.8812C51.693 16.4672 50.901 16.2602 49.965 16.2602C48.975 16.2602 48.192 16.4672 47.616 16.8812C47.058 17.2772 46.779 17.8262 46.779 18.5282C46.779 19.1402 46.941 19.5992 47.265 19.9052C47.589 20.2112 48.093 20.4452 48.777 20.6072C49.479 20.7692 50.397 20.9492 51.531 21.1472C52.359 21.2732 53.169 21.4442 53.961 21.6602C54.753 21.8762 55.464 22.2002 56.094 22.6322C56.742 23.0462 57.255 23.6312 57.633 24.3872C58.029 25.1252 58.227 26.0882 58.227 27.2762C58.227 29.0402 57.543 30.4802 56.175 31.5962C54.825 32.6942 52.809 33.2432 50.127 33.2432Z" fill="white"/>
<path d="M60.41 16.6652V13.3172H64.379V16.6652H60.41ZM60.41 33.0002V18.5282H64.379V33.0002H60.41Z" fill="white"/>
<path d="M72.9523 33.2702C70.8463 33.2702 69.2173 32.8292 68.0653 31.9472C66.9313 31.0472 66.3733 29.8772 66.3913 28.4372H70.2793C70.2973 29.2112 70.5673 29.7692 71.0893 30.1112C71.6293 30.4352 72.2863 30.5972 73.0603 30.5972C73.8703 30.5972 74.4823 30.4622 74.8963 30.1922C75.3103 29.9042 75.5173 29.5172 75.5173 29.0312C75.5173 28.3652 75.2743 27.9332 74.7883 27.7352C74.3203 27.5372 73.5733 27.3662 72.5473 27.2222C71.4853 27.0782 70.5133 26.8712 69.6313 26.6012C68.7493 26.3132 68.0473 25.8812 67.5253 25.3052C67.0213 24.7292 66.7693 23.9102 66.7693 22.8482C66.7693 21.3182 67.3453 20.1752 68.4973 19.4192C69.6673 18.6452 71.1973 18.2582 73.0873 18.2582C74.9413 18.2582 76.4173 18.6632 77.5153 19.4732C78.6133 20.2652 79.1803 21.3812 79.2163 22.8212H75.3283C75.3283 22.2092 75.1123 21.7412 74.6803 21.4172C74.2663 21.0932 73.6993 20.9312 72.9793 20.9312C72.2413 20.9312 71.6833 21.0752 71.3053 21.3632C70.9273 21.6332 70.7383 21.9932 70.7383 22.4432C70.7383 22.9832 70.9813 23.3612 71.4673 23.5772C71.9533 23.7932 72.7273 23.9732 73.7893 24.1172C74.5453 24.2252 75.2653 24.3602 75.9493 24.5222C76.6333 24.6662 77.2363 24.9002 77.7583 25.2242C78.2983 25.5302 78.7213 25.9622 79.0273 26.5202C79.3513 27.0602 79.5133 27.7712 79.5133 28.6532C79.5133 30.2372 78.9283 31.4072 77.7583 32.1632C76.5883 32.9012 74.9863 33.2702 72.9523 33.2702Z" fill="white"/>
<path d="M80.5718 37.5092V34.2422H82.2458C82.8398 34.2422 83.3078 34.1162 83.6498 33.8642C84.0098 33.6302 84.2798 33.2612 84.4598 32.7572L84.8108 31.8662L79.2758 18.5282H83.6228L86.2688 26.2772L86.7278 27.8162H86.8628L87.2948 26.2772L89.7788 18.5282H94.0178L88.3748 33.6752C87.8168 35.1872 87.0878 36.2042 86.1878 36.7262C85.3058 37.2482 84.2438 37.5092 83.0018 37.5092H80.5718Z" fill="white"/>
<path d="M95.124 37.5092V18.5282H98.958L99.093 21.0392H99.309C99.651 20.1932 100.218 19.5182 101.01 19.0142C101.82 18.5102 102.783 18.2582 103.899 18.2582C105.627 18.2582 107.022 18.8882 108.084 20.1482C109.164 21.3902 109.704 23.2622 109.704 25.7642C109.704 28.2482 109.164 30.1202 108.084 31.3802C107.022 32.6402 105.627 33.2702 103.899 33.2702C102.783 33.2702 101.82 33.0182 101.01 32.5142C100.218 31.9922 99.651 31.3172 99.309 30.4892H99.093V37.5092H95.124ZM102.414 30.0572C103.386 30.0572 104.16 29.7152 104.736 29.0312C105.33 28.3292 105.627 27.2402 105.627 25.7642C105.627 24.2882 105.33 23.2082 104.736 22.5242C104.16 21.8222 103.386 21.4712 102.414 21.4712C101.676 21.4712 101.064 21.6422 100.578 21.9842C100.092 22.3262 99.732 22.7762 99.498 23.3342C99.264 23.8742 99.147 24.4502 99.147 25.0622V26.4662C99.147 27.0782 99.264 27.6632 99.498 28.2212C99.732 28.7612 100.092 29.2022 100.578 29.5442C101.064 29.8862 101.676 30.0572 102.414 30.0572Z" fill="white"/>
<path d="M111.67 33.0002V13.3172H115.639V21.1472H115.801C116.197 20.1932 116.809 19.4732 117.637 18.9872C118.465 18.5012 119.392 18.2582 120.418 18.2582C121.39 18.2582 122.254 18.4562 123.01 18.8522C123.784 19.2482 124.396 19.8872 124.846 20.7692C125.296 21.6332 125.521 22.7942 125.521 24.2522V33.0002H121.552V25.1162C121.552 23.8922 121.336 22.9832 120.904 22.3892C120.472 21.7952 119.779 21.4982 118.825 21.4982C117.799 21.4982 117.007 21.8492 116.449 22.5512C115.909 23.2352 115.639 24.0362 115.639 24.9542V33.0002H111.67Z" fill="white"/>
<path d="M133.001 33.2432C131.327 33.2432 130.049 32.7572 129.167 31.7852C128.285 30.8132 127.844 29.4002 127.844 27.5462V18.5282H131.813V26.4932C131.813 27.6452 132.02 28.5272 132.434 29.1392C132.866 29.7332 133.577 30.0302 134.567 30.0302C135.575 30.0302 136.349 29.6882 136.889 29.0042C137.447 28.3022 137.726 27.4742 137.726 26.5202V18.5282H141.695V33.0002H137.888L137.726 30.3542H137.537C137.195 31.2902 136.61 32.0102 135.782 32.5142C134.972 33.0002 134.045 33.2432 133.001 33.2432Z" fill="white"/>
<path d="M150.224 33.2702C148.118 33.2702 146.489 32.8292 145.337 31.9472C144.203 31.0472 143.645 29.8772 143.663 28.4372H147.551C147.569 29.2112 147.839 29.7692 148.361 30.1112C148.901 30.4352 149.558 30.5972 150.332 30.5972C151.142 30.5972 151.754 30.4622 152.168 30.1922C152.582 29.9042 152.789 29.5172 152.789 29.0312C152.789 28.3652 152.546 27.9332 152.06 27.7352C151.592 27.5372 150.845 27.3662 149.819 27.2222C148.757 27.0782 147.785 26.8712 146.903 26.6012C146.021 26.3132 145.319 25.8812 144.797 25.3052C144.293 24.7292 144.041 23.9102 144.041 22.8482C144.041 21.3182 144.617 20.1752 145.769 19.4192C146.939 18.6452 148.469 18.2582 150.359 18.2582C152.213 18.2582 153.689 18.6632 154.787 19.4732C155.885 20.2652 156.452 21.3812 156.488 22.8212H152.6C152.6 22.2092 152.384 21.7412 151.952 21.4172C151.538 21.0932 150.971 20.9312 150.251 20.9312C149.513 20.9312 148.955 21.0752 148.577 21.3632C148.199 21.6332 148.01 21.9932 148.01 22.4432C148.01 22.9832 148.253 23.3612 148.739 23.5772C149.225 23.7932 149.999 23.9732 151.061 24.1172C151.817 24.2252 152.537 24.3602 153.221 24.5222C153.905 24.6662 154.508 24.9002 155.03 25.2242C155.57 25.5302 155.993 25.9622 156.299 26.5202C156.623 27.0602 156.785 27.7712 156.785 28.6532C156.785 30.2372 156.2 31.4072 155.03 32.1632C153.86 32.9012 152.258 33.2702 150.224 33.2702Z" fill="white"/>
</svg>
