<svg width="181" height="48" viewBox="0 0 181 48" fill="none" xmlns="http://www.w3.org/2000/svg">
<path fill-rule="evenodd" clip-rule="evenodd" d="M16.1746 28.4933L20.7434 33.0621C23.5238 35.8425 28.0316 35.8425 30.812 33.0621C31.7289 32.1452 32.3435 31.0403 32.6556 29.8715L35.8462 33.0621C38.6266 35.8425 43.1344 35.8425 45.9147 33.0621C48.6951 30.2818 48.6951 25.774 45.9147 22.9936L35.8462 12.9251C33.0659 10.1448 28.558 10.1448 25.7777 12.9251C24.8607 13.8421 24.2462 14.9469 23.9341 16.1157L20.7434 12.9251C17.9631 10.1448 13.4553 10.1448 10.6749 12.9251L2.38936 21.2107C-0.796453 24.3965 -0.796453 29.5617 2.38936 32.7475C5.57517 35.9333 10.7404 35.9333 13.9262 32.7475C15.1322 31.5415 15.8817 30.0519 16.1746 28.4933ZM18.2263 15.4422C16.8361 14.0521 14.5822 14.0521 13.192 15.4422C11.8025 16.8318 11.8019 19.0844 13.1903 20.4747L23.2606 30.545C24.6507 31.9352 26.9047 31.9352 28.2948 30.545C29.6843 29.1556 29.685 26.9033 28.297 25.513L18.2263 15.4422ZM11.4091 23.7278L8.15778 20.4765L4.90649 23.7278C3.11085 25.5234 3.11085 28.4347 4.90649 30.2304C6.70213 32.026 9.61344 32.026 11.4091 30.2304C13.2047 28.4347 13.2047 25.5234 11.4091 23.7278ZM28.2919 20.4735C26.9047 19.0831 26.9056 16.8314 28.2948 15.4422C29.685 14.0521 31.9389 14.0521 33.3291 15.4422L43.3976 25.5108C44.7878 26.9009 44.7878 29.1548 43.3976 30.545C42.0074 31.9352 39.7535 31.9352 38.3634 30.545L28.2919 20.4735Z" fill="#DD2590"/>
<path d="M60.553 32.9988H56V11.5388H60.553L66.933 25.5468L73.342 11.5388H77.953V32.9988H73.4V28.5038C73.4 23.8638 73.4 22.8488 73.632 21.2538L69.079 30.9988H64.787L60.263 21.2538C60.524 22.8488 60.553 24.6468 60.553 26.9958V32.9988Z" fill="white"/>
<path d="M86.2509 33.3758C83.1769 33.3758 81.2629 31.5778 81.2629 28.7358C81.2629 26.0678 83.1479 24.4148 86.6279 24.1538L90.6879 23.8348V23.6028C90.6879 22.1818 89.8179 21.4278 88.2229 21.4278C86.3379 21.4278 85.3229 22.1528 85.3229 23.4578H81.6109C81.6109 20.1808 84.3079 18.0348 88.4549 18.0348C92.6599 18.0348 95.0379 20.3838 95.0379 24.5308V32.9988H91.0939L90.8039 31.0848C90.3399 32.4188 88.4258 33.3758 86.2509 33.3758ZM87.8169 30.0698C89.5279 30.0698 90.7169 29.2288 90.7169 27.5758V26.7928L88.4549 26.9958C86.5119 27.1698 85.8159 27.6048 85.8159 28.5328C85.8159 29.5768 86.4539 30.0698 87.8169 30.0698Z" fill="white"/>
<path d="M97.516 25.4878C97.516 21.0798 100.387 18.0058 104.476 18.0058C106.448 18.0058 108.014 18.7598 108.797 19.9488L109.029 18.4988H113.234V32.0708C113.234 37.2618 110.247 40.3938 105.288 40.3938C100.851 40.3938 97.864 37.8708 97.458 33.7528H101.982C102.069 35.3768 103.287 36.3338 105.259 36.3338C107.405 36.3338 108.768 35.0578 108.768 32.9988V31.1138C107.898 32.1578 106.274 32.8248 104.389 32.8248C100.329 32.8248 97.516 29.8378 97.516 25.4878ZM102.011 25.3718C102.011 27.4598 103.403 28.9388 105.375 28.9388C107.405 28.9388 108.768 27.5178 108.768 25.3718C108.768 23.2548 107.405 21.8918 105.346 21.8918C103.374 21.8918 102.011 23.3128 102.011 25.3718Z" fill="white"/>
<path d="M121.059 32.9988H116.593V18.4988H120.798L121.088 20.0068C121.987 18.7598 123.64 18.0348 125.525 18.0348C128.976 18.0348 130.977 20.2388 130.977 24.0378V32.9988H126.511V25.1108C126.511 23.2838 125.496 22.0948 123.959 22.0948C122.19 22.0948 121.059 23.2548 121.059 25.0528V32.9988Z" fill="white"/>
<path d="M133.396 25.7198C133.396 21.1378 136.76 18.0638 141.4 18.0638C146.011 18.0638 149.375 21.1378 149.375 25.7198C149.375 30.3018 146.011 33.3468 141.4 33.3468C136.76 33.3468 133.396 30.3018 133.396 25.7198ZM137.891 25.6908C137.891 27.8948 139.312 29.3448 141.4 29.3448C143.459 29.3448 144.88 27.8948 144.88 25.6908C144.88 23.5158 143.459 22.0658 141.4 22.0658C139.312 22.0658 137.891 23.5158 137.891 25.6908Z" fill="white"/>
<path d="M156.431 32.9988H151.965V11.1328H156.431V32.9988Z" fill="white"/>
<path d="M161.985 16.2368C160.564 16.2368 159.433 15.1058 159.433 13.6848C159.433 12.2638 160.564 11.1618 161.985 11.1618C163.377 11.1618 164.508 12.2638 164.508 13.6848C164.508 15.1058 163.377 16.2368 161.985 16.2368ZM159.781 32.9988V18.4988H164.247V32.9988H159.781Z" fill="white"/>
<path d="M171.976 33.3758C168.902 33.3758 166.988 31.5778 166.988 28.7358C166.988 26.0678 168.873 24.4148 172.353 24.1538L176.413 23.8348V23.6028C176.413 22.1818 175.543 21.4278 173.948 21.4278C172.063 21.4278 171.048 22.1528 171.048 23.4578H167.336C167.336 20.1808 170.033 18.0348 174.18 18.0348C178.385 18.0348 180.763 20.3838 180.763 24.5308V32.9988H176.819L176.529 31.0848C176.065 32.4188 174.151 33.3758 171.976 33.3758ZM173.542 30.0698C175.253 30.0698 176.442 29.2288 176.442 27.5758V26.7928L174.18 26.9958C172.237 27.1698 171.541 27.6048 171.541 28.5328C171.541 29.5768 172.179 30.0698 173.542 30.0698Z" fill="white"/>
</svg>
