<svg width="80" height="80" viewBox="0 0 80 80" fill="none" xmlns="http://www.w3.org/2000/svg">
<path fill-rule="evenodd" clip-rule="evenodd" d="M12.1758 55.8046C11.5552 56.8578 10.8583 58.0798 10.2664 59.0535C9.73662 59.9853 10.021 61.1869 10.9061 61.756L23.3169 69.7044C23.7526 69.9843 24.278 70.0704 24.7752 69.9434C25.2725 69.8164 25.6998 69.4868 25.9614 69.0288C26.4578 68.1644 27.0975 67.0417 27.7944 65.8395C32.711 57.3943 37.6563 58.4276 46.573 62.8588L58.8788 68.9493C59.3449 69.1802 59.8809 69.2048 60.3648 69.0176C60.8486 68.8305 61.239 68.4474 61.4469 67.9557L67.3564 54.046C67.7739 53.0526 67.3491 51.8942 66.4017 51.4429C63.805 50.1712 58.6402 47.6376 53.9909 45.3028C37.2648 36.8477 23.0496 37.3941 12.1758 55.8046Z" fill="url(#paint0_linear_56_9235)"/>
<path fill-rule="evenodd" clip-rule="evenodd" d="M67.8246 24.2388C68.4451 23.1856 69.1421 21.9635 69.734 20.9899C70.2638 20.0581 69.9794 18.8564 69.0943 18.2874L56.6835 10.339C56.2443 10.0311 55.7019 9.92691 55.1861 10.0512C54.6702 10.1756 54.2271 10.5173 53.9626 10.9947C53.4662 11.8591 52.8265 12.9818 52.1296 14.184C47.213 22.6292 42.2678 21.5959 33.351 17.1647L21.0833 11.104C20.6173 10.8732 20.0813 10.8485 19.5974 11.0357C19.1136 11.2229 18.7232 11.6059 18.5153 12.0976L12.6058 26.0073C12.1883 27.0007 12.6131 28.1591 13.5605 28.6104C16.1572 29.8821 21.322 32.4157 25.9713 34.7505C42.7355 43.1957 56.9508 42.6294 67.8246 24.2388Z" fill="url(#paint1_linear_56_9235)"/>
<defs>
<linearGradient id="paint0_linear_56_9235" x1="67.0223" y1="73.8078" x2="52.1664" y2="41.0596" gradientUnits="userSpaceOnUse">
<stop offset="0.18" stop-color="#0052CC"/>
<stop offset="1" stop-color="#2684FF"/>
</linearGradient>
<linearGradient id="paint1_linear_56_9235" x1="12.9781" y1="6.22568" x2="27.8573" y2="38.9889" gradientUnits="userSpaceOnUse">
<stop offset="0.18" stop-color="#0052CC"/>
<stop offset="1" stop-color="#2684FF"/>
</linearGradient>
</defs>
</svg>
