<svg width="80" height="80" viewBox="0 0 80 80" fill="none" xmlns="http://www.w3.org/2000/svg">
<path d="M5 29.8889C5 21.177 5 16.821 6.69545 13.4935C8.18682 10.5665 10.5665 8.18682 13.4935 6.69545C16.821 5 21.177 5 29.8889 5H50.1111C58.823 5 63.179 5 66.5065 6.69545C69.4335 8.18682 71.8132 10.5665 73.3045 13.4935C75 16.821 75 21.177 75 29.8889V50.1111C75 58.823 75 63.179 73.3045 66.5065C71.8132 69.4335 69.4335 71.8132 66.5065 73.3045C63.179 75 58.823 75 50.1111 75H29.8889C21.177 75 16.821 75 13.4935 73.3045C10.5665 71.8132 8.18682 69.4335 6.69545 66.5065C5 63.179 5 58.823 5 50.1111V29.8889Z" fill="white"/>
<path d="M61.2298 15H53.1016V26.7781H64.9952V18.3211C64.9985 18.3211 64.4075 15.3212 61.2298 15Z" fill="#1967D2"/>
<path d="M53.1055 64.9462V64.9751V65.0008L64.9992 53.2227H64.8926L53.1055 64.9462Z" fill="#1967D2"/>
<path d="M65.0001 53.2208V53.1152L64.8945 53.2208H65.0001Z" fill="#FBBC05"/>
<path d="M64.9992 26.7793H53.1055V53.1171H64.9992V26.7793Z" fill="#FBBC05"/>
<path d="M64.8926 53.2227H53.1055V64.9462L64.8926 53.2227Z" fill="#EA4335"/>
<path d="M53.1055 53.2208H64.8926L64.9992 53.1152H53.1055V53.2208Z" fill="#EA4335"/>
<path d="M53.0781 64.9741H53.1069V64.9453L53.0781 64.9741Z" fill="#34A853"/>
<path d="M26.625 53.1152V64.9737H53.0766L53.1057 53.1152H26.625Z" fill="#34A853"/>
<path d="M53.1069 53.2212V53.1152L53.0781 64.9737L53.1069 64.9447V53.2212Z" fill="#34A853"/>
<path d="M15 53.1152V61.3602C15.1066 64.0358 18.0001 64.9737 18.0001 64.9737H26.6257V53.1152H15Z" fill="#188038"/>
<path d="M26.6257 26.7781H53.1063V15H18.3359C18.3359 15 15.2131 15.3212 15 18.6391V53.1159H26.6257V26.7781Z" fill="#4285F4"/>
<path d="M35.2893 47.7852C34.6834 47.7852 34.0992 47.7063 33.5367 47.5485C32.9886 47.3907 32.4837 47.1539 32.0221 46.8383C31.5605 46.5083 31.1494 46.0995 30.7888 45.6117C30.4427 45.1239 30.1758 44.5572 29.9883 43.9116L32.6496 42.8571C32.8371 43.5745 33.1544 44.1196 33.6016 44.4926C34.0488 44.8513 34.6113 45.0306 35.2893 45.0306C35.5922 45.0306 35.8807 44.9876 36.1547 44.9015C36.4288 44.8011 36.6668 44.6648 36.8687 44.4926C37.0707 44.3205 37.2293 44.1196 37.3447 43.8901C37.4746 43.6462 37.5395 43.3736 37.5395 43.0723C37.5395 42.4411 37.3015 41.9461 36.8255 41.5875C36.3639 41.2288 35.722 41.0495 34.8998 41.0495H33.6232V38.4886H34.7916C35.0801 38.4886 35.3614 38.4527 35.6354 38.381C35.9095 38.3093 36.1475 38.2017 36.3495 38.0582C36.5658 37.9004 36.7317 37.7067 36.8471 37.4772C36.9769 37.2333 37.0418 36.9535 37.0418 36.6379C37.0418 36.1501 36.8687 35.7556 36.5225 35.4543C36.1764 35.1387 35.7076 34.9809 35.1162 34.9809C34.4815 34.9809 33.9911 35.153 33.6449 35.4973C33.3131 35.8273 33.0823 36.2003 32.9525 36.6164L30.3561 35.5619C30.4859 35.2032 30.6807 34.8374 30.9403 34.4644C31.1999 34.077 31.5245 33.7327 31.9139 33.4314C32.3178 33.1158 32.7866 32.8647 33.3203 32.6782C33.854 32.4774 34.4671 32.377 35.1594 32.377C35.8662 32.377 36.5081 32.4774 37.0851 32.6782C37.6765 32.8791 38.1814 33.1588 38.5997 33.5175C39.018 33.8618 39.3425 34.2779 39.5733 34.7657C39.8041 35.2391 39.9195 35.7556 39.9195 36.3151C39.9195 36.7455 39.8618 37.1328 39.7464 37.4772C39.6454 37.8215 39.5084 38.1299 39.3353 38.4025C39.1622 38.6751 38.9603 38.9118 38.7295 39.1127C38.5131 39.2992 38.2895 39.4498 38.0587 39.5646V39.7368C38.7511 40.0093 39.3209 40.4469 39.768 41.0495C40.2296 41.652 40.4604 42.4124 40.4604 43.3306C40.4604 43.9762 40.3378 44.5716 40.0926 45.1167C39.8474 45.6475 39.494 46.1138 39.0324 46.5155C38.5852 46.9172 38.0443 47.2257 37.4096 47.4409C36.775 47.6704 36.0682 47.7852 35.2893 47.7852Z" fill="#4285F4"/>
<path d="M45.6273 47.4409V36.0353L43.0093 37.1328L41.9707 34.7441L46.3197 32.7213H48.4617V47.4409H45.6273Z" fill="#4285F4"/>
</svg>
