<svg width="80" height="80" viewBox="0 0 80 80" fill="none" xmlns="http://www.w3.org/2000/svg">
<path d="M5 29.8889C5 21.177 5 16.821 6.69545 13.4935C8.18682 10.5665 10.5665 8.18682 13.4935 6.69545C16.821 5 21.177 5 29.8889 5H50.1111C58.823 5 63.179 5 66.5065 6.69545C69.4335 8.18682 71.8132 10.5665 73.3045 13.4935C75 16.821 75 21.177 75 29.8889V50.1111C75 58.823 75 63.179 73.3045 66.5065C71.8132 69.4335 69.4335 71.8132 66.5065 73.3045C63.179 75 58.823 75 50.1111 75H29.8889C21.177 75 16.821 75 13.4935 73.3045C10.5665 71.8132 8.18682 69.4335 6.69545 66.5065C5 63.179 5 58.823 5 50.1111V29.8889Z" fill="white"/>
<path d="M40.0067 31.1267L31.3545 15.8574C31.6418 15.5649 31.9723 15.3731 32.3028 15.2441C29.7513 16.0839 28.5806 18.949 28.5806 18.949L12.7743 46.8363C12.5519 47.7107 12.4901 48.5001 12.5179 49.1951H29.7699L40.0067 31.1267Z" fill="#34A853"/>
<path d="M40.0039 31.1267L50.2408 49.1951H67.4927C67.5205 48.5001 67.4587 47.7107 67.2363 46.8363L51.43 18.949C51.43 18.949 50.2562 16.0839 47.7078 15.2441C48.0352 15.3731 48.3688 15.5649 48.6561 15.8574L40.0039 31.1267Z" fill="#FBBC05"/>
<path d="M40.0038 31.1286L48.656 15.8593C48.3687 15.5668 48.0351 15.3749 47.7077 15.246C47.3308 15.1233 46.9262 15.0415 46.4875 15.0195H46.0304H33.9772H33.52C33.0845 15.0384 32.6767 15.1202 32.2999 15.246C31.9724 15.3749 31.6388 15.5668 31.3516 15.8593L40.0038 31.1286Z" fill="#188038"/>
<path d="M29.7706 49.1953L21.2172 64.2916C21.2172 64.2916 20.933 64.1533 20.5469 63.8671C21.7608 64.8011 22.9408 64.9993 22.9408 64.9993H56.5334C58.3868 64.9993 58.7729 64.2916 58.7729 64.2916C58.7791 64.2885 58.7822 64.2853 58.7884 64.2822L50.2412 49.1953H29.7706Z" fill="#4285F4"/>
<path d="M29.7714 49.1953H12.5195C12.606 51.2459 13.4956 52.4442 13.4956 52.4442L14.1443 53.5701C14.1907 53.6361 14.2185 53.6739 14.2185 53.6739L15.6301 56.1522L18.7994 61.6686C18.8921 61.8919 19.0002 62.0964 19.1145 62.2914C19.1577 62.3574 19.1979 62.4298 19.2442 62.4927C19.2566 62.5115 19.2689 62.5304 19.2813 62.5493C19.6736 63.1028 20.1122 63.5305 20.5509 63.867C20.937 64.1564 21.2212 64.2916 21.2212 64.2916L29.7714 49.1953Z" fill="#1967D2"/>
<path d="M50.2422 49.1953H67.4941C67.4076 51.2459 66.518 52.4442 66.518 52.4442L65.8693 53.5701C65.823 53.6361 65.7952 53.6739 65.7952 53.6739L64.3835 56.1522L61.2142 61.6686C61.1215 61.8919 61.0134 62.0964 60.8991 62.2914C60.8559 62.3574 60.8157 62.4298 60.7694 62.4927C60.757 62.5115 60.7447 62.5304 60.7323 62.5493C60.34 63.1028 59.9014 63.5305 59.4628 63.867C59.0766 64.1564 58.7925 64.2916 58.7925 64.2916L50.2422 49.1953Z" fill="#EA4335"/>
</svg>
