<svg width="80" height="80" viewBox="0 0 80 80" fill="none" xmlns="http://www.w3.org/2000/svg">
<circle cx="40" cy="40" r="35" fill="#FF3366"/>
<path d="M28.3984 27.1484C30.8147 27.1484 32.7734 25.1897 32.7734 22.7734C32.7734 20.3572 30.8147 18.3984 28.3984 18.3984C25.9822 18.3984 24.0234 20.3572 24.0234 22.7734C24.0234 25.1897 25.9822 27.1484 28.3984 27.1484Z" fill="white"/>
<path d="M19.2578 30.8984L17.7344 36.4844H22.7344C21.7318 40.5599 19.6328 49.1328 19.2578 50.8203C18.7891 52.9297 18.7108 58.9453 25.0391 58.9453C29.456 58.9453 32.2732 56.0919 33.8446 53.7621L32.6562 58.5156H39.7656L43.4766 43.4952C44.0039 40.9961 45.2451 36.1719 49.7266 36.1719C55.0564 36.1719 53.1011 42.4832 52.1428 45.5762C52.1038 45.7022 52.0664 45.8228 52.0312 45.9375C51.3125 48.2812 50.5469 51.0156 50.5469 52.8906C50.5469 55 51.5234 58.9453 56.9922 58.9453C62.4609 58.9453 64.7917 53.5286 65.2734 50.8203L62.5 49.6875C62.3047 51.1328 60.5469 54.2578 58.9062 54.2578C56.6603 54.2578 57.7885 50.4712 58.9925 46.4302C59.5265 44.6377 60.0755 42.7953 60.3516 41.2109C61.0495 37.2052 60.3516 30.3906 53.3984 30.3906C49.0799 30.3906 45.6889 34.2387 44.0757 36.9102L45.4297 30.8984H34.6094L33.125 36.4844H38.1641C38.1641 36.4844 35.1738 48.6707 34.9805 49.0527C32.9492 53.0664 29.877 54.4137 27.5781 54.2578C25.7344 54.1328 25.9505 51.9141 26.2891 50.8203L31.2891 30.8984H19.2578Z" fill="white"/>
</svg>
