<svg width="80" height="80" viewBox="0 0 80 80" fill="none" xmlns="http://www.w3.org/2000/svg">
<path fill-rule="evenodd" clip-rule="evenodd" d="M14.29 73.0445L5.69159 62.3329C3.62282 59.7557 2.5 56.5865 2.5 53.3247V14.5375C2.5 9.65161 6.40896 5.59742 11.4518 5.25313L51.3303 2.53046C54.2275 2.33266 57.107 3.10273 59.4869 4.71176L73.4981 14.1848C76.0061 15.8805 77.5 18.6525 77.5 21.6106V65.7079C77.5 70.4894 73.6564 74.4482 68.7191 74.7522L24.4583 77.4767C20.5183 77.7192 16.71 76.0592 14.29 73.0445Z" fill="white"/>
<path d="M28.1222 33.9465V33.4387C28.1222 32.1515 29.1531 31.0839 30.4818 30.9952L40.1602 30.3491L53.5446 50.0586V32.7601L50.0995 32.3009V32.0597C50.0995 30.7573 51.154 29.6827 52.4996 29.6138L61.3059 29.1627V30.4299C61.3059 31.0249 60.8635 31.5337 60.2572 31.6363L58.138 31.9947V60.009L55.4784 60.9236C53.2565 61.6877 50.7829 60.8698 49.5109 58.9504L36.5171 39.3427V58.0572L40.5166 58.8226L40.4609 59.1936C40.2863 60.3556 39.2831 61.2344 38.0694 61.2884L28.1222 61.7312C27.9907 60.4816 28.9272 59.3637 30.2192 59.2279L31.5277 59.0905V34.1379L28.1222 33.9465Z" fill="black"/>
<path fill-rule="evenodd" clip-rule="evenodd" d="M51.6892 7.41671L11.8106 10.1394C9.42193 10.3025 7.57031 12.2229 7.57031 14.5372V53.3244C7.57031 55.499 8.31886 57.6118 9.69804 59.3299L18.2964 70.0415C19.6866 71.7734 21.8744 72.727 24.1378 72.5877L68.3986 69.8631C70.6671 69.7235 72.433 67.9046 72.433 65.7077V21.6104C72.433 20.2512 71.7467 18.9776 70.5943 18.1985L56.5831 8.72549C55.1552 7.76007 53.4275 7.29803 51.6892 7.41671ZM13.7881 15.1422C13.2335 14.7316 13.4974 13.8761 14.1942 13.8261L51.9574 11.1175C53.1606 11.0312 54.3562 11.3626 55.3293 12.052L62.9062 17.4201C63.1938 17.6239 63.0589 18.0638 62.7028 18.0832L22.7116 20.2582C21.5014 20.324 20.3068 19.9684 19.3445 19.256L13.7881 15.1422ZM20.8359 27.0765C20.8359 25.7773 21.8855 24.7042 23.2276 24.6311L65.5096 22.3284C66.8176 22.2572 67.9188 23.2631 67.9188 24.5293V62.7129C67.9188 64.0097 66.8729 65.0818 65.5334 65.158L23.5192 67.5486C22.0634 67.6314 20.8359 66.5128 20.8359 65.1035V27.0765Z" fill="black"/>
</svg>
