<svg width="80" height="80" viewBox="0 0 80 80" fill="none" xmlns="http://www.w3.org/2000/svg">
<path d="M66.2505 37.4989C69.702 37.4989 72.5 34.7009 72.5 31.2495C72.5 27.798 69.7018 25 66.2503 25C62.7985 25 60 27.7982 60 31.25V37.4989H66.2505ZM48.75 37.4989C52.2018 37.4989 55 34.7007 55 31.2489V13.75C55 10.2982 52.2018 7.5 48.75 7.5C45.2982 7.5 42.5 10.2982 42.5 13.75V31.2489C42.5 34.7007 45.2982 37.4989 48.75 37.4989Z" fill="#2EB67D"/>
<path d="M13.7495 42.5011C10.298 42.5011 7.50001 45.299 7.50001 48.7505C7.50001 52.202 10.2983 55 13.7497 55C17.2015 55 20 52.2018 20 48.75V42.5011H13.7495ZM31.25 42.5011C27.7982 42.5011 25 45.2993 25 48.7511V66.25C25 69.7018 27.7982 72.5 31.25 72.5C34.7018 72.5 37.5 69.7018 37.5 66.25V48.7511C37.5 45.2993 34.7018 42.5011 31.25 42.5011Z" fill="#E01E5A"/>
<path d="M42.5011 66.2505C42.5011 69.702 45.299 72.5 48.7505 72.5C52.202 72.5 55 69.7017 55 66.2503C55 62.7985 52.2018 60 48.75 60L42.5011 60L42.5011 66.2505ZM42.5011 48.75C42.5011 52.2018 45.2993 55 48.7511 55L66.25 55C69.7018 55 72.5 52.2018 72.5 48.75C72.5 45.2982 69.7018 42.5 66.25 42.5L48.7511 42.5C45.2993 42.5 42.5011 45.2982 42.5011 48.75Z" fill="#ECB22E"/>
<path d="M37.4989 13.7495C37.4989 10.298 34.701 7.5 31.2495 7.5C27.798 7.5 25 10.2983 25 13.7497C25 17.2015 27.7982 20 31.25 20L37.4989 20L37.4989 13.7495ZM37.4989 31.25C37.4989 27.7982 34.7007 25 31.2489 25L13.75 25C10.2982 25 7.5 27.7982 7.5 31.25C7.5 34.7018 10.2982 37.5 13.75 37.5L31.2489 37.5C34.7007 37.5 37.4989 34.7018 37.4989 31.25Z" fill="#36C5F0"/>
</svg>
