<svg width="80" height="80" viewBox="0 0 80 80" fill="none" xmlns="http://www.w3.org/2000/svg">
<path d="M47.3878 47.4055C42.6387 49.1925 37.3169 49.1958 32.5677 47.4066C30.7784 42.6626 30.7779 37.3419 32.565 32.5972C37.313 30.807 42.64 30.8067 47.3881 32.5969C49.1767 37.3402 49.1759 42.6621 47.3878 47.4055ZM74.5134 34.1675H54.07L68.5248 19.721C66.2563 16.5364 63.4556 13.7389 60.269 11.4717L45.8131 25.9182V5.48804C41.955 4.83943 37.9983 4.84042 34.1402 5.48804V25.9182L19.6843 11.4717C16.4985 13.7373 13.6969 16.5387 11.4282 19.721L25.8852 34.1675H5.44208C4.93745 38.1388 4.7735 41.871 5.44208 45.834H25.8855L11.4285 60.2805C13.7027 63.4699 16.4928 66.2583 19.6843 68.531L34.1402 54.0834V74.5146C37.9987 75.1608 41.9543 75.1611 45.8129 74.5146V54.0834L60.2701 68.531C63.4581 66.2615 66.2539 63.4663 68.5248 60.2805L54.0678 45.834H74.5134C75.1622 41.9817 75.1622 38.0198 74.5134 34.1675Z" fill="#FF4A00"/>
</svg>
